<svg xmlns="http://www.w3.org/2000/svg" viewBox="0 0 61.348934 57.544666" height="57.545" width="61.349"><defs><clipPath id="a"><path d="M0 43.158h46.012V0H0z"/></clipPath></defs><g clip-path="url(#a)" fill="#24abe2" transform="matrix(1.33333 0 0 -1.33333 0 57.545)"><path d="M33.693 23.235l-1.685-3.628c-2.377-5.127-3.633-9.052-3.839-11.997-.075-1.067-.009-2.017.193-2.847L6.7 14.81c2.864 1.427 5.773 5.453 8.98 12.369l1.684 3.628a9.036 9.036 0 0 0 8.171 5.215 8.921 8.921 0 0 0 3.78-.838 8.934 8.934 0 0 0 4.664-5.07 8.935 8.935 0 0 0-.286-6.88M31.84 40.629a2.975 2.975 0 0 0 1.555-1.69 2.975 2.975 0 0 0-.096-2.293l-.597-1.29a11.102 11.102 0 0 1-2.544 1.645c-.935.434-1.907.714-2.903.873l.602 1.297a3.002 3.002 0 0 0 3.983 1.458M18.15 3.988a3.012 3.012 0 0 0-2.724-1.738 3.003 3.003 0 0 0-2.718 4.262 3.01 3.01 0 0 0 2.724 1.738 3.002 3.002 0 0 0 2.718-4.262m16.036 29.816l.93 2a4.974 4.974 0 0 1 .157 3.824 4.968 4.968 0 0 1-2.59 2.816 5.005 5.005 0 0 1-6.64-2.432l-.93-2.003c-4.105-.16-7.827-2.615-9.564-6.358l-1.684-3.628c-3.632-7.833-6.847-11.805-9.554-11.805a3.02 3.02 0 0 0-1.292.302 1 1 0 1 1-.843-1.814l.004-.002 10.9-5.055a4.997 4.997 0 0 1-2.187-2.293A5.007 5.007 0 0 1 13.324.715 4.959 4.959 0 0 1 15.426.25a5.017 5.017 0 0 1 4.538 2.897 4.938 4.938 0 0 1 .333 3.152l10.91-5.061a1 1 0 0 1 .841 1.814l-.006.003c-.91.425-2.09 1.344-1.876 4.413.185 2.66 1.416 6.462 3.658 11.295l1.683 3.628a10.928 10.928 0 0 1 .352 8.412 11.035 11.035 0 0 1-1.673 3"/><path d="M33.693 23.235l-1.685-3.628c-2.377-5.127-3.633-9.052-3.839-11.997-.075-1.067-.009-2.017.193-2.847L6.7 14.81c2.864 1.427 5.773 5.453 8.98 12.369l1.684 3.628a9.036 9.036 0 0 0 8.171 5.215 8.921 8.921 0 0 0 3.78-.838 8.934 8.934 0 0 0 4.664-5.07 8.935 8.935 0 0 0-.286-6.88zM31.84 40.629a2.975 2.975 0 0 0 1.555-1.69 2.975 2.975 0 0 0-.096-2.293l-.597-1.29a11.102 11.102 0 0 1-2.544 1.645c-.935.434-1.907.714-2.903.873l.602 1.297a3.002 3.002 0 0 0 3.983 1.458zM18.15 3.988a3.012 3.012 0 0 0-2.724-1.738 3.003 3.003 0 0 0-2.718 4.262 3.01 3.01 0 0 0 2.724 1.738 3.002 3.002 0 0 0 2.718-4.262zm16.036 29.816l.93 2a4.974 4.974 0 0 1 .157 3.824 4.968 4.968 0 0 1-2.59 2.816 5.005 5.005 0 0 1-6.64-2.432l-.93-2.003c-4.105-.16-7.827-2.615-9.564-6.358l-1.684-3.628c-3.632-7.833-6.847-11.805-9.554-11.805a3.02 3.02 0 0 0-1.292.302 1 1 0 1 1-.843-1.814l.004-.002 10.9-5.055a4.997 4.997 0 0 1-2.187-2.293A5.007 5.007 0 0 1 13.324.715 4.959 4.959 0 0 1 15.426.25a5.017 5.017 0 0 1 4.538 2.897 4.938 4.938 0 0 1 .333 3.152l10.91-5.061a1 1 0 0 1 .841 1.814l-.006.003c-.91.425-2.09 1.344-1.876 4.413.185 2.66 1.416 6.462 3.658 11.295l1.683 3.628a10.928 10.928 0 0 1 .352 8.412 11.035 11.035 0 0 1-1.673 3z"/><path d="M27.633 31.558a4.966 4.966 0 0 1-3.824.16 4.966 4.966 0 0 1-2.816-2.592 1 1 0 0 1 1.814-.842c.337.728.938 1.28 1.689 1.556a2.971 2.971 0 0 0 2.294-.097 1 1 0 0 1 .843 1.815"/><path d="M27.633 31.558a4.966 4.966 0 0 1-3.824.16 4.966 4.966 0 0 1-2.816-2.592 1 1 0 0 1 1.814-.842c.337.728.938 1.28 1.689 1.556a2.971 2.971 0 0 0 2.294-.097 1 1 0 0 1 .843 1.815zM3.004 26.236a.999.999 0 0 1 .707 1.707 5.005 5.005 0 0 0 0 7.07.999.999 0 1 1-1.414 1.414 7.007 7.007 0 0 1 0-9.898.997.997 0 0 1 .707-.293"/><path d="M3.004 26.236a.999.999 0 0 1 .707 1.707 5.005 5.005 0 0 0 0 7.07.999.999 0 1 1-1.414 1.414 7.007 7.007 0 0 1 0-9.898.997.997 0 0 1 .707-.293zm39.293 8.393a.999.999 0 0 1 0-1.414 4.968 4.968 0 0 0 1.465-3.535 4.968 4.968 0 0 0-1.465-3.535.999.999 0 1 1 1.414-1.414 6.955 6.955 0 0 1 2.05 4.949 6.955 6.955 0 0 1-2.05 4.949 1 1 0 0 1-1.414 0"/><path d="M42.297 34.629a.999.999 0 0 1 0-1.414 4.968 4.968 0 0 0 1.465-3.535 4.968 4.968 0 0 0-1.465-3.535.999.999 0 1 1 1.414-1.414 6.955 6.955 0 0 1 2.05 4.949 6.955 6.955 0 0 1-2.05 4.949 1 1 0 0 1-1.414 0z"/></g></svg>