<?xml version="1.0" encoding="UTF-8" standalone="no"?>
<svg
   xmlns:dc="http://purl.org/dc/elements/1.1/"
   xmlns:cc="http://creativecommons.org/ns#"
   xmlns:rdf="http://www.w3.org/1999/02/22-rdf-syntax-ns#"
   xmlns:svg="http://www.w3.org/2000/svg"
   xmlns="http://www.w3.org/2000/svg"
   viewBox="0 0 61.348934 57.544666"
   height="57.544666"
   width="61.348934"
   xml:space="preserve"
   id="svg2"
   version="1.1"><metadata
     id="metadata8"><rdf:RDF><cc:Work
         rdf:about=""><dc:format>image/svg+xml</dc:format><dc:type
           rdf:resource="http://purl.org/dc/dcmitype/StillImage" /><dc:title></dc:title></cc:Work></rdf:RDF></metadata><defs
     id="defs6"><clipPath
       id="clipPath18"
       clipPathUnits="userSpaceOnUse"><path
         id="path16"
         d="M 0,43.158 H 46.012 V 0 H 0 Z" /></clipPath></defs><g
     transform="matrix(1.3333333,0,0,-1.3333333,0,57.544667)"
     id="g10"><g
       style="fill:#000000;fill-opacity:1;stroke:none;stroke-opacity:1"
       id="g12"><g
         style="fill:#24abe2;fill-opacity:1;stroke:none;stroke-opacity:1"
         clip-path="url(#clipPath18)"
         id="g14"><g
           style="fill:#24abe2;fill-opacity:1;stroke:none;stroke-opacity:1"
           transform="translate(33.6932,23.2348)"
           id="g20"><path
             id="path22"
             style="fill:#24abe2;fill-opacity:1;fill-rule:nonzero;stroke:none;stroke-opacity:1"
             d="m 0,0 -1.685,-3.628 c -2.377,-5.127 -3.633,-9.052 -3.839,-11.997 -0.075,-1.067 -0.009,-2.017 0.193,-2.847 l -21.662,10.048 c 2.864,1.427 5.773,5.453 8.98,12.369 l 1.684,3.628 c 1.47,3.168 4.677,5.215 8.171,5.215 1.309,0 2.582,-0.282 3.78,-0.838 C -2.196,10.939 -0.54,9.138 0.286,6.881 1.113,4.624 1.012,2.18 0,0 m -1.853,17.394 c 0.728,-0.337 1.28,-0.937 1.555,-1.689 0.277,-0.752 0.241,-1.567 -0.096,-2.294 l -0.597,-1.289 c -0.762,0.653 -1.611,1.21 -2.544,1.644 -0.935,0.434 -1.907,0.714 -2.903,0.873 l 0.602,1.297 c 0.695,1.5 2.482,2.154 3.983,1.458 m -13.69,-36.641 c -0.491,-1.057 -1.56,-1.738 -2.724,-1.738 -0.436,0 -0.859,0.094 -1.259,0.279 -1.5,0.697 -2.156,2.483 -1.459,3.983 0.489,1.057 1.559,1.738 2.724,1.738 0.435,0 0.86,-0.094 1.26,-0.279 1.5,-0.695 2.154,-2.483 1.458,-3.983 m 16.036,29.816 0.929,2 c 0.561,1.211 0.617,2.569 0.158,3.824 -0.459,1.254 -1.38,2.254 -2.591,2.816 -2.498,1.161 -5.478,0.07 -6.639,-2.432 l -0.93,-2.003 c -4.105,-0.159 -7.827,-2.615 -9.564,-6.358 l -1.684,-3.628 c -3.632,-7.833 -6.847,-11.805 -9.554,-11.805 -0.432,0 -0.855,0.099 -1.292,0.302 -0.5,0.233 -1.097,0.015 -1.328,-0.486 -0.232,-0.501 -0.016,-1.096 0.485,-1.328 0.001,-10e-4 0.003,-10e-4 0.004,-0.002 l 10.9,-5.055 c -0.94,-0.504 -1.723,-1.292 -2.187,-2.293 -1.16,-2.501 -0.07,-5.48 2.431,-6.641 0.666,-0.309 1.373,-0.465 2.102,-0.465 1.94,0 3.723,1.137 4.538,2.897 0.477,1.024 0.556,2.126 0.333,3.152 l 10.909,-5.061 c 0.136,-0.063 0.279,-0.092 0.42,-0.092 0.378,0 0.739,0.214 0.908,0.578 0.231,0.502 0.014,1.096 -0.487,1.328 l -0.005,0.003 c -0.911,0.425 -2.091,1.344 -1.876,4.413 0.185,2.661 1.416,6.462 3.658,11.295 l 1.683,3.628 c 1.237,2.666 1.362,5.653 0.352,8.412 -0.403,1.1 -0.973,2.105 -1.673,3.001" /></g><g
           style="fill:#24abe2;fill-opacity:1;stroke:none;stroke-opacity:1"
           transform="translate(33.6932,23.2348)"
           id="g24"><path
             id="path26"
             style="fill:#24abe2;stroke:none;stroke-width:0.5;stroke-linecap:butt;stroke-linejoin:miter;stroke-miterlimit:10;stroke-dasharray:none;stroke-opacity:1;fill-opacity:1"
             d="m 0,0 -1.685,-3.628 c -2.377,-5.127 -3.633,-9.052 -3.839,-11.997 -0.075,-1.067 -0.009,-2.017 0.193,-2.847 l -21.662,10.048 c 2.864,1.427 5.773,5.453 8.98,12.369 l 1.684,3.628 c 1.47,3.168 4.677,5.215 8.171,5.215 1.309,0 2.582,-0.282 3.78,-0.838 C -2.196,10.939 -0.54,9.138 0.286,6.881 1.113,4.624 1.012,2.18 0,0 Z m -1.853,17.394 c 0.728,-0.337 1.28,-0.937 1.555,-1.689 0.277,-0.752 0.241,-1.567 -0.096,-2.294 l -0.597,-1.289 c -0.762,0.653 -1.611,1.21 -2.544,1.644 -0.935,0.434 -1.907,0.714 -2.903,0.873 l 0.602,1.297 c 0.695,1.5 2.482,2.154 3.983,1.458 z m -13.69,-36.641 c -0.491,-1.057 -1.56,-1.738 -2.724,-1.738 -0.436,0 -0.859,0.094 -1.259,0.279 -1.5,0.697 -2.156,2.483 -1.459,3.983 0.489,1.057 1.559,1.738 2.724,1.738 0.435,0 0.86,-0.094 1.26,-0.279 1.5,-0.695 2.154,-2.483 1.458,-3.983 z m 16.036,29.816 0.929,2 c 0.561,1.211 0.617,2.569 0.158,3.824 -0.459,1.254 -1.38,2.254 -2.591,2.816 -2.498,1.161 -5.478,0.07 -6.639,-2.432 l -0.93,-2.003 c -4.105,-0.159 -7.827,-2.615 -9.564,-6.358 l -1.684,-3.628 c -3.632,-7.833 -6.847,-11.805 -9.554,-11.805 -0.432,0 -0.855,0.099 -1.292,0.302 -0.5,0.233 -1.097,0.015 -1.328,-0.486 -0.232,-0.501 -0.016,-1.096 0.485,-1.328 0.001,-10e-4 0.003,-10e-4 0.004,-0.002 l 10.9,-5.055 c -0.94,-0.504 -1.723,-1.292 -2.187,-2.293 -1.16,-2.501 -0.07,-5.48 2.431,-6.641 0.666,-0.309 1.373,-0.465 2.102,-0.465 1.94,0 3.723,1.137 4.538,2.897 0.477,1.024 0.556,2.126 0.333,3.152 l 10.909,-5.061 c 0.136,-0.063 0.279,-0.092 0.42,-0.092 0.378,0 0.739,0.214 0.908,0.578 0.231,0.502 0.014,1.096 -0.487,1.328 l -0.005,0.003 c -0.911,0.425 -2.091,1.344 -1.876,4.413 0.185,2.661 1.416,6.462 3.658,11.295 l 1.683,3.628 c 1.237,2.666 1.362,5.653 0.352,8.412 -0.403,1.1 -0.973,2.105 -1.673,3.001 z" /></g><g
           style="fill:#24abe2;fill-opacity:1;stroke:none;stroke-opacity:1"
           transform="translate(27.6327,31.558)"
           id="g28"><path
             id="path30"
             style="fill:#24abe2;fill-opacity:1;fill-rule:nonzero;stroke:none;stroke-opacity:1"
             d="m 0,0 c -1.213,0.562 -2.57,0.62 -3.824,0.16 -1.254,-0.459 -2.253,-1.379 -2.816,-2.592 -0.232,-0.501 -0.015,-1.096 0.486,-1.328 0.136,-0.063 0.279,-0.093 0.42,-0.093 0.377,0 0.738,0.214 0.908,0.579 0.337,0.728 0.938,1.28 1.689,1.556 0.749,0.276 1.566,0.242 2.294,-0.097 0.504,-0.231 1.096,-0.014 1.328,0.486 C 0.719,-0.828 0.501,-0.233 0,0" /></g><g
           style="fill:#24abe2;fill-opacity:1;stroke:none;stroke-opacity:1"
           transform="translate(27.6327,31.558)"
           id="g32"><path
             id="path34"
             style="fill:#24abe2;stroke:none;stroke-width:0.5;stroke-linecap:butt;stroke-linejoin:miter;stroke-miterlimit:10;stroke-dasharray:none;stroke-opacity:1;fill-opacity:1"
             d="m 0,0 c -1.213,0.562 -2.57,0.62 -3.824,0.16 -1.254,-0.459 -2.253,-1.379 -2.816,-2.592 -0.232,-0.501 -0.015,-1.096 0.486,-1.328 0.136,-0.063 0.279,-0.093 0.42,-0.093 0.377,0 0.738,0.214 0.908,0.579 0.337,0.728 0.938,1.28 1.689,1.556 0.749,0.276 1.566,0.242 2.294,-0.097 0.504,-0.231 1.096,-0.014 1.328,0.486 C 0.719,-0.828 0.501,-0.233 0,0 Z" /></g><g
           style="fill:#24abe2;fill-opacity:1;stroke:none;stroke-opacity:1"
           transform="translate(3.0038,26.2362)"
           id="g36"><path
             id="path38"
             style="fill:#24abe2;fill-opacity:1;fill-rule:nonzero;stroke:none;stroke-opacity:1"
             d="m 0,0 c 0.256,0 0.512,0.098 0.707,0.293 0.391,0.391 0.391,1.023 0,1.414 -1.949,1.949 -1.949,5.121 0,7.07 0.391,0.391 0.391,1.023 0,1.414 -0.391,0.391 -1.023,0.391 -1.414,0 -2.729,-2.729 -2.729,-7.169 0,-9.898 C -0.512,0.098 -0.256,0 0,0" /></g><g
           style="fill:#24abe2;fill-opacity:1;stroke:none;stroke-opacity:1"
           transform="translate(3.0038,26.2362)"
           id="g40"><path
             id="path42"
             style="fill:#24abe2;stroke:none;stroke-width:0.5;stroke-linecap:butt;stroke-linejoin:miter;stroke-miterlimit:10;stroke-dasharray:none;stroke-opacity:1;fill-opacity:1"
             d="m 0,0 c 0.256,0 0.512,0.098 0.707,0.293 0.391,0.391 0.391,1.023 0,1.414 -1.949,1.949 -1.949,5.121 0,7.07 0.391,0.391 0.391,1.023 0,1.414 -0.391,0.391 -1.023,0.391 -1.414,0 -2.729,-2.729 -2.729,-7.169 0,-9.898 C -0.512,0.098 -0.256,0 0,0 Z" /></g><g
           style="fill:#24abe2;fill-opacity:1;stroke:none;stroke-opacity:1"
           transform="translate(42.2967,34.6288)"
           id="g44"><path
             id="path46"
             style="fill:#24abe2;fill-opacity:1;fill-rule:nonzero;stroke:none;stroke-opacity:1"
             d="m 0,0 c -0.391,-0.391 -0.391,-1.024 0,-1.414 0.944,-0.944 1.465,-2.2 1.465,-3.535 0,-1.335 -0.521,-2.591 -1.465,-3.535 -0.391,-0.39 -0.391,-1.023 0,-1.414 0.195,-0.195 0.451,-0.293 0.707,-0.293 0.256,0 0.512,0.098 0.707,0.293 1.322,1.322 2.051,3.08 2.051,4.949 C 3.465,-3.08 2.736,-1.322 1.414,0 1.023,0.39 0.391,0.39 0,0" /></g><g
           style="fill:#24abe2;fill-opacity:1;stroke:none;stroke-opacity:1"
           transform="translate(42.2967,34.6288)"
           id="g48"><path
             id="path50"
             style="fill:#24abe2;stroke:none;stroke-width:0.5;stroke-linecap:butt;stroke-linejoin:miter;stroke-miterlimit:10;stroke-dasharray:none;stroke-opacity:1;fill-opacity:1"
             d="m 0,0 c -0.391,-0.391 -0.391,-1.024 0,-1.414 0.944,-0.944 1.465,-2.2 1.465,-3.535 0,-1.335 -0.521,-2.591 -1.465,-3.535 -0.391,-0.39 -0.391,-1.023 0,-1.414 0.195,-0.195 0.451,-0.293 0.707,-0.293 0.256,0 0.512,0.098 0.707,0.293 1.322,1.322 2.051,3.08 2.051,4.949 C 3.465,-3.08 2.736,-1.322 1.414,0 1.023,0.39 0.391,0.39 0,0 Z" /></g></g></g></g></svg>