<?xml version="1.0" encoding="UTF-8" standalone="no"?>
<svg
   xmlns:dc="http://purl.org/dc/elements/1.1/"
   xmlns:cc="http://creativecommons.org/ns#"
   xmlns:rdf="http://www.w3.org/1999/02/22-rdf-syntax-ns#"
   xmlns:svg="http://www.w3.org/2000/svg"
   xmlns="http://www.w3.org/2000/svg"
   viewBox="0 0 120 83.382668"
   height="83.382668"
   width="120"
   xml:space="preserve"
   id="svg2"
   version="1.1"><metadata
     id="metadata8"><rdf:RDF><cc:Work
         rdf:about=""><dc:format>image/svg+xml</dc:format><dc:type
           rdf:resource="http://purl.org/dc/dcmitype/StillImage" /><dc:title></dc:title></cc:Work></rdf:RDF></metadata><defs
     id="defs6"><clipPath
       id="clipPath18"
       clipPathUnits="userSpaceOnUse"><path
         id="path16"
         d="M 0,62.537 H 90 V 0 H 0 Z" /></clipPath></defs><g
     transform="matrix(1.3333333,0,0,-1.3333333,0,83.382667)"
     id="g10"><g
       id="g12"><g
         clip-path="url(#clipPath18)"
         id="g14"><g
           transform="translate(81.75,50.4028)"
           id="g20"><path
             id="path22"
             style="fill:#24abe2;fill-opacity:1;fill-rule:nonzero;stroke:none"
             d="m 0,0 c -2.142,0 -3.884,1.742 -3.884,3.884 0,2.141 1.742,3.883 3.884,3.883 2.141,0 3.883,-1.742 3.883,-3.883 C 3.883,1.742 2.142,0 0,0 m -2.183,-46.037 h -69.134 v 39.864 l 14.922,-14.852 c 0.843,-0.839 2.201,-0.849 3.056,-0.023 l 16.584,16.004 16.595,-16.005 c 0.854,-0.824 2.212,-0.814 3.056,0.024 l 14.922,14.852 v -39.864 z m -75.2,49.921 c 0,2.141 1.742,3.883 3.884,3.883 2.141,0 3.883,-1.742 3.883,-3.883 0,-2.142 -1.742,-3.884 -3.883,-3.884 -2.143,0 -3.884,1.742 -3.884,3.884 m 40.633,3.883 c 2.141,0 3.883,-1.742 3.883,-3.883 0,-2.142 -1.742,-3.884 -3.883,-3.884 -2.142,0 -3.884,1.742 -3.884,3.884 10e-4,2.141 1.743,3.883 3.884,3.883 M 0,12.133 c -4.549,0 -8.25,-3.701 -8.25,-8.25 0,-2.708 1.317,-5.107 3.337,-6.612 l -13.756,-13.692 -13.772,13.283 c 2.36,1.453 3.941,4.053 3.941,7.022 0,4.549 -3.701,8.25 -8.25,8.25 -4.549,0 -8.25,-3.701 -8.25,-8.25 0,-2.967 1.579,-5.565 3.936,-7.019 L -54.831,-16.42 -68.587,-2.728 c 2.02,1.505 3.337,3.905 3.337,6.612 0,4.549 -3.701,8.25 -8.25,8.25 -4.549,0 -8.25,-3.701 -8.25,-8.25 0,-3.793 2.575,-6.987 6.067,-7.948 V -48.22 c 0,-1.206 0.978,-2.182 2.183,-2.182 H 0 c 1.206,0 2.183,0.977 2.183,2.182 V -4.064 C 5.675,-3.103 8.25,0.091 8.25,3.884 8.25,8.433 4.549,12.133 0,12.133" /></g><g
           transform="translate(45,18.5561)"
           id="g24"><path
             id="path26"
             style="fill:#24abe2;fill-opacity:1;fill-rule:nonzero;stroke:none"
             d="m 0,0 c -2.811,0 -5.097,2.286 -5.097,5.097 0,2.811 2.287,5.096 5.097,5.096 2.81,0 5.096,-2.286 5.096,-5.097 C 5.096,2.285 2.81,0 0,0 m 0,14.56 c -5.218,0 -9.463,-4.245 -9.463,-9.463 0,-5.218 4.245,-9.463 9.463,-9.463 5.218,0 9.463,4.245 9.463,9.463 0,5.218 -4.245,9.463 -9.463,9.463" /></g></g></g></g></svg>