<svg xmlns="http://www.w3.org/2000/svg" viewBox="0 0 120 83.382668" height="83.383" width="120"><defs><clipPath id="a"><path d="M0 62.537h90V0H0z"/></clipPath></defs><g clip-path="url(#a)" transform="matrix(1.33333 0 0 -1.33333 0 83.383)" fill="#24abe2"><path d="M81.75 50.403a3.888 3.888 0 0 0-3.884 3.884 3.888 3.888 0 0 0 3.884 3.883 3.888 3.888 0 0 0 3.883-3.883 3.887 3.887 0 0 0-3.883-3.884M79.567 4.366H10.433V44.23l14.922-14.852a2.182 2.182 0 0 1 3.056-.023l16.584 16.004L61.59 29.354a2.185 2.185 0 0 1 3.056.024L79.568 44.23V4.366zm-75.2 49.92a3.888 3.888 0 0 0 3.884 3.884 3.888 3.888 0 0 0 3.883-3.883 3.888 3.888 0 0 0-3.883-3.884 3.887 3.887 0 0 0-3.884 3.884M45 58.17a3.888 3.888 0 0 0 3.883-3.883A3.888 3.888 0 0 0 45 50.403a3.888 3.888 0 0 0-3.884 3.884A3.889 3.889 0 0 0 45 58.17m36.75 4.366c-4.549 0-8.25-3.701-8.25-8.25 0-2.708 1.317-5.107 3.337-6.612L63.081 33.982 49.309 47.265c2.36 1.453 3.941 4.053 3.941 7.022 0 4.549-3.701 8.25-8.25 8.25-4.549 0-8.25-3.701-8.25-8.25 0-2.967 1.579-5.565 3.936-7.02L26.919 33.984 13.163 47.675c2.02 1.505 3.337 3.905 3.337 6.612 0 4.549-3.701 8.25-8.25 8.25-4.549 0-8.25-3.701-8.25-8.25 0-3.793 2.575-6.987 6.067-7.948V2.183C6.067.977 7.045 0 8.25 0h73.5c1.206 0 2.183.977 2.183 2.182v44.156c3.492.96 6.067 4.155 6.067 7.948 0 4.549-3.701 8.249-8.25 8.249"/><path d="M45 18.556a5.102 5.102 0 0 0-5.097 5.097A5.102 5.102 0 0 0 45 28.75a5.102 5.102 0 0 0 5.096-5.097A5.101 5.101 0 0 0 45 18.556m0 14.56c-5.218 0-9.463-4.245-9.463-9.463 0-5.218 4.245-9.463 9.463-9.463 5.218 0 9.463 4.245 9.463 9.463 0 5.218-4.245 9.463-9.463 9.463"/></g></svg>