<?xml version="1.0" encoding="UTF-8" standalone="no"?>
<svg
   xmlns:dc="http://purl.org/dc/elements/1.1/"
   xmlns:cc="http://creativecommons.org/ns#"
   xmlns:rdf="http://www.w3.org/1999/02/22-rdf-syntax-ns#"
   xmlns:svg="http://www.w3.org/2000/svg"
   xmlns="http://www.w3.org/2000/svg"
   viewBox="0 0 35.4048 40.457066"
   height="40.457066"
   width="35.4048"
   xml:space="preserve"
   id="svg2"
   version="1.1"><metadata
     id="metadata8"><rdf:RDF><cc:Work
         rdf:about=""><dc:format>image/svg+xml</dc:format><dc:type
           rdf:resource="http://purl.org/dc/dcmitype/StillImage" /><dc:title></dc:title></cc:Work></rdf:RDF></metadata><defs
     id="defs6"><clipPath
       id="clipPath18"
       clipPathUnits="userSpaceOnUse"><path
         id="path16"
         d="M 0,30.343 H 26.554 V 0 H 0 Z" /></clipPath></defs><g
     transform="matrix(1.3333333,0,0,-1.3333333,0,40.457067)"
     id="g10"><g
       id="g12"><g
         clip-path="url(#clipPath18)"
         id="g14"><g
           transform="translate(13.3239,1.3525)"
           id="g20"><path
             id="path22"
             style="fill:#24abe2;fill-opacity:1;fill-rule:nonzero;stroke:none"
             d="M 0,0 -0.048,-0.021 -0.096,0 c -11.641,4.842 -11.977,21.978 -11.977,23.916 v 0.065 l 0.054,0.038 c 3.551,2.434 7.691,3.721 11.971,3.721 4.281,0 8.42,-1.287 11.971,-3.721 l 0.055,-0.038 V 23.916 C 11.978,21.978 11.642,4.842 0,0 m 13.229,24.231 -10e-4,0.414 -0.44,0.264 C 9.025,27.581 4.59,28.99 -0.048,28.99 c -4.638,0 -9.074,-1.409 -12.827,-4.076 l -0.448,-0.269 v -0.398 c -0.023,-3.398 0.498,-20.6 13.021,-25.516 l 0.254,-0.084 0.26,0.086 c 12.568,4.898 13.048,22.1 13.017,25.498" /></g><g
           transform="translate(9.858,18.938)"
           id="g24"><path
             id="path26"
             style="fill:#24abe2;fill-opacity:1;fill-rule:nonzero;stroke:none"
             d="M 0,0 5.904,-5.904 6.788,-5.02 0.884,0.884 Z" /></g><g
           transform="translate(9.8566,13.9888)"
           id="g28"><path
             id="path30"
             style="fill:#24abe2;fill-opacity:1;fill-rule:nonzero;stroke:none"
             d="M 0,0 0.883,-0.884 6.789,5.02 5.905,5.904 Z" /></g></g></g></g></svg>