<?xml version="1.0" encoding="UTF-8" standalone="no"?>
<svg
   xmlns:dc="http://purl.org/dc/elements/1.1/"
   xmlns:cc="http://creativecommons.org/ns#"
   xmlns:rdf="http://www.w3.org/1999/02/22-rdf-syntax-ns#"
   xmlns:svg="http://www.w3.org/2000/svg"
   xmlns="http://www.w3.org/2000/svg"
   viewBox="0 0 64 54.153332"
   height="54.153332"
   width="64"
   xml:space="preserve"
   id="svg2"
   version="1.1"><metadata
     id="metadata8"><rdf:RDF><cc:Work
         rdf:about=""><dc:format>image/svg+xml</dc:format><dc:type
           rdf:resource="http://purl.org/dc/dcmitype/StillImage" /><dc:title></dc:title></cc:Work></rdf:RDF></metadata><defs
     id="defs6"><clipPath
       id="clipPath18"
       clipPathUnits="userSpaceOnUse"><path
         id="path16"
         d="M 0,40.615 H 48 V 0 H 0 Z" /></clipPath></defs><g
     transform="matrix(1.3333333,0,0,-1.3333333,0,54.153333)"
     id="g10"><g
       style="fill-opacity:1;fill:#24abe0"
       id="g12"><g
         style="fill-opacity:1;fill:#24abe0"
         clip-path="url(#clipPath18)"
         id="g14"><g
           style="fill-opacity:1;fill:#24abe0"
           transform="translate(33.2002,31.6999)"
           id="g20"><path
             id="path22"
             style="fill:#24abe0;fill-opacity:1;fill-rule:nonzero;stroke:none"
             d="m 0,0 c 0.2,0 0.3,0 0.399,0.1 0,-0.5 -0.199,-1 -0.599,-1.3 -0.7,-0.7 -1.901,-0.7 -2.7,0 -0.4,0.4 -0.6,0.8 -0.6,1.3 0,0.5 0.2,1 0.6,1.3 C -2.5,1.8 -2.101,2 -1.601,2 -1.4,2 -1.2,2 -1.101,1.9 -1.101,1.6 -1.2,1.3 -1.2,1 -1,0.5 -0.5,0 0,0 m 5.3,3.3 -0.8,-10.5 -22,-22 -13.3,13.2 22,22 10.5,0.8 c 0.4,0 0.699,0 1,-0.1 C 1.399,6 0.3,5 -0.3,3.7 -1.601,4.1 -3.2,3.8 -4.2,2.8 -4.9,2.1 -5.3,1.1 -5.3,0.1 c 0,-1 0.4,-2 1.1,-2.7 0.7,-0.7 1.7,-1.1 2.7,-1.1 1,0 2,0.4 2.7,1.1 0.699,0.7 1.1,1.7 1.1,2.7 0,1 -0.401,1.9 -1,2.6 C 1.899,3.9 3.1,4.9 4.6,5.4 5.1,4.8 5.399,4.1 5.3,3.3 m 1.599,4.5 c -0.5,0 -1,0 -1.5,-0.1 C 4.3,8.6 3,9 1.6,8.9 L -9.3,8 C -9.5,8 -9.8,7.9 -9.9,7.7 l -23,-23 c -0.4,-0.4 -0.4,-1 0,-1.4 l 14.7,-14.7 c 0.2,-0.2 0.5,-0.3 0.7,-0.3 0.2,0 0.5,0.1 0.7,0.3 l 23,23 c 0.199,0.2 0.3,0.4 0.3,0.6 L 7.3,3.1 C 7.399,4 7.2,4.9 6.8,5.8 H 6.899 C 10.1,5.8 12.8,3.7 12.8,1 c 0,-0.6 0.4,-1 1,-1 0.599,0 1,0.4 1,1 0,3.7 -3.5,6.8 -7.901,6.8" /></g><g
           style="fill-opacity:1;fill:#24abe0"
           transform="translate(13.6001,17.1999)"
           id="g24"><path
             id="path26"
             style="fill:#24abe0;fill-opacity:1;fill-rule:nonzero;stroke:none"
             d="m 0,0 c -0.2,-0.2 -0.5,-0.3 -0.9,-0.3 -0.3,0 -0.7,0.2 -0.9,0.5 -0.3,0.3 -0.4,0.6 -0.5,0.9 0,0.3 0.1,0.6 0.3,0.8 0.2,0.2 0.5,0.3 0.9,0.3 0.3,0 0.7,-0.2 0.9,-0.5 C 0.1,1.4 0.2,1.1 0.3,0.8 0.3,0.5 0.2,0.2 0,0 M -1.1,4.1 C -1.9,4.1 -2.6,3.9 -3.2,3.3 -3.8,2.7 -4.1,2 -4,1.1 c 0,-0.8 0.4,-1.6 1,-2.2 0.6,-0.6 1.3,-0.9 2.2,-1 0.8,0 1.5,0.3 2.1,0.8 0.6,0.6 0.9,1.3 0.8,2.2 0,0.8 -0.4,1.6 -1,2.2 -0.7,0.6 -1.4,1 -2.2,1" /></g><g
           style="fill-opacity:1;fill:#24abe0"
           transform="translate(15.8999,25.5998)"
           id="g28"><path
             id="path30"
             style="fill:#24abe0;fill-opacity:1;fill-rule:nonzero;stroke:none"
             d="M 0,0 2.6,-16.899 4.4,-15.1 1.8,1.8 Z" /></g><g
           style="fill-opacity:1;fill:#24abe0"
           transform="translate(24.7998,17.0998)"
           id="g32"><path
             id="path34"
             style="fill:#24abe0;fill-opacity:1;fill-rule:nonzero;stroke:none"
             d="m 0,0 c -0.2,-0.2 -0.5,-0.3 -0.9,-0.3 -0.3,0 -0.7,0.2 -0.9,0.5 -0.3,0.3 -0.4,0.6 -0.5,0.9 0,0.3 0.1,0.6 0.3,0.8 0.2,0.2 0.5,0.3 0.9,0.3 0.3,0 0.7,-0.2 0.9,-0.5 C 0.1,1.4 0.2,1.1 0.3,0.8 0.3,0.5 0.2,0.2 0,0 M -1.2,4.1 C -2,4.1 -2.7,3.8 -3.3,3.3 -3.9,2.7 -4.2,2 -4.1,1.1 c 0,-0.8 0.4,-1.6 1,-2.2 0.6,-0.6 1.3,-0.9 2.2,-1 0.8,0 1.501,0.3 2.1,0.8 C 1.8,-0.7 2.101,0 2,0.9 2,1.7 1.601,2.5 1,3.1 0.4,3.7 -0.3,4 -1.2,4.1" /></g></g></g></g></svg>