<svg xmlns="http://www.w3.org/2000/svg" viewBox="0 0 88 117.33333" height="117.333" width="88"><defs><clipPath id="a"><path d="M0 88h66V0H0z"/></clipPath></defs><g clip-path="url(#a)" transform="matrix(1.33333 0 0 -1.33333 0 117.333)" fill="#24abe2"><path d="M28 25c1.538-.643 3.235-1 5-1 1.765 0 3.463.357 5 1v-8.625l-3.688 3.156a1.998 1.998 0 0 1-2.624 0L28 16.375zm5 21c4.994 0 9-4.006 9-9s-4.006-9-9-9a8.97 8.97 0 0 0-9 9c0 4.994 4.006 9 9 9m0 4c-7.156 0-13-5.844-13-13 0-3.665 1.543-6.976 4-9.344V12a2 2 0 0 1 3.313-1.5L33 15.375l5.688-4.875A2 2 0 0 1 42 12v15.656c2.456 2.368 4 5.679 4 9.344 0 7.156-5.844 13-13 13M13 60a2 2 0 0 1 0-4h40a2 2 0 0 1 0 4zm0 9a2 2 0 0 1 0-4h40a2 2 0 0 1 0 4zm0 9a2 2 0 0 1 0-4h40a2 2 0 0 1 0 4zm-9 6h58V4H4zm-2 4c-1.074.001-1.976-1.099-2-2V2C0 .953.953 0 2 0h62c1.047 0 2 .953 2 2v84c0 1.047-.953 2-2 2z"/></g></svg>