<?xml version="1.0" encoding="UTF-8" standalone="no"?>
<svg
   xmlns:dc="http://purl.org/dc/elements/1.1/"
   xmlns:cc="http://creativecommons.org/ns#"
   xmlns:rdf="http://www.w3.org/1999/02/22-rdf-syntax-ns#"
   xmlns:svg="http://www.w3.org/2000/svg"
   xmlns="http://www.w3.org/2000/svg"
   viewBox="0 0 88 117.33333"
   height="117.33333"
   width="88"
   xml:space="preserve"
   id="svg2"
   version="1.1"><metadata
     id="metadata8"><rdf:RDF><cc:Work
         rdf:about=""><dc:format>image/svg+xml</dc:format><dc:type
           rdf:resource="http://purl.org/dc/dcmitype/StillImage" /><dc:title></dc:title></cc:Work></rdf:RDF></metadata><defs
     id="defs6"><clipPath
       id="clipPath18"
       clipPathUnits="userSpaceOnUse"><path
         id="path16"
         d="M 0,88 H 66 V 0 H 0 Z" /></clipPath></defs><g
     transform="matrix(1.3333333,0,0,-1.3333333,0,117.33333)"
     id="g10"><g
       style="fill:#24abe2;fill-opacity:1"
       id="g12"><g
         style="fill:#24abe2;fill-opacity:1"
         clip-path="url(#clipPath18)"
         id="g14"><g
           style="fill:#24abe2;fill-opacity:1"
           transform="translate(28,25)"
           id="g20"><path
             id="path22"
             style="fill:#24abe2;fill-opacity:1;fill-rule:nonzero;stroke:none"
             d="m 0,0 c 1.538,-0.643 3.235,-1 5,-1 1.765,0 3.463,0.357 5,1 v -8.625 l -3.688,3.156 c -0.752,0.655 -1.872,0.655 -2.624,0 L 0,-8.625 Z m 5,21 c 4.994,0 9,-4.006 9,-9 0,-4.994 -4.006,-9 -9,-9 -4.994,0 -9,4.006 -9,9 0,4.994 4.006,9 9,9 m 0,4 C -2.156,25 -8,19.156 -8,12 -8,8.335 -6.457,5.024 -4,2.656 V -13 c 0.005,-1.104 0.905,-1.996 2.01,-1.99 0.479,0.002 0.941,0.176 1.303,0.49 L 5,-9.625 10.688,-14.5 c 0.833,-0.725 2.096,-0.637 2.822,0.197 0.313,0.362 0.488,0.824 0.49,1.303 V 2.656 c 2.456,2.368 4,5.679 4,9.344 0,7.156 -5.844,13 -13,13 m -20,10 c -1.104,0 -2,-0.896 -2,-2 0,-1.104 0.896,-2 2,-2 h 40 c 1.104,0 2,0.896 2,2 0,1.104 -0.896,2 -2,2 z m 0,9 c -1.104,0 -2,-0.896 -2,-2 0,-1.104 0.896,-2 2,-2 h 40 c 1.104,0 2,0.896 2,2 0,1.104 -0.896,2 -2,2 z m 0,9 c -1.104,0 -2,-0.896 -2,-2 0,-1.104 0.896,-2 2,-2 h 40 c 1.104,0 2,0.896 2,2 0,1.104 -0.896,2 -2,2 z m -9,6 h 58 v -80 h -58 z m -2,4 c -1.074,10e-4 -1.976,-1.099 -2,-2 v -84 c 0,-1.047 0.953,-2 2,-2 h 62 c 1.047,0 2,0.953 2,2 v 84 c 0,1.047 -0.953,2 -2,2 z" /></g></g></g></g></svg>