<?xml version="1.0" encoding="UTF-8" standalone="no"?>
<svg
   xmlns:dc="http://purl.org/dc/elements/1.1/"
   xmlns:cc="http://creativecommons.org/ns#"
   xmlns:rdf="http://www.w3.org/1999/02/22-rdf-syntax-ns#"
   xmlns:svg="http://www.w3.org/2000/svg"
   xmlns="http://www.w3.org/2000/svg"
   viewBox="0 0 109.14213 120.036"
   height="120.036"
   width="109.14213"
   xml:space="preserve"
   id="svg2"
   version="1.1"><metadata
     id="metadata8"><rdf:RDF><cc:Work
         rdf:about=""><dc:format>image/svg+xml</dc:format><dc:type
           rdf:resource="http://purl.org/dc/dcmitype/StillImage" /><dc:title></dc:title></cc:Work></rdf:RDF></metadata><defs
     id="defs6"><clipPath
       id="clipPath18"
       clipPathUnits="userSpaceOnUse"><path
         id="path16"
         d="M 0,90.027 H 81.857 V 0 H 0 Z" /></clipPath></defs><g
     transform="matrix(1.3333333,0,0,-1.3333333,0,120.036)"
     id="g10"><g
       id="g12"><g
         clip-path="url(#clipPath18)"
         id="g14"><g
           transform="translate(21.6285,78.5503)"
           id="g20"><path
             id="path22"
             style="fill:#24abe2;fill-opacity:1;fill-rule:nonzero;stroke:none"
             d="m 0,0 h -8.4 c -0.952,0 -1.725,-0.774 -1.725,-1.725 v -8.4 c -0.037,-0.427 0.112,-0.839 0.409,-1.165 0.321,-0.351 0.776,-0.56 1.216,-0.56 0.951,0 1.725,0.774 1.725,1.725 v 4.206 L 4.265,-16.96 c 0.595,-0.595 1.874,-0.596 2.47,0 0.658,0.658 0.658,1.812 0,2.47 L -4.2,-3.45 H 0 c 0.951,0 1.725,0.774 1.725,1.725 C 1.725,-0.838 0.887,0 0,0" /></g><g
           transform="translate(81.3629,50.2603)"
           id="g24"><path
             id="path26"
             style="fill:#24abe2;fill-opacity:1;fill-rule:nonzero;stroke:none"
             d="m 0,0 -5.9,5.9 c -0.621,0.623 -1.848,0.623 -2.469,0 -0.658,-0.658 -0.658,-1.812 0,-2.47 L -5.43,0.49 h -15.604 c -0.951,0 -1.726,-0.774 -1.726,-1.725 0,-0.951 0.775,-1.725 1.726,-1.725 H -5.43 L -8.369,-5.9 c -0.66,-0.66 -0.656,-1.723 0.007,-2.477 0.6,-0.59 1.871,-0.586 2.462,0.007 L 0,-2.47 C 0.658,-1.812 0.658,-0.658 0,0" /></g><g
           transform="translate(67.6285)"
           id="g28"><path
             id="path30"
             style="fill:#24abe2;fill-opacity:1;fill-rule:nonzero;stroke:none"
             d="m 0,0 c 0.951,0 1.725,0.774 1.725,1.726 v 7.5 c 0,2.096 -0.935,4.068 -2.564,5.411 -6.876,5.614 -14.215,9.346 -15.029,9.754 l -0.207,0.103 v 8.895 l 0.12,0.111 c 1.341,1.246 2.08,2.959 2.08,4.825 v 11 c 0,6.41 -5.215,11.625 -11.625,11.625 h -2.4 c -6.411,0 -11.625,-5.215 -11.625,-11.625 v -11 c 0,-1.811 0.777,-3.615 2.08,-4.825 l 0.12,-0.111 v -8.895 l -0.208,-0.103 c -2.498,-1.249 -8.964,-4.701 -15.027,-9.753 -1.631,-1.344 -2.565,-3.316 -2.565,-5.412 v -7.5 C -55.125,0.839 -54.287,0 -53.4,0 c 0.951,0 1.725,0.774 1.725,1.726 v 7.5 c 0,1.044 0.485,2.058 1.331,2.784 5.776,4.725 12.049,8.137 15.275,9.751 0.792,0.351 1.294,1.12 1.294,1.965 v 10.599 c 0,0.626 -0.274,1.183 -0.733,1.488 -0.888,0.555 -1.467,1.583 -1.467,2.612 v 11 c 0,4.453 3.622,8.075 8.075,8.075 h 2.4 c 4.453,0 8.075,-3.622 8.075,-8.075 v -11 c 0,-1.029 -0.58,-2.057 -1.477,-2.617 -0.418,-0.338 -0.723,-0.944 -0.723,-1.483 V 23.726 c 0,-0.793 0.549,-1.634 1.277,-1.957 1.161,-0.498 8.502,-4.205 15.285,-9.753 0.858,-0.644 1.337,-1.638 1.337,-2.79 v -7.5 C -1.726,0.774 -0.951,0 0,0" /></g><g
           transform="translate(7.6285,56.7534)"
           id="g32"><path
             id="path34"
             style="fill:#24abe2;fill-opacity:1;fill-rule:nonzero;stroke:none"
             d="m 0,0 c -0.453,0 -0.906,-0.165 -1.235,-0.493 l -5.9,-5.9 c -0.658,-0.658 -0.658,-1.812 0,-2.47 l 5.9,-5.9 c 0.595,-0.595 1.874,-0.596 2.47,0 0.658,0.658 0.658,1.812 0,2.47 l -2.941,2.94 H 13.9 c 0.999,0 1.725,0.726 1.725,1.725 0,0.951 -0.774,1.725 -1.725,1.725 H -1.706 l 2.941,2.94 c 0.311,0.312 0.49,0.762 0.49,1.235 0,0.473 -0.179,0.923 -0.49,1.235 C 0.906,-0.165 0.453,0 0,0" /></g><g
           transform="translate(53.3942,61.5903)"
           id="g36"><path
             id="path38"
             style="fill:#24abe2;fill-opacity:1;fill-rule:nonzero;stroke:none"
             d="m 0,0 c 0.297,-0.297 0.781,-0.49 1.234,-0.49 0.453,0 0.937,0.193 1.236,0.49 L 13.509,11.041 V 6.835 c 0,-0.919 0.852,-1.725 1.825,-1.725 0.951,0 1.726,0.774 1.726,1.725 v 8.4 c 0,0.951 -0.775,1.725 -1.726,1.725 H 6.935 c -0.952,0 -1.726,-0.774 -1.726,-1.725 0,-0.887 0.839,-1.725 1.726,-1.725 h 4.211 L -0.002,2.468 C -0.658,1.812 -0.658,0.658 0,0" /></g><g
           transform="translate(33.7936,83.6602)"
           id="g40"><path
             id="path42"
             style="fill:#24abe2;fill-opacity:1;fill-rule:nonzero;stroke:none"
             d="m 0,0 c -0.312,-0.312 -0.49,-0.762 -0.49,-1.235 0,-0.473 0.178,-0.923 0.49,-1.235 0.657,-0.657 1.812,-0.657 2.47,0 l 2.94,2.941 v -15.606 c 0,-0.999 0.725,-1.725 1.725,-1.725 0.951,0 1.724,0.774 1.724,1.725 V 0.471 L 11.8,-2.47 c 0.595,-0.594 1.872,-0.596 2.471,0 0.657,0.658 0.657,1.812 -0.001,2.47 L 8.369,5.9 C 7.749,6.522 6.523,6.522 5.9,5.9 Z" /></g></g></g></g></svg>