<svg xmlns="http://www.w3.org/2000/svg" viewBox="0 0 109.14213 120.036" height="120.036" width="109.142"><defs><clipPath id="a"><path d="M0 90.027h81.857V0H0z"/></clipPath></defs><g clip-path="url(#a)" transform="matrix(1.33333 0 0 -1.33333 0 120.036)"><path d="M21.628 78.55h-8.4a1.727 1.727 0 0 1-1.725-1.725v-8.4a1.523 1.523 0 0 1 .41-1.165c.32-.35.775-.56 1.215-.56.951 0 1.725.774 1.725 1.725v4.206l11.04-11.04c.595-.596 1.874-.597 2.47 0 .658.657.658 1.811 0 2.47L17.428 75.1h4.2c.951 0 1.725.773 1.725 1.724 0 .887-.838 1.725-1.725 1.725M81.363 50.26l-5.9 5.9c-.621.623-1.848.623-2.47 0-.657-.658-.657-1.812 0-2.47l2.94-2.94H60.329a1.728 1.728 0 0 1-1.726-1.725c0-.95.775-1.725 1.726-1.725h15.604l-2.94-2.94c-.66-.66-.655-1.723.008-2.477.6-.59 1.87-.586 2.462.007l5.9 5.9c.658.658.658 1.812 0 2.47M67.629 0c.95 0 1.724.774 1.724 1.726v7.5a6.996 6.996 0 0 1-2.563 5.411c-6.877 5.614-14.216 9.346-15.03 9.754l-.206.103v8.895l.12.111c1.34 1.246 2.08 2.959 2.08 4.825v11c0 6.41-5.215 11.625-11.625 11.625h-2.4c-6.411 0-11.625-5.215-11.625-11.625v-11c0-1.811.777-3.615 2.08-4.825l.12-.111v-8.895l-.208-.103c-2.498-1.249-8.964-4.701-15.027-9.753a6.994 6.994 0 0 1-2.565-5.412v-7.5c0-.887.838-1.726 1.725-1.726.95 0 1.725.774 1.725 1.726v7.5c0 1.044.485 2.058 1.33 2.784 5.777 4.725 12.05 8.137 15.276 9.751a2.152 2.152 0 0 1 1.294 1.965v10.599c0 .626-.274 1.183-.733 1.488-.888.555-1.467 1.583-1.467 2.612v11c0 4.453 3.622 8.075 8.075 8.075h2.4c4.453 0 8.075-3.622 8.075-8.075v-11c0-1.029-.58-2.057-1.477-2.617-.418-.338-.723-.944-.723-1.483V23.726c0-.793.549-1.634 1.277-1.957 1.16-.498 8.502-4.205 15.285-9.753.858-.644 1.337-1.638 1.337-2.79v-7.5c0-.952.775-1.726 1.726-1.726M7.628 56.753c-.453 0-.906-.165-1.235-.493l-5.9-5.9c-.658-.658-.658-1.812 0-2.47l5.9-5.9c.595-.595 1.874-.596 2.47 0 .659.658.659 1.812 0 2.47l-2.94 2.94h15.605c1 0 1.726.726 1.726 1.725 0 .951-.774 1.725-1.725 1.725H5.923l2.94 2.94c.312.312.49.762.49 1.235 0 .473-.178.923-.49 1.235a1.747 1.747 0 0 1-1.234.493m45.765 4.837c.297-.297.781-.49 1.234-.49.453 0 .937.193 1.236.49l11.04 11.041v-4.206c0-.919.851-1.725 1.824-1.725.951 0 1.726.774 1.726 1.725v8.4c0 .951-.775 1.725-1.726 1.725H60.33a1.727 1.727 0 0 1-1.726-1.725c0-.887.84-1.725 1.726-1.725h4.211L53.392 64.058c-.656-.656-.656-1.81.002-2.468m-19.6 22.07a1.75 1.75 0 0 1-.49-1.235c0-.473.178-.923.49-1.235.657-.657 1.812-.657 2.47 0l2.94 2.941V68.525c0-.999.725-1.725 1.725-1.725.95 0 1.724.774 1.724 1.725v15.606l2.94-2.94c.596-.595 1.873-.597 2.472 0 .657.657.657 1.811-.001 2.47l-5.901 5.9c-.62.621-1.846.621-2.47 0z" fill="#24abe2"/></g></svg>