<?xml version="1.0" encoding="UTF-8" standalone="no"?>
<svg
   xmlns:dc="http://purl.org/dc/elements/1.1/"
   xmlns:cc="http://creativecommons.org/ns#"
   xmlns:rdf="http://www.w3.org/1999/02/22-rdf-syntax-ns#"
   xmlns:svg="http://www.w3.org/2000/svg"
   xmlns="http://www.w3.org/2000/svg"
   viewBox="0 0 111.93333 157.07333"
   height="157.07333"
   width="111.93333"
   xml:space="preserve"
   id="svg2"
   version="1.1"><metadata
     id="metadata8"><rdf:RDF><cc:Work
         rdf:about=""><dc:format>image/svg+xml</dc:format><dc:type
           rdf:resource="http://purl.org/dc/dcmitype/StillImage" /><dc:title></dc:title></cc:Work></rdf:RDF></metadata><defs
     id="defs6"><clipPath
       id="clipPath18"
       clipPathUnits="userSpaceOnUse"><path
         id="path16"
         d="M 0,117.805 H 83.95 V 0 H 0 Z" /></clipPath></defs><g
     transform="matrix(1.3333333,0,0,-1.3333333,0,157.07333)"
     id="g10"><g
       style="fill-opacity:1;fill:#24abe2;stroke:#24abe2;stroke-opacity:1"
       id="g12"><g
         style="fill-opacity:1;fill:#24abe2;stroke:#24abe2;stroke-opacity:1"
         clip-path="url(#clipPath18)"
         id="g14"><g
           style="fill-opacity:1;fill:#24abe2;stroke:#24abe2;stroke-opacity:1"
           transform="translate(79.9496,66.5871)"
           id="g20"><path
             id="path22"
             style="fill:#24abe2;fill-opacity:1;fill-rule:nonzero;stroke:#24abe2;stroke-opacity:1"
             d="m 0,0 c 0,-2.62 -2.131,-4.753 -4.752,-4.753 h -4.534 c 2.219,4.972 3.461,10.668 3.461,16.823 0,1.642 -0.099,3.256 -0.271,4.843 h 1.344 C -2.131,16.913 0,14.781 0,12.16 Z m -37.975,-21.066 c -16.617,0 -29.146,14.245 -29.146,33.136 0,1.734 0.109,3.438 0.311,5.106 7.441,0.612 12.191,4.474 14.416,11.761 4.015,-3.351 9.379,-3.858 14.254,-3.858 4.682,0 10.344,0.52 14.506,4.121 2.142,-7.46 6.918,-11.408 14.498,-12.024 0.201,-1.668 0.312,-3.371 0.312,-5.105 -10e-4,-18.892 -12.532,-33.137 -29.151,-33.137 m 9.268,-6.734 c 0,-5.109 -4.157,-9.266 -9.268,-9.266 -5.108,0 -9.266,4.156 -9.266,9.266 v 5.149 c 2.914,-0.918 6.018,-1.415 9.266,-1.415 3.25,0 6.354,0.497 9.268,1.415 z m -42.491,23.047 c -2.621,0 -4.752,2.133 -4.752,4.753 v 12.16 c 0,2.621 2.131,4.753 4.752,4.753 h 1.344 c -0.169,-1.587 -0.268,-3.201 -0.268,-4.843 0,-6.155 1.24,-11.852 3.461,-16.823 z m 33.223,51.97 c 13.744,0 25.287,-11.529 28.346,-26.984 -6.645,0.775 -10.305,4.657 -11.707,12.313 -0.106,0.586 -0.553,1.054 -1.133,1.189 -0.58,0.137 -1.185,-0.083 -1.543,-0.561 -2.677,-3.571 -6.902,-5.096 -14.129,-5.096 -5.262,0 -10.584,0.576 -13.873,4.754 -0.362,0.459 -0.957,0.667 -1.525,0.531 -0.567,-0.136 -1.007,-0.588 -1.123,-1.16 C -56.174,24.775 -59.815,21 -66.32,20.232 c 3.062,15.457 14.605,26.985 28.345,26.985 M -4.752,19.913 h -1.762 c -3.056,17.285 -16,30.305 -31.461,30.305 -15.461,0 -28.403,-13.02 -31.461,-30.305 h -1.762 c -4.275,0 -7.752,-3.478 -7.752,-7.753 V 0 c 0,-4.274 3.477,-7.753 7.752,-7.753 h 6.043 c 3.502,-6.226 8.668,-11.037 14.914,-13.771 v -1.7 c -10,-3.688 -24.568,-13.238 -24.568,-25.179 v -14.246 h 3 v 14.245 c 0,9.729 12.531,18.389 21.568,22.016 V -27.8 c 0,-6.764 5.502,-12.266 12.266,-12.266 6.764,0 12.268,5.502 12.268,12.266 v 1.411 c 9.037,-3.628 21.568,-12.286 21.568,-22.015 V -62.65 h 3 v 14.246 c 0,11.939 -14.568,21.488 -24.568,25.179 v 1.7 c 6.246,2.734 11.412,7.546 14.912,13.771 h 6.043 c 4.275,0 7.752,3.479 7.752,7.753 v 12.16 c 0,4.276 -3.476,7.754 -7.752,7.754" /></g><g
           style="fill-opacity:1;fill:#24abe2;stroke:#24abe2;stroke-opacity:1"
           transform="translate(79.9496,66.5871)"
           id="g24"><path
             id="path26"
             style="fill:#24abe2;stroke:#24abe2;stroke-width:2;stroke-linecap:butt;stroke-linejoin:miter;stroke-miterlimit:10;stroke-dasharray:none;stroke-opacity:1;fill-opacity:1"
             d="m 0,0 c 0,-2.62 -2.131,-4.753 -4.752,-4.753 h -4.534 c 2.219,4.972 3.461,10.668 3.461,16.823 0,1.642 -0.099,3.256 -0.271,4.843 h 1.344 C -2.131,16.913 0,14.781 0,12.16 Z m -37.975,-21.066 c -16.617,0 -29.146,14.245 -29.146,33.136 0,1.734 0.109,3.438 0.311,5.106 7.441,0.612 12.191,4.474 14.416,11.761 4.015,-3.351 9.379,-3.858 14.254,-3.858 4.682,0 10.344,0.52 14.506,4.121 2.142,-7.46 6.918,-11.408 14.498,-12.024 0.201,-1.668 0.312,-3.371 0.312,-5.105 -10e-4,-18.892 -12.532,-33.137 -29.151,-33.137 z m 9.268,-6.734 c 0,-5.109 -4.157,-9.266 -9.268,-9.266 -5.108,0 -9.266,4.156 -9.266,9.266 v 5.149 c 2.914,-0.918 6.018,-1.415 9.266,-1.415 3.25,0 6.354,0.497 9.268,1.415 z m -42.491,23.047 c -2.621,0 -4.752,2.133 -4.752,4.753 v 12.16 c 0,2.621 2.131,4.753 4.752,4.753 h 1.344 c -0.169,-1.587 -0.268,-3.201 -0.268,-4.843 0,-6.155 1.24,-11.852 3.461,-16.823 z m 33.223,51.97 c 13.744,0 25.287,-11.529 28.346,-26.984 -6.645,0.775 -10.305,4.657 -11.707,12.313 -0.106,0.586 -0.553,1.054 -1.133,1.189 -0.58,0.137 -1.185,-0.083 -1.543,-0.561 -2.677,-3.571 -6.902,-5.096 -14.129,-5.096 -5.262,0 -10.584,0.576 -13.873,4.754 -0.362,0.459 -0.957,0.667 -1.525,0.531 -0.567,-0.136 -1.007,-0.588 -1.123,-1.16 C -56.174,24.775 -59.815,21 -66.32,20.232 c 3.062,15.457 14.605,26.985 28.345,26.985 z M -4.752,19.913 h -1.762 c -3.056,17.285 -16,30.305 -31.461,30.305 -15.461,0 -28.403,-13.02 -31.461,-30.305 h -1.762 c -4.275,0 -7.752,-3.478 -7.752,-7.753 V 0 c 0,-4.274 3.477,-7.753 7.752,-7.753 h 6.043 c 3.502,-6.226 8.668,-11.037 14.914,-13.771 v -1.7 c -10,-3.688 -24.568,-13.238 -24.568,-25.179 v -14.246 h 3 v 14.245 c 0,9.729 12.531,18.389 21.568,22.016 V -27.8 c 0,-6.764 5.502,-12.266 12.266,-12.266 6.764,0 12.268,5.502 12.268,12.266 v 1.411 c 9.037,-3.628 21.568,-12.286 21.568,-22.015 V -62.65 h 3 v 14.246 c 0,11.939 -14.568,21.488 -24.568,25.179 v 1.7 c 6.246,2.734 11.412,7.546 14.912,13.771 h 6.043 c 4.275,0 7.752,3.479 7.752,7.753 v 12.16 c 0,4.276 -3.476,7.754 -7.752,7.754 z" /></g><g
           style="fill-opacity:1;fill:#24abe2;stroke:#24abe2;stroke-opacity:1"
           transform="translate(41.975,55.3791)"
           id="g28"><path
             id="path30"
             style="fill:#24abe2;fill-opacity:1;fill-rule:nonzero;stroke:#24abe2;stroke-opacity:1"
             d="m 0,0 c -2.844,0 -5.156,1.965 -5.156,4.381 h -3 C -8.156,0.311 -4.498,-3 0,-3 4.499,-3 8.159,0.311 8.159,4.381 h -3 C 5.159,1.964 2.844,0 0,0" /></g><g
           style="fill-opacity:1;fill:#24abe2;stroke:#24abe2;stroke-opacity:1"
           transform="translate(41.975,55.3791)"
           id="g32"><path
             id="path34"
             style="fill:#24abe2;stroke:#24abe2;stroke-width:2;stroke-linecap:butt;stroke-linejoin:miter;stroke-miterlimit:10;stroke-dasharray:none;stroke-opacity:1;fill-opacity:1"
             d="m 0,0 c -2.844,0 -5.156,1.965 -5.156,4.381 h -3 C -8.156,0.311 -4.498,-3 0,-3 4.499,-3 8.159,0.311 8.159,4.381 h -3 C 5.159,1.964 2.844,0 0,0 Z" /></g><path
           id="path36"
           style="fill:#24abe2;fill-opacity:1;fill-rule:nonzero;stroke:#24abe2;stroke-opacity:1"
           d="M 48.819,78.833 H 61.364 V 69.834 H 48.819 Z M 35.131,69.834 H 22.586 v 8.999 h 12.545 z m 10.688,5.816 h -7.688 v 6.183 H 19.586 V 66.834 h 18.545 v 5.816 h 7.688 V 66.834 H 64.364 V 81.833 H 45.819 Z" /><path
           id="path38"
           style="fill:#24abe2;stroke:#24abe2;stroke-width:2;stroke-linecap:butt;stroke-linejoin:miter;stroke-miterlimit:10;stroke-dasharray:none;stroke-opacity:1;fill-opacity:1"
           d="M 48.819,78.833 H 61.364 V 69.834 H 48.819 Z M 35.131,69.834 H 22.586 v 8.999 h 12.545 z m 10.688,5.816 h -7.688 v 6.183 H 19.586 V 66.834 h 18.545 v 5.816 h 7.688 V 66.834 H 64.364 V 81.833 H 45.819 Z" /><g
           style="fill-opacity:1;fill:#24abe2;stroke:#24abe2;stroke-opacity:1"
           transform="translate(61.2328,24.4001)"
           id="g40"><path
             id="path42"
             style="fill:#24abe2;fill-opacity:1;fill-rule:nonzero;stroke:#24abe2;stroke-opacity:1"
             d="m 0,0 h -38.514 c -3.326,0 -6.031,-2.706 -6.031,-6.031 V -23.4 h 3 v 17.369 c 0,1.672 1.359,3.031 3.031,3.031 L 0,-3 c 1.672,0 3.031,-1.359 3.031,-3.031 V -23.4 h 3 V -6.031 C 6.032,-2.706 3.326,0 0,0" /></g><g
           style="fill-opacity:1;fill:#24abe2;stroke:#24abe2;stroke-opacity:1"
           transform="translate(61.2328,24.4001)"
           id="g44"><path
             id="path46"
             style="fill:#24abe2;stroke:#24abe2;stroke-width:2;stroke-linecap:butt;stroke-linejoin:miter;stroke-miterlimit:10;stroke-dasharray:none;stroke-opacity:1;fill-opacity:1"
             d="m 0,0 h -38.514 c -3.326,0 -6.031,-2.706 -6.031,-6.031 V -23.4 h 3 v 17.369 c 0,1.672 1.359,3.031 3.031,3.031 L 0,-3 c 1.672,0 3.031,-1.359 3.031,-3.031 V -23.4 h 3 V -6.031 C 6.032,-2.706 3.326,0 0,0 Z" /></g><path
           id="path48"
           style="fill:#24abe2;fill-opacity:1;fill-rule:nonzero;stroke:#24abe2;stroke-width:2;stroke-linecap:butt;stroke-linejoin:miter;stroke-miterlimit:10;stroke-dasharray:none;stroke-opacity:1"
           d="m 37.975,10.168 h 8.002 v -3 h -8.002 z" /></g></g></g></svg>