<svg xmlns="http://www.w3.org/2000/svg" viewBox="0 0 677.33331 677.33331" height="677.333" width="677.333"><defs><clipPath id="a"><path d="M0 508h508V0H0z"/></clipPath></defs><g clip-path="url(#a)" transform="matrix(1.33333 0 0 -1.33333 0 677.333)"><path d="M322.8 271.9L221.2 373.5c-9.9 9.9-26 9.9-35.9 0-9.9-9.9-9.9-26 0-35.9l58.2-58.2H25.4C11.4 279.4 0 268 0 254c0-14 11.4-25.4 25.4-25.4h218.1l-58.2-58.2c-9.9-9.9-9.9-26 0-35.9 7.2-7.2 26-9.9 35.9 0L322.8 236c9.9 10 9.9 26 0 35.9"/><path d="M482.6 508H25.4C11.4 508 0 496.6 0 482.6V381c0-14 11.4-25.4 25.4-25.4 14 0 25.4 11.4 25.4 25.4v76.2h406.4V50.8H50.8V127c0 14-11.4 25.4-25.4 25.4C11.4 152.4 0 141 0 127V25.4C0 11.4 11.4 0 25.4 0h457.2c14 0 25.4 11.4 25.4 25.4v457.2c0 14-11.4 25.4-25.4 25.4"/></g></svg>