<svg xmlns="http://www.w3.org/2000/svg" viewBox="0 0 26 18" height="18" width="26"><defs><clipPath id="a"><path d="M0 13.5h19.5V0H0z"/></clipPath></defs><g clip-path="url(#a)" transform="matrix(1.33333 0 0 -1.33333 0 18)"><path d="M18 2.404L12.967 6.75 18 11.096zM2.776 1.5l4.978 4.283L9.75 3.987l1.996 1.796L16.724 1.5zM1.5 2.404v8.692L6.532 6.75zM16.726 12L9.75 6.021l-6.976 5.98zm2.774-1.25c0 1.568-1.183 2.75-2.75 2.75h-14C1.182 13.5 0 12.318 0 10.75v-8C0 1.182 1.182 0 2.75 0h14c1.567 0 2.75 1.182 2.75 2.75z"/></g></svg>