<svg xmlns="http://www.w3.org/2000/svg" viewBox="0 0 121.32413 129.17027" height="129.17" width="121.324"><defs><clipPath id="a"><path d="M0 96.878h90.993V0H0z"/></clipPath></defs><g clip-path="url(#a)" transform="matrix(1.33333 0 0 -1.33333 0 129.17)" fill="#24abe2"><path d="M2.5 23.128h22.58a2.5 2.5 0 1 1 0 5H2.5a2.5 2.5 0 1 1 0-5m5.74 20.78a2.5 2.5 0 1 1 0-5h22.57a2.5 2.5 0 1 1 0 5zM2.5 54.688h22.58a2.5 2.5 0 0 1 0 5H2.5a2.5 2.5 0 1 1 0-5m19.53 12.56c14.271 14.269 37.407 14.267 51.675-.005 14.269-14.27 14.267-37.406-.004-51.675-14.269-14.266-37.402-14.266-51.671 0a2.5 2.5 0 0 1-3.53-3.53c16.293-16.15 42.595-16.035 58.746.259 15.369 15.505 16.113 40.26 1.704 56.66l5.18 5.18 2.59-2.59a2.504 2.504 0 0 1 3.54 3.54l-8.76 8.71a2.501 2.501 0 0 1-3.5-3.53l2.59-2.59-5.18-5.18a41.183 41.183 0 0 1-25 10.38v9h8.65a2.5 2.5 0 0 1 0 5H36.72a2.5 2.5 0 1 1 0-5h8.65v-9a41.227 41.227 0 0 1-26.87-12.1 2.502 2.502 0 1 1 3.54-3.54zm23.34-49.53v-4.75a2.5 2.5 0 0 1 5 0v4.74a2.5 2.5 0 1 1-5 0zm2.5 20.1a3.6 3.6 0 1 1-3.6 3.6 3.61 3.61 0 0 1 3.6-3.61zm4.05-4a8.611 8.611 0 1 0 3.58 3.55l13-13a2.502 2.502 0 1 0-3.54-3.54zm18.86 3.08l-5.61 4.41a2.5 2.5 0 0 0 3.09 3.93l1-.76c-1.577 10.918-10.919 19.03-21.95 19.06h-.09a22.279 22.279 0 0 1-11-2.93 2.5 2.5 0 0 0-2.48 4.34 27.285 27.285 0 0 0 13.53 3.59h.12c13.458-.072 24.841-9.972 26.78-23.29l.58.74a2.5 2.5 0 0 0 3.93-3.09l-4.39-5.53a2.5 2.5 0 0 0-1.67-.94h-.3a2.506 2.506 0 0 0-1.54.47"/></g></svg>