<svg xmlns="http://www.w3.org/2000/svg" viewBox="0 0 76.799469 120.3256" height="120.326" width="76.799"><defs><clipPath id="a"><path d="M0 90.244h57.6V0H0z"/></clipPath></defs><g clip-path="url(#a)" transform="matrix(1.33333 0 0 -1.33333 0 120.326)" fill="#24abe2"><path d="M5 61.444c0 13.124 10.677 23.8 23.8 23.8 13.123 0 23.8-10.676 23.8-23.8 0-13.178-10.677-23.9-23.8-23.9-13.123 0-23.8 10.722-23.8 23.9M30.919 16.03c-1.24.974-2.999.975-4.21.02L12.766 6.577l1.064 30.219.721-.42c4.373-2.542 9.167-3.831 14.249-3.831 5.082 0 9.876 1.289 14.249 3.83l.722.42 1.063-30.218zM9.724.292c1.107-.511 2.412-.345 3.476.453l15.597 10.704L44.48.858C45.146.38 45.856.144 46.6.144c.472 0 1.002.099 1.415.264C49.216.924 50 2.157 50 3.545l-1.308 37.107.164.155C54.413 46.06 57.6 53.583 57.6 61.444c0 15.88-12.92 28.8-28.8 28.8-15.881 0-28.8-12.92-28.8-28.8 0-7.873 3.142-15.238 8.847-20.74l.16-.155L7.699 3.527l.001-.083c0-1.3.794-2.538 2.024-3.152"/><path d="M37.103 70.041L26.296 59.234l-5.799 5.9-3.589-3.588 9.391-9.298 14.387 14.293z"/></g></svg>