<svg xmlns="http://www.w3.org/2000/svg" width="15" height="15" viewBox="0 0 15 15">
  <metadata><?xpacket begin="﻿" id="W5M0MpCehiHzreSzNTczkc9d"?>
<x:xmpmeta xmlns:x="adobe:ns:meta/" x:xmptk="Adobe XMP Core 5.6-c138 79.159824, 2016/09/14-01:09:01        ">
   <rdf:RDF xmlns:rdf="http://www.w3.org/1999/02/22-rdf-syntax-ns#">
      <rdf:Description rdf:about=""/>
   </rdf:RDF>
</x:xmpmeta>
                                                                                                    
                                                                                                    
                                                                                                    
                                                                                                    
                                                                                                    
                                                                                                    
                                                                                                    
                                                                                                    
                                                                                                    
                                                                                                    
                                                                                                    
                                                                                                    
                                                                                                    
                                                                                                    
                                                                                                    
                                                                                                    
                                                                                                    
                                                                                                    
                                                                                                    
                                                                                                    
                           
<?xpacket end="w"?></metadata>
<defs>
    <style>
      .cls-1 {
        fill: #5f3100;
        fill-rule: evenodd;
      }
    </style>
  </defs>
  <path id="Forma_1_копия" data-name="Forma 1 копия" class="cls-1" d="M14.036,12.817L11.113,9.875A5.917,5.917,0,0,0,10.5,2.269a5.838,5.838,0,0,0-8.293,0,5.928,5.928,0,0,0,0,8.345,5.826,5.826,0,0,0,7.557.621l2.924,2.941a0.951,0.951,0,0,0,1.352,0A0.965,0.965,0,0,0,14.036,12.817ZM3.556,9.254a3.995,3.995,0,0,1,0-5.624,3.933,3.933,0,0,1,5.589,0,4,4,0,0,1,0,5.624A3.936,3.936,0,0,1,3.556,9.254Z"/>
</svg>
