<svg xmlns="http://www.w3.org/2000/svg" viewBox="0 0 126.2 107.86667" height="107.867" width="126.2"><defs><clipPath id="a"><path d="M0 80.9h94.65V0H0z"/></clipPath></defs><g clip-path="url(#a)" transform="matrix(1.33333 0 0 -1.33333 0 107.867)" fill="#24abe2"><path d="M36.7 6C19.8 6 6 19.8 6 36.7s13.8 30.7 30.7 30.7 30.7-13.8 30.7-30.7S53.6 6 36.7 6m0 67.4C16.4 73.4 0 56.9 0 36.7 0 16.5 16.4 0 36.7 0 57 0 73.4 16.4 73.4 36.7 73.4 57 57 73.4 36.7 73.4"/><path d="M57.95 13.5c-16.9 0-30.7 13.8-30.7 30.7s13.8 30.7 30.7 30.7 30.7-13.8 30.7-30.7-13.8-30.7-30.7-30.7m0 67.4c-20.3 0-36.7-16.5-36.7-36.7 0-20.2 16.4-36.7 36.7-36.7 20.3 0 36.7 16.4 36.7 36.7 0 20.3-16.4 36.7-36.7 36.7"/></g></svg>