<?xml version="1.0" encoding="UTF-8" standalone="no"?>
<svg
   xmlns:dc="http://purl.org/dc/elements/1.1/"
   xmlns:cc="http://creativecommons.org/ns#"
   xmlns:rdf="http://www.w3.org/1999/02/22-rdf-syntax-ns#"
   xmlns:svg="http://www.w3.org/2000/svg"
   xmlns="http://www.w3.org/2000/svg"
   viewBox="0 0 80.666664 79.333336"
   height="79.333336"
   width="80.666664"
   xml:space="preserve"
   id="svg2"
   version="1.1"><metadata
     id="metadata8"><rdf:RDF><cc:Work
         rdf:about=""><dc:format>image/svg+xml</dc:format><dc:type
           rdf:resource="http://purl.org/dc/dcmitype/StillImage" /><dc:title></dc:title></cc:Work></rdf:RDF></metadata><defs
     id="defs6"><clipPath
       id="clipPath18"
       clipPathUnits="userSpaceOnUse"><path
         id="path16"
         d="M 0,59.5 H 60.5 V 0 H 0 Z" /></clipPath></defs><g
     transform="matrix(1.3333333,0,0,-1.3333333,0,79.333333)"
     id="g10"><g
       style="stroke:#24abe2;stroke-opacity:1;fill:none"
       id="g12"><g
         style="stroke:#24abe2;stroke-opacity:1;fill:none"
         clip-path="url(#clipPath18)"
         id="g14"><g
           style="stroke:#24abe2;stroke-opacity:1;fill:none"
           transform="translate(25.25,32.25)"
           id="g20"><path
             id="path22"
             style="fill:none;stroke:#24abe2;stroke-width:2.5;stroke-linecap:round;stroke-linejoin:round;stroke-miterlimit:4;stroke-dasharray:none;stroke-opacity:1"
             d="m 0,0 h -22 c -1.105,0 -2,0.895 -2,2 v 22 c 0,1.105 0.895,2 2,2 H 0 c 1.105,0 2,-0.895 2,-2 V 2 C 2,0.895 1.105,0 0,0 Z" /></g><g
           style="stroke:#24abe2;stroke-opacity:1;fill:none"
           transform="translate(53.6748,35.6831)"
           id="g24"><path
             id="path26"
             style="fill:none;stroke:#24abe2;stroke-width:2.5;stroke-linecap:round;stroke-linejoin:round;stroke-miterlimit:4;stroke-dasharray:2.312, 3.46700000000000010, 2.31199999999999980, 3.46700000000000010;stroke-dashoffset:0;stroke-opacity:1"
             d="M 0,0 C -0.727,3.328 -2.121,6.326 -4.054,8.863" /></g><g
           style="stroke:#24abe2;stroke-opacity:1;fill:none"
           transform="translate(48.5166,45.8804)"
           id="g28"><path
             id="path30"
             style="fill:none;stroke:#24abe2;stroke-width:2.5;stroke-linecap:round;stroke-linejoin:round;stroke-miterlimit:4;stroke-dasharray:2.312, 3.46700000000000010, 2.31199999999999980, 3.46700000000000010, 2.31199999999999980, 3.46700000000000010;stroke-dashoffset:0;stroke-opacity:1"
             d="M 0,0 C -3.382,3.768 -8.069,6.309 -13.541,7.104" /></g><g
           style="stroke:#24abe2;stroke-opacity:1;fill:none"
           transform="translate(6.8252,22.8169)"
           id="g32"><path
             id="path34"
             style="fill:none;stroke:#24abe2;stroke-width:2.5;stroke-linecap:round;stroke-linejoin:round;stroke-miterlimit:4;stroke-dasharray:2.312, 3.46700000000000010, 2.31199999999999980, 3.46700000000000010;stroke-dashoffset:0;stroke-opacity:1"
             d="M 0,0 C 0.727,-3.328 2.121,-6.326 4.054,-8.863" /></g><g
           style="stroke:#24abe2;stroke-opacity:1;fill:none"
           transform="translate(11.9834,12.6191)"
           id="g36"><path
             id="path38"
             style="fill:none;stroke:#24abe2;stroke-width:2.5;stroke-linecap:round;stroke-linejoin:round;stroke-miterlimit:4;stroke-dasharray:2.312, 3.46700000000000010, 2.31199999999999980, 3.46700000000000010, 2.31199999999999980, 3.46700000000000010;stroke-dashoffset:0;stroke-opacity:1"
             d="M 0,0 C 3.382,-3.768 8.069,-6.309 13.541,-7.104" /></g><g
           style="stroke:#24abe2;stroke-opacity:1;fill:none"
           transform="translate(59.25,22.25)"
           id="g40"><path
             id="path42"
             style="fill:none;stroke:#24abe2;stroke-width:2.5;stroke-linecap:round;stroke-linejoin:round;stroke-miterlimit:4;stroke-dasharray:none;stroke-opacity:1"
             d="m 0,0 c 0,-1.657 -5.82,-3 -13,-3 -7.18,0 -13,1.343 -13,3 0,1.657 5.82,3 13,3 C -5.82,3 0,1.657 0,0 Z" /></g><g
           style="stroke:#24abe2;stroke-opacity:1;fill:none"
           transform="translate(46.25,19.25)"
           id="g44"><path
             id="path46"
             style="fill:none;stroke:#24abe2;stroke-width:2.5;stroke-linecap:round;stroke-linejoin:round;stroke-miterlimit:4;stroke-dasharray:none;stroke-opacity:1"
             d="m 0,0 c -7.18,0 -13,1.343 -13,3 v -6 c 0,-1.657 5.82,-3 13,-3 7.18,0 13,1.343 13,3 V 3 C 13,1.343 7.18,0 0,0 Z" /></g><g
           style="stroke:#24abe2;stroke-opacity:1;fill:none"
           transform="translate(46.25,13.25)"
           id="g48"><path
             id="path50"
             style="fill:none;stroke:#24abe2;stroke-width:2.5;stroke-linecap:round;stroke-linejoin:round;stroke-miterlimit:4;stroke-dasharray:none;stroke-opacity:1"
             d="m 0,0 c -7.18,0 -13,1.343 -13,3 v -6 c 0,-1.657 5.82,-3 13,-3 7.18,0 13,1.343 13,3 V 3 C 13,1.343 7.18,0 0,0 Z" /></g><g
           style="stroke:#24abe2;stroke-opacity:1;fill:none"
           transform="translate(46.25,7.25)"
           id="g52"><path
             id="path54"
             style="fill:none;stroke:#24abe2;stroke-width:2.5;stroke-linecap:round;stroke-linejoin:round;stroke-miterlimit:4;stroke-dasharray:none;stroke-opacity:1"
             d="m 0,0 c -7.18,0 -13,1.343 -13,3 v -6 c 0,-1.657 5.82,-3 13,-3 7.18,0 13,1.343 13,3 V 3 C 13,1.343 7.18,0 0,0 Z" /></g><g
           style="stroke:#24abe2;stroke-opacity:1;fill:none"
           transform="translate(5.25,53.25)"
           id="g56"><path
             id="path58"
             style="fill:none;stroke:#24abe2;stroke-width:2.5;stroke-linecap:round;stroke-linejoin:round;stroke-miterlimit:4;stroke-dasharray:none;stroke-opacity:1"
             d="M 0,0 H 10" /></g><g
           style="stroke:#24abe2;stroke-opacity:1;fill:none"
           transform="translate(8.25,49.25)"
           id="g60"><path
             id="path62"
             style="fill:none;stroke:#24abe2;stroke-width:2.5;stroke-linecap:round;stroke-linejoin:round;stroke-miterlimit:4;stroke-dasharray:none;stroke-opacity:1"
             d="M 0,0 H 11" /></g><g
           style="stroke:#24abe2;stroke-opacity:1;fill:none"
           transform="translate(5.25,45.25)"
           id="g64"><path
             id="path66"
             style="fill:none;stroke:#24abe2;stroke-width:2.5;stroke-linecap:round;stroke-linejoin:round;stroke-miterlimit:4;stroke-dasharray:none;stroke-opacity:1"
             d="M 0,0 H 10" /></g><g
           style="stroke:#24abe2;stroke-opacity:1;fill:none"
           transform="translate(5.25,41.25)"
           id="g68"><path
             id="path70"
             style="fill:none;stroke:#24abe2;stroke-width:2.5;stroke-linecap:round;stroke-linejoin:round;stroke-miterlimit:4;stroke-dasharray:none;stroke-opacity:1"
             d="M 0,0 H 4" /></g><g
           style="stroke:#24abe2;stroke-opacity:1;fill:none"
           transform="translate(7.25,37.25)"
           id="g72"><path
             id="path74"
             style="fill:none;stroke:#24abe2;stroke-width:2.5;stroke-linecap:round;stroke-linejoin:round;stroke-miterlimit:4;stroke-dasharray:none;stroke-opacity:1"
             d="M 0,0 H 8" /></g></g></g></g></svg>