<?xml version="1.0" encoding="UTF-8" standalone="no"?>
<svg
   xmlns:dc="http://purl.org/dc/elements/1.1/"
   xmlns:cc="http://creativecommons.org/ns#"
   xmlns:rdf="http://www.w3.org/1999/02/22-rdf-syntax-ns#"
   xmlns:svg="http://www.w3.org/2000/svg"
   xmlns="http://www.w3.org/2000/svg"
   viewBox="0 0 121.32413 129.17027"
   height="129.17027"
   width="121.32413"
   xml:space="preserve"
   id="svg2"
   version="1.1"><metadata
     id="metadata8"><rdf:RDF><cc:Work
         rdf:about=""><dc:format>image/svg+xml</dc:format><dc:type
           rdf:resource="http://purl.org/dc/dcmitype/StillImage" /><dc:title></dc:title></cc:Work></rdf:RDF></metadata><defs
     id="defs6"><clipPath
       id="clipPath18"
       clipPathUnits="userSpaceOnUse"><path
         id="path16"
         d="M 0,96.878 H 90.993 V 0 H 0 Z" /></clipPath></defs><g
     transform="matrix(1.3333333,0,0,-1.3333333,0,129.17027)"
     id="g10"><g
       style="fill:#24abe2;fill-opacity:1"
       id="g12"><g
         style="fill:#24abe2;fill-opacity:1"
         clip-path="url(#clipPath18)"
         id="g14"><g
           style="fill:#24abe2;fill-opacity:1"
           transform="translate(2.5,23.1275)"
           id="g20"><path
             id="path22"
             style="fill:#24abe2;fill-opacity:1;fill-rule:nonzero;stroke:none"
             d="m 0,0 h 22.58 c 1.381,0 2.5,1.119 2.5,2.5 0,1.381 -1.119,2.5 -2.5,2.5 H 0 C -1.381,5 -2.5,3.881 -2.5,2.5 -2.5,1.119 -1.381,0 0,0 m 5.74,20.78 c -1.381,0 -2.5,-1.119 -2.5,-2.5 0,-1.381 1.119,-2.5 2.5,-2.5 h 22.57 c 1.381,0 2.5,1.119 2.5,2.5 0,1.381 -1.119,2.5 -2.5,2.5 z M 0,31.56 h 22.58 c 1.381,0 2.5,1.12 2.5,2.5 0,1.381 -1.119,2.5 -2.5,2.5 H 0 c -1.381,0 -2.5,-1.119 -2.5,-2.5 0,-1.38 1.119,-2.5 2.5,-2.5 M 19.53,44.12 C 33.801,58.389 56.937,58.387 71.205,44.116 85.474,29.845 85.472,6.709 71.201,-7.56 56.932,-21.826 33.799,-21.826 19.53,-7.56 18.5,-6.64 16.92,-6.729 16,-7.758 15.152,-8.706 15.152,-10.141 16,-11.09 32.293,-27.24 58.595,-27.125 74.746,-10.831 90.115,4.674 90.859,29.43 76.45,45.83 l 5.18,5.18 2.59,-2.59 c 0.977,-0.977 2.562,-0.977 3.54,0 0.977,0.978 0.977,2.563 0,3.54 L 79,60.67 C 77.921,61.531 76.348,61.354 75.486,60.275 74.754,59.357 74.76,58.052 75.5,57.14 l 2.59,-2.59 -5.18,-5.18 c -6.926,6.178 -15.735,9.836 -25,10.38 v 9 h 8.65 c 1.38,0 2.5,1.12 2.5,2.5 0,1.381 -1.12,2.5 -2.5,2.5 H 34.22 c -1.381,0 -2.5,-1.119 -2.5,-2.5 0,-1.38 1.119,-2.5 2.5,-2.5 h 8.65 v -9 C 32.729,59.165 23.16,54.856 16,47.65 c -0.978,-0.977 -0.978,-2.562 0,-3.54 0.978,-0.977 2.562,-0.977 3.54,0 z M 42.87,-5.41 v -4.75 c 0,-1.38 1.119,-2.5 2.5,-2.5 1.381,0 2.5,1.12 2.5,2.5 v 4.74 c 0,1.381 -1.119,2.5 -2.5,2.5 -1.381,0 -2.5,-1.119 -2.5,-2.5 z m 2.5,20.1 c 1.988,0 3.6,1.612 3.6,3.6 0,1.988 -1.612,3.6 -3.6,3.6 -1.988,0 -3.6,-1.612 -3.6,-3.6 0,-1.99 1.61,-3.604 3.6,-3.61 z m 4.05,-4 c -4.209,-2.212 -9.415,-0.594 -11.628,3.614 -2.212,4.209 -0.595,9.415 3.614,11.628 4.209,2.213 9.415,0.595 11.628,-3.614 C 54.365,19.787 54.353,16.76 53,14.24 l 13,-13 c 0.978,-0.977 0.978,-2.562 0,-3.54 -0.978,-0.977 -2.562,-0.977 -3.54,0 z m 18.86,3.08 -5.61,4.41 c -1.071,0.872 -1.232,2.446 -0.361,3.517 0.851,1.046 2.378,1.229 3.451,0.413 l 1,-0.76 C 65.183,32.268 55.841,40.38 44.81,40.41 h -0.09 c -3.859,-0.008 -7.649,-1.017 -11,-2.93 -1.215,-0.656 -2.732,-0.204 -3.388,1.011 -0.635,1.174 -0.235,2.64 0.908,3.329 4.121,2.353 8.784,3.59 13.53,3.59 h 0.12 C 58.348,45.338 69.731,35.438 71.67,22.12 l 0.58,0.74 c 0.871,1.071 2.446,1.233 3.517,0.362 1.046,-0.851 1.228,-2.378 0.413,-3.452 L 71.79,14.24 C 71.38,13.717 70.779,13.379 70.12,13.3 h -0.3 c -0.551,-0.017 -1.092,0.148 -1.54,0.47" /></g></g></g></g></svg>