<?xml version="1.0" encoding="UTF-8" standalone="no"?>
<svg
   xmlns:dc="http://purl.org/dc/elements/1.1/"
   xmlns:cc="http://creativecommons.org/ns#"
   xmlns:rdf="http://www.w3.org/1999/02/22-rdf-syntax-ns#"
   xmlns:svg="http://www.w3.org/2000/svg"
   xmlns="http://www.w3.org/2000/svg"
   viewBox="0 0 115.126 125.34587"
   height="125.34587"
   width="115.126"
   xml:space="preserve"
   id="svg2"
   version="1.1"><metadata
     id="metadata8"><rdf:RDF><cc:Work
         rdf:about=""><dc:format>image/svg+xml</dc:format><dc:type
           rdf:resource="http://purl.org/dc/dcmitype/StillImage" /><dc:title></dc:title></cc:Work></rdf:RDF></metadata><defs
     id="defs6"><clipPath
       id="clipPath18"
       clipPathUnits="userSpaceOnUse"><path
         id="path16"
         d="M 0,94.009 H 86.344 V 0 H 0 Z" /></clipPath></defs><g
     transform="matrix(1.3333333,0,0,-1.3333333,0,125.34587)"
     id="g10"><g
       id="g12"><g
         clip-path="url(#clipPath18)"
         id="g14"><g
           transform="translate(81.2446,31.6003)"
           id="g20"><path
             id="path22"
             style="fill:#24abe2;fill-opacity:1;fill-rule:nonzero;stroke:none"
             d="m 0,0 c 0,-1.8 -0.601,-3.7 -2,-6 -1.101,-2 -2.601,-3.5 -4.601,-4.601 -8.5,-4.799 -17,-9.799 -25.199,-14.599 -2.1,-1.2 -4.4,-1.7 -7.2,-1.6 -2.2,0.199 -4.1,0.8 -5.9,1.9 -4.2,2.4 -8.3,4.799 -12.5,7.2 -4.2,2.4 -8.3,4.8 -12.5,7.2 -2.8,1.6 -4.7,4 -5.9,7.6 -0.4,1 -0.6,2.2 -0.6,3.6 v 9.7 19.5 c 0,5 2.1,8.6 6.5,11.3 6,3.6 12.2,7.1 18.2,10.6 2.4,1.4 4.8,2.7 7.2,4.1 1.8,1.1 3.7,1.6 6.1,1.6 h 0.6 c 2.199,-0.1 4.199,-0.7 6.1,-1.8 4.2,-2.5 8.4,-4.9 12.599,-7.3 4.201,-2.4 8.401,-4.8 12.601,-7.3 2.8,-1.6 4.7,-4.1 5.899,-7.8 0.301,-1 0.5,-2.2 0.5,-3.4 l 0,-29.9 z m 4.3,34.8 c -1.6,4.9 -4.3,8.4 -8.2,10.6 -4.201,2.5 -8.4,4.9 -12.6,7.3 -4.2,2.4 -8.4,4.8 -12.601,7.3 -2.699,1.5 -5.399,2.3 -8.399,2.4 -3.6,0.1 -6.7,-0.6 -9.4,-2.2 -2.4,-1.4 -4.8,-2.7 -7.1,-4.1 -6,-3.4 -12.2,-7 -18.3,-10.6 -5.8,-3.5 -8.9,-8.9 -8.9,-15.5 -0.1,-6.5 0,-13.1 0,-19.5 V 0.8 c 0,-1.901 0.3,-3.7 0.8,-5.2 1.6,-4.6 4.3,-8.1 8.1,-10.3 4.1,-2.401 8.3,-4.8 12.5,-7.2 4.2,-2.4 8.4,-4.8 12.5,-7.201 2.5,-1.5 5.1,-2.299 8.1,-2.5 h 1.4 c 3.199,0 6.1,0.801 8.699,2.301 8.201,4.8 16.701,9.8 25.101,14.6 2.7,1.5 4.899,3.599 6.5,6.4 1.8,3.1 2.6,5.699 2.6,8.5 V 30.1 C 5,31.5 4.8,33.2 4.3,34.8 m -38,-0.9 c -1.3,0.3 -2.7,-0.5 -3,-1.8 l -7.8,-32.3 c -0.3,-1.3 0.5,-2.7 1.8,-3 0.2,0 0.4,-0.1 0.6,-0.1 1.1,0 2.2,0.8 2.4,1.9 l 7.8,32.3 c 0.4,1.3 -0.5,2.7 -1.8,3 m 11.099,-0.5 c -0.899,1 -2.5,1 -3.5,0.1 -1,-0.9 -1,-2.5 -0.099,-3.5 L -12.4,15.3 -26.2,0.6 c -0.901,-1 -0.901,-2.6 0.099,-3.5 0.5,-0.5 1.101,-0.701 1.701,-0.701 0.7,0 1.299,0.301 1.799,0.801 l 15.5,16.4 c 0.901,1 0.901,2.5 0,3.4 z M -50.3,33.5 c -1,0.9 -2.6,0.9 -3.5,-0.1 L -69.3,17 c -0.9,-1 -0.9,-2.5 0,-3.4 l 15.5,-16.4 c 0.5,-0.5 1.2,-0.801 1.8,-0.801 0.6,0 1.2,0.201 1.7,0.701 1,0.9 1,2.5 0.1,3.5 L -64,15.3 -50.2,30 c 1,1 0.9,2.6 -0.1,3.5" /></g></g></g></g></svg>