<?xml version="1.0" encoding="UTF-8" standalone="no"?>
<svg
   xmlns:dc="http://purl.org/dc/elements/1.1/"
   xmlns:cc="http://creativecommons.org/ns#"
   xmlns:rdf="http://www.w3.org/1999/02/22-rdf-syntax-ns#"
   xmlns:svg="http://www.w3.org/2000/svg"
   xmlns="http://www.w3.org/2000/svg"
   viewBox="0 0 76.799469 120.3256"
   height="120.3256"
   width="76.799469"
   xml:space="preserve"
   id="svg2"
   version="1.1"><metadata
     id="metadata8"><rdf:RDF><cc:Work
         rdf:about=""><dc:format>image/svg+xml</dc:format><dc:type
           rdf:resource="http://purl.org/dc/dcmitype/StillImage" /><dc:title></dc:title></cc:Work></rdf:RDF></metadata><defs
     id="defs6"><clipPath
       id="clipPath18"
       clipPathUnits="userSpaceOnUse"><path
         id="path16"
         d="M 0,90.244 H 57.6 V 0 H 0 Z" /></clipPath></defs><g
     transform="matrix(1.3333333,0,0,-1.3333333,0,120.3256)"
     id="g10"><g
       style="fill:#24abe2;fill-opacity:1"
       id="g12"><g
         style="fill:#24abe2;fill-opacity:1"
         clip-path="url(#clipPath18)"
         id="g14"><g
           style="fill:#24abe2;fill-opacity:1"
           transform="translate(5,61.4439)"
           id="g20"><path
             id="path22"
             style="fill:#24abe2;fill-opacity:1;fill-rule:nonzero;stroke:none"
             d="M 0,0 C 0,13.124 10.677,23.8 23.8,23.8 36.923,23.8 47.6,13.124 47.6,0 47.6,-13.178 36.923,-23.9 23.8,-23.9 10.677,-23.9 0,-13.178 0,0 m 25.919,-45.414 c -1.24,0.974 -2.999,0.975 -4.21,0.02 l -13.943,-9.473 1.064,30.219 0.721,-0.42 c 4.373,-2.542 9.167,-3.831 14.249,-3.831 5.082,0 9.876,1.289 14.249,3.831 l 0.722,0.42 1.063,-30.219 z M 4.724,-61.152 c 1.107,-0.511 2.412,-0.345 3.476,0.453 l 15.597,10.704 15.683,-10.591 c 0.666,-0.477 1.376,-0.714 2.12,-0.714 0.472,0 1.002,0.099 1.415,0.264 1.201,0.516 1.985,1.749 1.985,3.137 l -1.308,37.107 0.164,0.155 C 49.413,-15.383 52.6,-7.861 52.6,0 52.6,15.88 39.68,28.8 23.8,28.8 7.919,28.8 -5,15.88 -5,0 -5,-7.873 -1.858,-15.238 3.847,-20.74 L 4.007,-20.895 2.699,-57.917 2.7,-58 c 0,-1.3 0.794,-2.538 2.024,-3.152" /></g><g
           style="fill:#24abe2;fill-opacity:1"
           transform="translate(37.1035,70.0411)"
           id="g24"><path
             id="path26"
             style="fill:#24abe2;fill-opacity:1;fill-rule:nonzero;stroke:none"
             d="m 0,0 -10.807,-10.807 -5.799,5.9 -3.589,-3.588 9.391,-9.298 L 3.583,-3.5 Z" /></g></g></g></g></svg>