<?xml version="1.0" encoding="UTF-8" standalone="no"?>
<svg
   xmlns:dc="http://purl.org/dc/elements/1.1/"
   xmlns:cc="http://creativecommons.org/ns#"
   xmlns:rdf="http://www.w3.org/1999/02/22-rdf-syntax-ns#"
   xmlns:svg="http://www.w3.org/2000/svg"
   xmlns="http://www.w3.org/2000/svg"
   viewBox="0 0 82.666664 70.666664"
   height="70.666664"
   width="82.666664"
   xml:space="preserve"
   id="svg2"
   version="1.1"><metadata
     id="metadata8"><rdf:RDF><cc:Work
         rdf:about=""><dc:format>image/svg+xml</dc:format><dc:type
           rdf:resource="http://purl.org/dc/dcmitype/StillImage" /><dc:title></dc:title></cc:Work></rdf:RDF></metadata><defs
     id="defs6"><clipPath
       id="clipPath30"
       clipPathUnits="userSpaceOnUse"><path
         id="path28"
         d="M 0,53 H 62 V 0 H 0 Z" /></clipPath></defs><g
     transform="matrix(1.3333333,0,0,-1.3333333,0,70.666667)"
     id="g10"><g
       transform="translate(14.0004,19.9998)"
       id="g12"><path
         id="path14"
         style="fill:#24abe2;fill-opacity:1;fill-rule:nonzero;stroke:none"
         d="m 0,0 v -10 h 15.999 v -3.999 h -2 V -16 H 1 v -2 h 12.999 v -2 H 20 v 2 h 13.999 v 2 H 20 v 2.001 H 18 V -10 H 33.999 V 0 Z M 2,-2 H 32 V -8 H 2 Z M 15.999,-16 H 18 v -2 h -2.001 z" /></g><path
       id="path16"
       style="fill:#24abe2;fill-opacity:1;fill-rule:nonzero;stroke:none"
       d="M 18,16 H 28 V 14 H 18 Z" /><path
       id="path18"
       style="fill:#24abe2;fill-opacity:1;fill-rule:nonzero;stroke:none"
       d="m 42,16 h 2 v -2 h -2 z" /><path
       id="path20"
       style="fill:#24abe2;fill-opacity:1;fill-rule:nonzero;stroke:none"
       d="m 38,16 h 2 v -2 h -2 z" /><path
       id="path22"
       style="fill:#24abe2;fill-opacity:1;fill-rule:nonzero;stroke:none"
       d="m 34,16 h 2 v -2 h -2 z" /><g
       id="g24"><g
         clip-path="url(#clipPath30)"
         id="g26"><g
           transform="translate(55.9004,33.2002)"
           id="g32"><path
             id="path34"
             style="fill:#24abe2;fill-opacity:1;fill-rule:nonzero;stroke:none"
             d="m 0,0 c 1,9.3 -5.9,19.8 -17.9,19.8 -5.8,0 -11.201,-2.8 -14.6,-7.5 -8.7,2.5 -16.4,-4.7 -16.4,-12 -4.201,-1.3 -7,-5.1 -7,-9.5 0,-5.5 4.5,-10 10,-10 h 3 v 2 h -3 c -4.4,0 -8,3.599 -8,8 0,7 7,8 7,8 -0.5,10.5 10.1,13.7 15.2,11.2 0,0 4.3,7.8 13.8,7.8 12.599,0 17.4,-12.4 15.7,-19.1 0,0 6.3,-1.5 6.3,-7.9 0,-4.401 -3.6,-8 -8,-8 h -3 v -2 h 3 c 5.5,0 10,4.5 10,10 0,4.1 -2.401,7.7 -6.1,9.2" /></g><g
           transform="translate(51,35)"
           id="g36"><path
             id="path38"
             style="fill:#24abe2;fill-opacity:1;fill-rule:nonzero;stroke:none"
             d="M 0,0 C 0,7.2 -5.8,13 -13,13 V 11 C -6.9,11 -2,6.1 -2,0 Z" /></g><g
           transform="translate(31.5049,26.3022)"
           id="g40"><path
             id="path42"
             style="fill:#24abe2;fill-opacity:1;fill-rule:nonzero;stroke:none"
             d="m 0,0 c -0.516,0.034 -1.113,0.125 -1.583,0.262 -0.088,0.025 -0.452,0.159 -0.546,0.201 -1.637,0.759 -2.777,2.415 -2.777,4.336 0,2.634 2.143,4.778 4.78,4.778 2.612,0 4.74,-2.108 4.776,-4.712 h 1.727 c -0.036,3.555 -2.939,6.437 -6.503,6.437 -3.587,0 -6.506,-2.917 -6.506,-6.503 0,-2.473 1.39,-4.625 3.426,-5.724 0.368,-0.195 0.896,-0.395 1.075,-0.45 0.581,-0.173 1.293,-0.288 1.927,-0.336 0.217,-0.016 0.967,-0.024 1.187,-0.026 h 11.889 v 1.721 H 1.003 C 0.845,-0.016 0.155,-0.01 0,0 m 1.003,2.7 v 0 C 0.878,2.7 0.221,2.705 0.1,2.715 c -0.205,0.017 -0.504,0.049 -0.696,0.092 -0.216,0.059 -0.419,0.134 -0.511,0.184 -0.641,0.348 -1.078,1.027 -1.078,1.808 0,1.136 0.921,2.056 2.059,2.056 1.112,0 2.018,-0.885 2.054,-1.99 h 1.658 c -0.034,2.022 -1.683,3.65 -3.712,3.65 -2.054,0 -3.719,-1.664 -3.719,-3.716 0,-1.448 0.829,-2.698 2.039,-3.312 C -1.621,1.378 -1.27,1.264 -1.17,1.238 -0.83,1.148 -0.371,1.087 0,1.06 0.139,1.048 0.812,1.043 0.953,1.042 V 1.041 H 12.871 V 2.7 Z M -7.696,-1.729 H -9.433 V 9.574 h -2.541 v 1.738 h 4.278 z M -13.882,8.706 V 7.035 h 1.908 v -8.764 h 1.67 V 8.706 Z" /></g></g></g></g></svg>