<svg xmlns="http://www.w3.org/2000/svg" viewBox="0 0 122.80227 120.13333" height="120.133" width="122.802"><defs><clipPath id="a"><path d="M0 90.1h92.102V0H0z"/></clipPath></defs><path d="M34.8 21.6h24.267v4H34.8z" fill="#fff"/><g clip-path="url(#a)" transform="matrix(1.33333 0 0 -1.33333 0 120.133)" fill="#24abe2"><path d="M28.9 59.2H7.7c-.8 0-1.5-.7-1.5-1.5s.7-1.5 1.5-1.5h21.2c.8 0 1.5.7 1.5 1.5s-.6 1.5-1.5 1.5m9.5-2.8c-.7 0-1.3.6-1.3 1.3 0 .7.6 1.3 1.3 1.3.7 0 1.3-.6 1.3-1.3 0-.7-.6-1.3-1.3-1.3m0 5.7c-2.4 0-4.3-2-4.3-4.4 0-2.4 1.9-4.3 4.3-4.3s4.3 1.9 4.3 4.3-1.9 4.4-4.3 4.4M7.7 37.2h21.2c.8 0 1.5.7 1.5 1.5s-.7 1.5-1.5 1.5H7.7c-.8 0-1.5-.7-1.5-1.5s.7-1.5 1.5-1.5m30.7 2.9c.7 0 1.3-.6 1.3-1.3 0-.7-.6-1.3-1.3-1.3-.7 0-1.3.5-1.3 1.2s.6 1.4 1.3 1.4m0-5.7c2.4 0 4.3 1.9 4.3 4.3s-1.9 4.4-4.3 4.4-4.3-2-4.3-4.4c0-2.4 1.9-4.3 4.3-4.3M7.7 18.2h21.2c.8 0 1.5.7 1.5 1.5s-.7 1.5-1.5 1.5H7.7c-.8 0-1.5-.7-1.5-1.5s.7-1.5 1.5-1.5m30.7 2.9c.7 0 1.3-.6 1.3-1.3 0-.7-.6-1.3-1.3-1.3-.7 0-1.3.5-1.3 1.2s.6 1.4 1.3 1.4m0-5.7c2.4 0 4.3 1.9 4.3 4.3s-1.9 4.4-4.3 4.4-4.3-2-4.3-4.4c0-2.4 1.9-4.3 4.3-4.3"/><path d="M75.9 43.7H48.4v2.2c0 .8-.7 1.5-1.5 1.5h-4.4V49h4.4c.8 0 1.5.7 1.5 1.5v14.4c0 .8-.7 1.5-1.5 1.5H16.4c.9.9 2 1.7 3.2 2.3.5.3.9.9.8 1.5 0 .5-.1 1-.1 1.5 0 8.5 7 15.4 15.5 15.4 6.5 0 12.3-4 14.5-10.1.2-.6.8-1 1.4-1 .6 0 1.2.3 1.4.9 2.1 4.8 6.9 8 12.1 8 7.3 0 13.2-5.9 13.2-13.2v-.5c0-.7.4-1.3 1.1-1.5 5.7-1.6 9.6-6.8 9.6-12.7.1-7.4-5.9-13.3-13.2-13.3M45.4 33H3.5v11.4h41.9zM9.5 30h30v-1.6h-30zm35.9-16H3.5v11.4h41.9zm-5.9 33.4h-30V49h30zm-36 16h41.9V52H3.5zm78 8.8c-.3 8.7-7.4 15.7-16.2 15.7-5.4 0-10.4-2.7-13.4-7.1-3.3 5.7-9.4 9.3-16.1 9.3-10.2 0-18.5-8.3-18.5-18.5v-.7c-2-1.2-3.6-2.7-4.9-4.5H2c-.8 0-1.5-.7-1.5-1.5V50.5c0-.8.7-1.5 1.5-1.5h4.4v-1.6H2c-.8 0-1.5-.7-1.5-1.5V31.5c0-.8.7-1.5 1.5-1.5h4.4v-1.6H2c-.8 0-1.5-.7-1.5-1.5V12.5c0-.8.7-1.5 1.5-1.5h20.4V4H2C.9 4 0 3.1 0 2s.9-2 2-2h44.9c1.1 0 2 .9 2 2s-.9 2-2 2H26.5v7h20.4c.8 0 1.5.7 1.5 1.5v14.4c0 .8-.7 1.5-1.5 1.5h-4.4V30h4.4c.8 0 1.5.7 1.5 1.5v9.2h27.5c9 0 16.2 7.3 16.2 16.2.1 6.8-4.3 12.9-10.6 15.3"/></g></svg>