<?xml version="1.0" encoding="UTF-8" standalone="no"?>
<svg
   xmlns:dc="http://purl.org/dc/elements/1.1/"
   xmlns:cc="http://creativecommons.org/ns#"
   xmlns:rdf="http://www.w3.org/1999/02/22-rdf-syntax-ns#"
   xmlns:svg="http://www.w3.org/2000/svg"
   xmlns="http://www.w3.org/2000/svg"
   viewBox="0 0 677.33331 677.33331"
   height="677.33331"
   width="677.33331"
   xml:space="preserve"
   id="svg2"
   version="1.1"><metadata
     id="metadata8"><rdf:RDF><cc:Work
         rdf:about=""><dc:format>image/svg+xml</dc:format><dc:type
           rdf:resource="http://purl.org/dc/dcmitype/StillImage" /><dc:title></dc:title></cc:Work></rdf:RDF></metadata><defs
     id="defs6"><clipPath
       id="clipPath18"
       clipPathUnits="userSpaceOnUse"><path
         id="path16"
         d="M 0,508 H 508 V 0 H 0 Z" /></clipPath></defs><g
     transform="matrix(1.3333333,0,0,-1.3333333,0,677.33333)"
     id="g10"><g
       id="g12"><g
         clip-path="url(#clipPath18)"
         id="g14"><g
           transform="translate(322.7998,271.8999)"
           id="g20"><path
             id="path22"
             style="fill:#000000;fill-opacity:1;fill-rule:nonzero;stroke:none"
             d="m 0,0 -101.6,101.6 c -9.9,9.9 -26,9.9 -35.9,0 -9.9,-9.9 -9.9,-26 0,-35.9 L -79.3,7.5 h -218.1 c -14,0 -25.4,-11.4 -25.4,-25.4 0,-14 11.4,-25.4 25.4,-25.4 h 218.1 l -58.2,-58.2 c -9.9,-9.9 -9.9,-26 0,-35.9 7.2,-7.2 26,-9.9 35.9,0 L 0,-35.9 c 9.9,10 9.9,26 0,35.9" /></g><g
           transform="translate(482.5996,508)"
           id="g24"><path
             id="path26"
             style="fill:#000000;fill-opacity:1;fill-rule:nonzero;stroke:none"
             d="m 0,0 h -457.2 c -14,0 -25.4,-11.4 -25.4,-25.4 V -127 c 0,-14 11.4,-25.4 25.4,-25.4 14,0 25.4,11.4 25.4,25.4 v 76.2 H -25.399 V -457.2 H -431.8 v 76.2 c 0,14 -11.4,25.4 -25.4,25.4 -14,0 -25.4,-11.4 -25.4,-25.4 v -101.6 c 0,-14 11.4,-25.4 25.4,-25.4 H 0 c 14,0 25.4,11.4 25.4,25.4 V -25.4 C 25.4,-11.4 14,0 0,0" /></g></g></g></g></svg>