<svg xmlns="http://www.w3.org/2000/svg" viewBox="0 0 114.66667 114.66667" height="114.667" width="114.667"><defs><clipPath id="a"><path d="M0 86h86V0H0z"/></clipPath></defs><g clip-path="url(#a)" transform="matrix(1.33333 0 0 -1.33333 0 114.667)"><path d="M23.961 53.684l1.25-1.876A95.427 95.427 0 0 1 51.807 25.21l1.876-1.251 8.093 8.092 17.232-6.46-.047-.74a18.658 18.658 0 0 0-5.44-12.024A19.762 19.762 0 0 0 59.456 7c-3.52 0-6.987.938-10.025 2.71A110.57 110.57 0 0 0 9.71 49.433 19.914 19.914 0 0 0 7 59.455c0 5.315 2.07 10.31 5.826 14.065a18.656 18.656 0 0 0 12.026 5.442l.74.047 6.461-17.234zM26.055 84.5a24.052 24.052 0 0 1-17.117-7.09C4.141 72.616 1.5 66.239 1.5 59.456a25.4 25.4 0 0 1 3.46-12.793 116.108 116.108 0 0 1 41.7-41.704 25.417 25.417 0 0 1 12.794-3.46c6.782 0 13.16 2.643 17.954 7.439 4.572 4.572 7.091 10.65 7.091 17.117v3.35l-24.11 9.042-7.39-7.39-.69.494a89.891 89.891 0 0 0-20.76 20.76l-.495.69 7.392 7.39-9.04 24.109z"/><path d="M23.961 53.684l1.25-1.876A95.427 95.427 0 0 1 51.807 25.21l1.876-1.251 8.093 8.092 17.232-6.46-.047-.74a18.658 18.658 0 0 0-5.44-12.024A19.762 19.762 0 0 0 59.456 7c-3.52 0-6.987.938-10.025 2.71A110.57 110.57 0 0 0 9.71 49.433 19.914 19.914 0 0 0 7 59.455c0 5.315 2.07 10.31 5.826 14.065a18.656 18.656 0 0 0 12.026 5.442l.74.047 6.461-17.234zM26.055 84.5a24.052 24.052 0 0 1-17.117-7.09C4.141 72.616 1.5 66.239 1.5 59.456a25.4 25.4 0 0 1 3.46-12.793 116.108 116.108 0 0 1 41.7-41.704 25.417 25.417 0 0 1 12.794-3.46c6.782 0 13.16 2.643 17.954 7.439 4.572 4.572 7.091 10.65 7.091 17.117v3.35l-24.11 9.042-7.39-7.39-.69.494a89.891 89.891 0 0 0-20.76 20.76l-.495.69 7.392 7.39-9.04 24.109z" fill="none" stroke="#000" stroke-width="3" stroke-miterlimit="10"/></g></svg>