<?xml version="1.0" encoding="UTF-8" standalone="no"?>
<svg
   xmlns:dc="http://purl.org/dc/elements/1.1/"
   xmlns:cc="http://creativecommons.org/ns#"
   xmlns:rdf="http://www.w3.org/1999/02/22-rdf-syntax-ns#"
   xmlns:svg="http://www.w3.org/2000/svg"
   xmlns="http://www.w3.org/2000/svg"
   viewBox="0 0 77.333336 125.33333"
   height="125.33333"
   width="77.333336"
   xml:space="preserve"
   id="svg2"
   version="1.1"><metadata
     id="metadata8"><rdf:RDF><cc:Work
         rdf:about=""><dc:format>image/svg+xml</dc:format><dc:type
           rdf:resource="http://purl.org/dc/dcmitype/StillImage" /><dc:title></dc:title></cc:Work></rdf:RDF></metadata><defs
     id="defs6"><clipPath
       id="clipPath18"
       clipPathUnits="userSpaceOnUse"><path
         id="path16"
         d="M 0,94 H 58 V 0 H 0 Z" /></clipPath></defs><g
     transform="matrix(1.3333333,0,0,-1.3333333,0,125.33333)"
     id="g10"><g
       id="g12"><g
         clip-path="url(#clipPath18)"
         id="g14"><g
           transform="translate(29,15)"
           id="g20"><path
             id="path22"
             style="fill:#000000;fill-opacity:1;fill-rule:nonzero;stroke:none"
             d="m 0,0 c -1.657,0 -3,-1.343 -3,-3 0,-1.657 1.343,-3 3,-3 1.657,0 3,1.343 3,3 0,1.657 -1.343,3 -3,3 m -22,2 h 44 v -8 c 0,-1.16 -0.84,-2 -2,-2 h -40 c -1.16,0 -2,0.84 -2,2 z m 0,60 H 22 V 8 h -44 z m 2,10 h 40 c 1.16,0 2,-0.84 2,-2 v -2 h -44 v 2 c 0,1.16 0.84,2 2,2 m 0,6 c -4.38,0 -8,-3.62 -8,-8 V -6 c 0,-4.38 3.62,-8 8,-8 h 40 c 4.38,0 8,3.62 8,8 v 76 c 0,4.38 -3.62,8 -8,8 z" /></g><g
           transform="translate(29,15)"
           id="g24"><path
             id="path26"
             style="fill:none;stroke:#000000;stroke-width:2;stroke-linecap:butt;stroke-linejoin:miter;stroke-miterlimit:10;stroke-dasharray:none;stroke-opacity:1"
             d="m 0,0 c -1.657,0 -3,-1.343 -3,-3 0,-1.657 1.343,-3 3,-3 1.657,0 3,1.343 3,3 0,1.657 -1.343,3 -3,3 z m -22,2 h 44 v -8 c 0,-1.16 -0.84,-2 -2,-2 h -40 c -1.16,0 -2,0.84 -2,2 z m 0,60 H 22 V 8 h -44 z m 2,10 h 40 c 1.16,0 2,-0.84 2,-2 v -2 h -44 v 2 c 0,1.16 0.84,2 2,2 z m 0,6 c -4.38,0 -8,-3.62 -8,-8 V -6 c 0,-4.38 3.62,-8 8,-8 h 40 c 4.38,0 8,3.62 8,8 v 76 c 0,4.38 -3.62,8 -8,8 z" /></g></g></g></g></svg>