<svg xmlns="http://www.w3.org/2000/svg" viewBox="0 0 97.866669 97.866669" height="97.867" width="97.867"><defs><clipPath id="a"><path d="M0 73.4h73.4V0H0z"/></clipPath></defs><g clip-path="url(#a)" transform="matrix(1.33333 0 0 -1.33333 0 97.867)" fill="#24abe2"><path d="M36.7 6C19.8 6 6 19.8 6 36.7s13.8 30.7 30.7 30.7 30.7-13.8 30.7-30.7S53.6 6 36.7 6m0 67.4C16.4 73.4 0 56.9 0 36.7 0 16.5 16.4 0 36.7 0 57 0 73.4 16.4 73.4 36.7 73.4 57 57 73.4 36.7 73.4"/><path d="M44.9 39.2c-1.2-1.1-2.9-1.6-5.1-1.6h-6.6v11.6h6.6c2.1 0 3.8-.5 5.1-1.5 1.3-1 1.9-2.4 1.9-4.4 0-1.7-.7-3.1-1.9-4.1m4.3 12.2c-1.1 1-2.3 1.7-3.9 2.2-1.5.5-3.2.8-5.1.8H27.6V37.7H24v-5.1h3.6v-3.4H24v-5.1h3.6v-6.8h5.6v6.8h10.9v5.1H33.2v3.3h6.4c1.8 0 3.5.2 5 .7 1.6.5 2.9 1.2 4.1 2.1 1.2.9 2.1 2.1 2.8 3.4.7 1.4 1 3 1 4.8 0 1.7-.3 3.1-.9 4.5-.5 1.3-1.3 2.4-2.4 3.4"/></g></svg>