<svg xmlns="http://www.w3.org/2000/svg" viewBox="0 0 115.126 125.34587" height="125.346" width="115.126"><defs><clipPath id="a"><path d="M0 94.009h86.344V0H0z"/></clipPath></defs><g clip-path="url(#a)" transform="matrix(1.33333 0 0 -1.33333 0 125.346)"><path d="M81.245 31.6c0-1.8-.601-3.7-2-6-1.101-2-2.601-3.5-4.601-4.6-8.5-4.8-17-9.8-25.2-14.6-2.1-1.2-4.4-1.7-7.2-1.6-2.2.2-4.1.8-5.9 1.9-4.2 2.4-8.3 4.8-12.5 7.2-4.2 2.4-8.3 4.8-12.5 7.2-2.8 1.6-4.7 4-5.9 7.6-.4 1-.6 2.2-.6 3.6v29.2c0 5 2.1 8.6 6.5 11.3 6 3.6 12.2 7.1 18.2 10.6 2.4 1.4 4.8 2.7 7.2 4.1 1.8 1.1 3.7 1.6 6.1 1.6h.6c2.2-.1 4.2-.7 6.1-1.8 4.2-2.5 8.4-4.9 12.6-7.3 4.2-2.4 8.4-4.8 12.6-7.3 2.8-1.6 4.7-4.1 5.9-7.8.3-1 .5-2.2.5-3.4V31.6zm4.3 34.8c-1.6 4.9-4.3 8.4-8.2 10.6-4.201 2.5-8.4 4.9-12.6 7.3-4.2 2.4-8.4 4.8-12.601 7.3-2.7 1.5-5.4 2.3-8.4 2.4-3.6.1-6.7-.6-9.4-2.2-2.4-1.4-4.8-2.7-7.1-4.1-6-3.4-12.2-7-18.3-10.6-5.8-3.5-8.9-8.9-8.9-15.5-.1-6.5 0-13.1 0-19.5v-9.7c0-1.9.3-3.7.8-5.2 1.6-4.6 4.3-8.1 8.1-10.3 4.1-2.4 8.3-4.8 12.5-7.2 4.2-2.4 8.4-4.8 12.5-7.2 2.5-1.5 5.1-2.3 8.1-2.5h1.4c3.2 0 6.1.8 8.7 2.3 8.2 4.8 16.7 9.8 25.1 14.6 2.7 1.5 4.9 3.6 6.5 6.4 1.8 3.1 2.6 5.7 2.6 8.5v29.9c-.1 1.4-.3 3.1-.8 4.7m-38-.9c-1.3.3-2.7-.5-3-1.8l-7.8-32.3c-.3-1.3.5-2.7 1.8-3 .2 0 .4-.1.6-.1 1.1 0 2.2.8 2.4 1.9l7.8 32.3c.4 1.3-.5 2.7-1.8 3m11.1-.5c-.9 1-2.5 1-3.5.1s-1-2.5-.1-3.5l13.8-14.7-13.8-14.7c-.9-1-.9-2.6.1-3.5.5-.5 1.1-.7 1.7-.7.7 0 1.3.3 1.8.8l15.5 16.4c.9 1 .9 2.5 0 3.4zm-27.7.1c-1 .9-2.6.9-3.5-.1l-15.5-16.4c-.9-1-.9-2.5 0-3.4l15.5-16.4c.5-.5 1.2-.8 1.8-.8.6 0 1.2.2 1.7.7 1 .9 1 2.5.1 3.5l-13.8 14.7 13.8 14.7c1 1 .9 2.6-.1 3.5" fill="#24abe2"/></g></svg>