<svg xmlns="http://www.w3.org/2000/svg" viewBox="0 0 28.666668 25.085333" height="25.085" width="28.667"><defs><clipPath id="a"><path d="M0 18.814h21.5V0H0z"/></clipPath></defs><g clip-path="url(#a)" transform="matrix(1.33333 0 0 -1.33333 0 25.085)" fill="#24abe2"><path d="M4.703 14.782c-.74 0-1.344.603-1.344 1.344 0 .741.603 1.344 1.344 1.344.741 0 1.344-.603 1.344-1.344 0-.741-.603-1.344-1.344-1.344m2.592 2.016a2.684 2.684 0 0 1-2.592 2.016 2.684 2.684 0 0 1-2.592-2.016H.001v-1.344h2.11a2.684 2.684 0 0 1 2.592-2.016c1.25 0 2.292.86 2.592 2.016H21.5v1.344zm9.502-8.735c-.741 0-1.344.603-1.344 1.344 0 .74.603 1.344 1.344 1.344.74 0 1.344-.603 1.344-1.344 0-.741-.603-1.344-1.344-1.344m0 4.03a2.684 2.684 0 0 1-2.592-2.015H0V8.734h14.205a2.684 2.684 0 0 1 2.592-2.016c1.249 0 2.292.86 2.592 2.016h2.11v1.344h-2.11a2.683 2.683 0 0 1-2.592 2.016M8.734 1.343a1.345 1.345 0 1 0 1.344 1.345c0-.74-.603-1.345-1.344-1.345m0 4.032A2.683 2.683 0 0 1 6.142 3.36H0V2.016h6.142A2.685 2.685 0 0 1 8.734 0c1.249 0 2.292.861 2.592 2.017H21.5V3.36H11.326a2.683 2.683 0 0 1-2.592 2.015"/></g></svg>