<?xml version="1.0" encoding="UTF-8" standalone="no"?>
<svg
   xmlns:dc="http://purl.org/dc/elements/1.1/"
   xmlns:cc="http://creativecommons.org/ns#"
   xmlns:rdf="http://www.w3.org/1999/02/22-rdf-syntax-ns#"
   xmlns:svg="http://www.w3.org/2000/svg"
   xmlns="http://www.w3.org/2000/svg"
   viewBox="0 0 109.14533 129.18494"
   height="129.18494"
   width="109.14533"
   xml:space="preserve"
   id="svg2"
   version="1.1"><metadata
     id="metadata8"><rdf:RDF><cc:Work
         rdf:about=""><dc:format>image/svg+xml</dc:format><dc:type
           rdf:resource="http://purl.org/dc/dcmitype/StillImage" /><dc:title></dc:title></cc:Work></rdf:RDF></metadata><defs
     id="defs6"><clipPath
       id="clipPath18"
       clipPathUnits="userSpaceOnUse"><path
         id="path16"
         d="M 0,96.889 H 81.859 V 0 H 0 Z" /></clipPath></defs><g
     transform="matrix(1.3333333,0,0,-1.3333333,0,129.18493)"
     id="g10"><g
       style="fill:#24abe2;fill-opacity:1"
       id="g12"><g
         style="fill:#24abe2;fill-opacity:1"
         clip-path="url(#clipPath18)"
         id="g14"><g
           style="fill:#24abe2;fill-opacity:1"
           transform="translate(39.291,59.8713)"
           id="g20"><path
             id="path22"
             style="fill:#24abe2;fill-opacity:1;fill-rule:nonzero;stroke:none"
             d="m 0,0 c 0,-1.38 -1.119,-2.5 -2.5,-2.5 -1.38,0 -2.5,1.12 -2.5,2.5 0,1.381 1.12,2.5 2.5,2.5 1.381,0.017 2.513,-1.089 2.53,-2.47 0,-0.009 0,-0.02 0,-0.03 z m 15.88,0 c 0,-1.38 -1.119,-2.5 -2.5,-2.5 -1.38,0 -2.5,1.12 -2.5,2.5 0,1.381 1.12,2.5 2.5,2.5 1.381,0.017 2.513,-1.089 2.53,-2.47 V 0 Z M 7.94,0 c 0,-1.38 -1.119,-2.5 -2.5,-2.5 -1.381,0 -2.5,1.12 -2.5,2.5 0,1.381 1.119,2.5 2.5,2.5 C 6.821,2.517 7.954,1.411 7.97,0.03 V 0 Z m 11,-13.47 c -6.161,-6.169 -15.732,-7.352 -23.21,-2.87 -0.602,0.361 -1.328,0.451 -2,0.25 l -6.2,-1.8 1.8,6.2 c 0.201,0.672 0.11,1.398 -0.25,2 -5.311,9.05 -2.28,20.692 6.77,26.003 9.05,5.312 20.692,2.28 26.003,-6.77 C 26.221,2.101 25.025,-7.351 18.94,-13.47 M -11.54,17 c -7.506,-7.481 -9.218,-19 -4.21,-28.34 l -1.76,-6.06 c -0.696,-2.386 0.674,-4.884 3.06,-5.58 0.823,-0.24 1.697,-0.24 2.52,0 l 6.06,1.76 c 11.708,-6.214 26.237,-1.759 32.451,9.949 6.212,11.708 1.758,26.237 -9.95,32.45 C 7.339,26.11 -4.08,24.417 -11.54,17 m 40.18,-39.34 c -0.616,-0.642 -0.846,-1.564 -0.599,-2.42 l 5.279,-18.58 c 0.136,-0.52 -0.164,-1.056 -0.68,-1.21 L -3.29,-54.8 c -0.508,-0.125 -1.027,0.162 -1.19,0.66 l -2.79,9.8 c -0.307,1.07 -1.286,1.809 -2.4,1.81 H -23.1 c -2.066,0 -3.74,1.675 -3.74,3.74 v 13.181 c -0.001,1.075 -0.689,2.029 -1.71,2.369 l -5.38,1.78 c -0.268,0.087 -0.415,0.375 -0.328,0.643 0.005,0.016 0.011,0.031 0.018,0.047 l 5.73,12.85 c 1.11,2.475 1.682,5.158 1.68,7.87 -0.005,17.784 14.407,32.205 32.19,32.21 H 5.45 C 23.228,32.152 37.633,17.733 37.625,-0.044 37.622,-8.358 34.402,-16.347 28.64,-22.34 M 42.49,2.25 C 41.146,22.751 23.437,38.281 2.936,36.936 -16.567,35.657 -31.754,19.504 -31.83,-0.04 c 0.004,-2.012 -0.419,-4.002 -1.24,-5.84 l -5.74,-12.85 c -1.242,-2.778 0.003,-6.037 2.782,-7.279 0.169,-0.076 0.342,-0.142 0.518,-0.201 l 3.67,-1.21 v -11.39 c 0.006,-4.825 3.916,-8.734 8.74,-8.74 h 11.54 l 2.27,-8 c 0.92,-3.154 4.206,-4.981 7.37,-4.099 l 35.95,10.309 c 3.154,0.92 4.981,4.205 4.1,7.37 l -4.94,17.27 c 6.592,7.371 9.942,17.083 9.3,26.95" /></g></g></g></g></svg>