<?xml version="1.0" encoding="UTF-8" standalone="no"?>
<svg
   xmlns:dc="http://purl.org/dc/elements/1.1/"
   xmlns:cc="http://creativecommons.org/ns#"
   xmlns:rdf="http://www.w3.org/1999/02/22-rdf-syntax-ns#"
   xmlns:svg="http://www.w3.org/2000/svg"
   xmlns="http://www.w3.org/2000/svg"
   viewBox="0 0 33.773468 36.649734"
   height="36.649734"
   width="33.773468"
   xml:space="preserve"
   id="svg2"
   version="1.1"><metadata
     id="metadata8"><rdf:RDF><cc:Work
         rdf:about=""><dc:format>image/svg+xml</dc:format><dc:type
           rdf:resource="http://purl.org/dc/dcmitype/StillImage" /><dc:title></dc:title></cc:Work></rdf:RDF></metadata><defs
     id="defs6"><clipPath
       id="clipPath18"
       clipPathUnits="userSpaceOnUse"><path
         id="path16"
         d="M 0,27.487 H 25.33 V 0 H 0 Z" /></clipPath></defs><g
     transform="matrix(1.3333333,0,0,-1.3333333,0,36.649733)"
     id="g10"><g
       id="g12"><g
         clip-path="url(#clipPath18)"
         id="g14"><g
           transform="translate(22.8297,3.8713)"
           id="g20"><path
             id="path22"
             style="fill:#000000;fill-opacity:1;fill-rule:nonzero;stroke:none"
             d="m 0,0 c 0,-0.756 -0.615,-1.371 -1.371,-1.371 h -17.588 c -0.756,0 -1.371,0.615 -1.371,1.371 v 17.589 c 0,0.756 0.615,1.37 1.371,1.37 h 2.18 v -1.22 c 0,-0.552 0.447,-1 1,-1 0.553,0 1,0.448 1,1 v 1.22 h 3.614 v -1.22 c 0,-0.552 0.448,-1 1,-1 0.553,0 1,0.448 1,1 v 1.22 h 3.614 v -1.22 c 0,-0.552 0.447,-1 1,-1 0.553,0 1,0.448 1,1 v 1.22 h 2.18 C -0.615,18.959 0,18.345 0,17.589 Z m -1.371,20.959 h -2.18 v 1.157 c 0,0.553 -0.447,1 -1,1 -0.553,0 -1,-0.447 -1,-1 v -1.157 h -3.614 v 1.157 c 0,0.553 -0.447,1 -1,1 -0.552,0 -1,-0.447 -1,-1 v -1.157 h -3.614 v 1.157 c 0,0.553 -0.447,1 -1,1 -0.553,0 -1,-0.447 -1,-1 v -1.157 h -2.18 c -1.859,0 -3.371,-1.512 -3.371,-3.37 V 0 c 0,-1.858 1.512,-3.372 3.371,-3.372 H -1.371 C 0.487,-3.372 2,-1.858 2,0 v 17.589 c 0,1.858 -1.513,3.37 -3.371,3.37" /></g><g
           transform="translate(22.8297,3.8713)"
           id="g24"><path
             id="path26"
             style="fill:none;stroke:#000000;stroke-width:1;stroke-linecap:butt;stroke-linejoin:miter;stroke-miterlimit:10;stroke-dasharray:none;stroke-opacity:1"
             d="m 0,0 c 0,-0.756 -0.615,-1.371 -1.371,-1.371 h -17.588 c -0.756,0 -1.371,0.615 -1.371,1.371 v 17.589 c 0,0.756 0.615,1.37 1.371,1.37 h 2.18 v -1.22 c 0,-0.552 0.447,-1 1,-1 0.553,0 1,0.448 1,1 v 1.22 h 3.614 v -1.22 c 0,-0.552 0.448,-1 1,-1 0.553,0 1,0.448 1,1 v 1.22 h 3.614 v -1.22 c 0,-0.552 0.447,-1 1,-1 0.553,0 1,0.448 1,1 v 1.22 h 2.18 C -0.615,18.959 0,18.345 0,17.589 Z m -1.371,20.959 h -2.18 v 1.157 c 0,0.553 -0.447,1 -1,1 -0.553,0 -1,-0.447 -1,-1 v -1.157 h -3.614 v 1.157 c 0,0.553 -0.447,1 -1,1 -0.552,0 -1,-0.447 -1,-1 v -1.157 h -3.614 v 1.157 c 0,0.553 -0.447,1 -1,1 -0.553,0 -1,-0.447 -1,-1 v -1.157 h -2.18 c -1.859,0 -3.371,-1.512 -3.371,-3.37 V 0 c 0,-1.858 1.512,-3.372 3.371,-3.372 H -1.371 C 0.487,-3.372 2,-1.858 2,0 v 17.589 c 0,1.858 -1.513,3.37 -3.371,3.37 z" /></g><g
           transform="translate(18.2789,17.091)"
           id="g28"><path
             id="path30"
             style="fill:#000000;fill-opacity:1;fill-rule:nonzero;stroke:none"
             d="m 0,0 h -11.228 c -0.553,0 -1,-0.447 -1,-1 0,-0.553 0.447,-1 1,-1 H 0 c 0.553,0 1,0.447 1,1 0,0.553 -0.447,1 -1,1" /></g><g
           transform="translate(18.2789,17.091)"
           id="g32"><path
             id="path34"
             style="fill:none;stroke:#000000;stroke-width:1;stroke-linecap:butt;stroke-linejoin:miter;stroke-miterlimit:10;stroke-dasharray:none;stroke-opacity:1"
             d="m 0,0 h -11.228 c -0.553,0 -1,-0.447 -1,-1 0,-0.553 0.447,-1 1,-1 H 0 c 0.553,0 1,0.447 1,1 0,0.553 -0.447,1 -1,1 z" /></g><g
           transform="translate(18.2789,12.9045)"
           id="g36"><path
             id="path38"
             style="fill:#000000;fill-opacity:1;fill-rule:nonzero;stroke:none"
             d="m 0,0 h -11.228 c -0.553,0 -1,-0.447 -1,-1 0,-0.553 0.447,-1 1,-1 H 0 c 0.553,0 1,0.447 1,1 0,0.553 -0.447,1 -1,1" /></g><g
           transform="translate(18.2789,12.9045)"
           id="g40"><path
             id="path42"
             style="fill:none;stroke:#000000;stroke-width:1;stroke-linecap:butt;stroke-linejoin:miter;stroke-miterlimit:10;stroke-dasharray:none;stroke-opacity:1"
             d="m 0,0 h -11.228 c -0.553,0 -1,-0.447 -1,-1 0,-0.553 0.447,-1 1,-1 H 0 c 0.553,0 1,0.447 1,1 0,0.553 -0.447,1 -1,1 z" /></g><g
           transform="translate(18.2789,8.718)"
           id="g44"><path
             id="path46"
             style="fill:#000000;fill-opacity:1;fill-rule:nonzero;stroke:none"
             d="m 0,0 h -11.228 c -0.553,0 -1,-0.447 -1,-1 0,-0.553 0.447,-1 1,-1 H 0 c 0.553,0 1,0.447 1,1 0,0.553 -0.447,1 -1,1" /></g><g
           transform="translate(18.2789,8.718)"
           id="g48"><path
             id="path50"
             style="fill:none;stroke:#000000;stroke-width:1;stroke-linecap:butt;stroke-linejoin:miter;stroke-miterlimit:10;stroke-dasharray:none;stroke-opacity:1"
             d="m 0,0 h -11.228 c -0.553,0 -1,-0.447 -1,-1 0,-0.553 0.447,-1 1,-1 H 0 c 0.553,0 1,0.447 1,1 0,0.553 -0.447,1 -1,1 z" /></g></g></g></g></svg>