<?xml version="1.0" encoding="UTF-8" standalone="no"?>
<svg
   xmlns:dc="http://purl.org/dc/elements/1.1/"
   xmlns:cc="http://creativecommons.org/ns#"
   xmlns:rdf="http://www.w3.org/1999/02/22-rdf-syntax-ns#"
   xmlns:svg="http://www.w3.org/2000/svg"
   xmlns="http://www.w3.org/2000/svg"
   viewBox="0 0 122.80227 120.13333"
   height="120.13333"
   width="122.80227"
   xml:space="preserve"
   id="svg2"
   version="1.1"><metadata
     id="metadata8"><rdf:RDF><cc:Work
         rdf:about=""><dc:format>image/svg+xml</dc:format><dc:type
           rdf:resource="http://purl.org/dc/dcmitype/StillImage" /><dc:title></dc:title></cc:Work></rdf:RDF></metadata><defs
     id="defs6"><clipPath
       id="clipPath20"
       clipPathUnits="userSpaceOnUse"><path
         id="path18"
         d="M 0,90.1 H 92.102 V 0 H 0 Z" /></clipPath></defs><g
     transform="matrix(1.3333333,0,0,-1.3333333,0,120.13333)"
     id="g10"><path
       id="path12"
       style="fill:#ffffff;fill-opacity:1;fill-rule:nonzero;stroke:none"
       d="m 26.1,73.9 h 18.2 v -3 H 26.1 Z" /><g
       id="g14"><g
         clip-path="url(#clipPath20)"
         id="g16"><g
           transform="translate(28.8998,59.2001)"
           id="g22"><path
             id="path24"
             style="fill:#24abe2;fill-opacity:1;fill-rule:nonzero;stroke:none"
             d="m 0,0 h -21.2 c -0.8,0 -1.5,-0.7 -1.5,-1.5 0,-0.8 0.7,-1.5 1.5,-1.5 H 0 c 0.8,0 1.5,0.7 1.5,1.5 C 1.5,-0.7 0.9,0 0,0" /></g><g
           transform="translate(38.3998,56.3998)"
           id="g26"><path
             id="path28"
             style="fill:#24abe2;fill-opacity:1;fill-rule:nonzero;stroke:none"
             d="M 0,0 C -0.7,0 -1.3,0.6 -1.3,1.3 -1.3,2 -0.7,2.6 0,2.6 0.7,2.6 1.3,2 1.3,1.3 1.3,0.6 0.7,0 0,0 m 0,5.7 c -2.4,0 -4.3,-2 -4.3,-4.4 0,-2.4 1.9,-4.3 4.3,-4.3 2.4,0 4.3,1.9 4.3,4.3 0,2.4 -1.9,4.4 -4.3,4.4" /></g><g
           transform="translate(7.7001,37.2001)"
           id="g30"><path
             id="path32"
             style="fill:#24abe2;fill-opacity:1;fill-rule:nonzero;stroke:none"
             d="M 0,0 H 21.2 C 22,0 22.7,0.7 22.7,1.5 22.7,2.3 22,3 21.2,3 H 0 C -0.8,3 -1.5,2.3 -1.5,1.5 -1.5,0.7 -0.8,0 0,0" /></g><g
           transform="translate(38.3998,40.1)"
           id="g34"><path
             id="path36"
             style="fill:#24abe2;fill-opacity:1;fill-rule:nonzero;stroke:none"
             d="M 0,0 C 0.7,0 1.3,-0.6 1.3,-1.3 1.3,-2 0.7,-2.6 0,-2.6 c -0.7,0 -1.3,0.5 -1.3,1.2 0,0.7 0.6,1.4 1.3,1.4 m 0,-5.7 c 2.4,0 4.3,1.9 4.3,4.3 C 4.3,1 2.4,3 0,3 -2.4,3 -4.3,1 -4.3,-1.4 c 0,-2.4 1.9,-4.3 4.3,-4.3" /></g><g
           transform="translate(7.7001,18.1996)"
           id="g38"><path
             id="path40"
             style="fill:#24abe2;fill-opacity:1;fill-rule:nonzero;stroke:none"
             d="M 0,0 H 21.2 C 22,0 22.7,0.7 22.7,1.5 22.7,2.301 22,3 21.2,3 H 0 C -0.8,3 -1.5,2.301 -1.5,1.5 -1.5,0.7 -0.8,0 0,0" /></g><g
           transform="translate(38.3998,21.1)"
           id="g42"><path
             id="path44"
             style="fill:#24abe2;fill-opacity:1;fill-rule:nonzero;stroke:none"
             d="M 0,0 C 0.7,0 1.3,-0.6 1.3,-1.3 1.3,-2 0.7,-2.6 0,-2.6 c -0.7,0 -1.3,0.5 -1.3,1.2 0,0.7 0.6,1.4 1.3,1.4 m 0,-5.7 c 2.4,0 4.3,1.9 4.3,4.3 C 4.3,1 2.4,3 0,3 -2.4,3 -4.3,1 -4.3,-1.4 c 0,-2.4 1.9,-4.3 4.3,-4.3" /></g><g
           transform="translate(75.8998,43.7001)"
           id="g46"><path
             id="path48"
             style="fill:#24abe2;fill-opacity:1;fill-rule:nonzero;stroke:none"
             d="m 0,0 h -27.5 v 2.2 c 0,0.8 -0.7,1.5 -1.5,1.5 h -4.4 v 1.6 h 4.4 c 0.8,0 1.5,0.7 1.5,1.5 v 14.4 c 0,0.8 -0.7,1.5 -1.5,1.5 h -30.5 c 0.9,0.9 2,1.7 3.2,2.3 0.5,0.3 0.9,0.9 0.8,1.5 0,0.5 -0.1,1 -0.1,1.5 0,8.5 7,15.4 15.5,15.4 6.5,0 12.3,-4 14.5,-10.1 0.201,-0.6 0.8,-1 1.4,-1 0.6,0 1.2,0.3 1.4,0.9 2.1,4.8 6.901,8 12.1,8 7.301,0 13.2,-5.9 13.2,-13.2 V 27.8 27.5 C 2.5,26.8 2.9,26.2 3.601,26 9.3,24.4 13.2,19.2 13.2,13.3 13.3,5.9 7.3,0 0,0 M -30.5,-10.7 H -72.4 V 0.7 h 41.9 z m -35.9,-3 h 30 v -1.601 h -30 z m 35.9,-16 h -41.9 v 11.399 h 41.9 z m -5.9,33.4 h -30 v 1.6 h 30 z m -36,16 h 41.9 V 8.3 H -72.4 Z M 5.601,28.5 C 5.3,37.2 -1.8,44.2 -10.6,44.2 -16,44.2 -21,41.5 -24,37.1 c -3.3,5.7 -9.4,9.3 -16.1,9.3 -10.2,0 -18.5,-8.3 -18.5,-18.5 v -0.7 c -2,-1.2 -3.6,-2.7 -4.9,-4.5 h -10.4 c -0.8,0 -1.5,-0.7 -1.5,-1.5 V 6.8 c 0,-0.8 0.7,-1.5 1.5,-1.5 h 4.4 V 3.7 h -4.4 c -0.8,0 -1.5,-0.7 -1.5,-1.5 v -14.4 c 0,-0.8 0.7,-1.5 1.5,-1.5 h 4.4 v -1.6 h -4.4 c -0.8,0 -1.5,-0.7 -1.5,-1.5 v -14.4 c 0,-0.8 0.7,-1.5 1.5,-1.5 h 20.4 v -7 h -20.4 c -1.1,0 -2,-0.9 -2,-2 0,-1.1 0.9,-2 2,-2 H -29 c 1.101,0 2,0.9 2,2 0,1.1 -0.899,2 -2,2 h -20.4 v 7 H -29 c 0.8,0 1.5,0.7 1.5,1.5 v 14.4 c 0,0.8 -0.7,1.5 -1.5,1.5 h -4.4 v 1.6 h 4.4 c 0.8,0 1.5,0.7 1.5,1.5 V -3 L 0,-3 C 9,-3 16.2,4.3 16.2,13.2 16.3,20 11.9,26.1 5.601,28.5" /></g></g></g></g></svg>