<?xml version="1.0" encoding="UTF-8" standalone="no"?>
<svg
   xmlns:dc="http://purl.org/dc/elements/1.1/"
   xmlns:cc="http://creativecommons.org/ns#"
   xmlns:rdf="http://www.w3.org/1999/02/22-rdf-syntax-ns#"
   xmlns:svg="http://www.w3.org/2000/svg"
   xmlns="http://www.w3.org/2000/svg"
   viewBox="0 0 122.66667 125.33333"
   height="125.33333"
   width="122.66667"
   xml:space="preserve"
   id="svg2"
   version="1.1"><metadata
     id="metadata8"><rdf:RDF><cc:Work
         rdf:about=""><dc:format>image/svg+xml</dc:format><dc:type
           rdf:resource="http://purl.org/dc/dcmitype/StillImage" /><dc:title></dc:title></cc:Work></rdf:RDF></metadata><defs
     id="defs6"><clipPath
       id="clipPath18"
       clipPathUnits="userSpaceOnUse"><path
         id="path16"
         d="M 0,94 H 92 V 0 H 0 Z" /></clipPath></defs><g
     transform="matrix(1.3333333,0,0,-1.3333333,0,125.33333)"
     id="g10"><g
       id="g12"><g
         clip-path="url(#clipPath18)"
         id="g14"><path
           id="path20"
           style="fill:#000000;fill-opacity:1;fill-rule:nonzero;stroke:none"
           d="M 49,45 H 79 V 7 H 49 Z M 13,45 H 43 V 7 H 13 Z M 49,63 H 85 V 51 H 49 Z M 7,63 H 43 V 51 H 7 Z m 51,24 c 5.006,0 9,-3.994 9,-9 0,-5.006 -3.994,-9 -9,-9 h -9 v 9 c 0,5.006 3.994,9 9,9 m -24,0 c 5.006,0 9,-3.994 9,-9 v -9 h -9 c -5.006,0 -9,3.994 -9,9 0,5.006 3.994,9 9,9 m 0,6 c -8.249,0 -15,-6.751 -15,-15 0,-3.371 1.135,-6.488 3.031,-9 H 4 C 2.429,69 1,67.571 1,66 V 48 C 1,46.429 2.429,45 4,45 H 7 V 4 C 7,2.43 8.429,1 10,1 h 72 c 1.57,0 3,1.43 3,3 v 41 h 3 c 1.57,0 3,1.429 3,3 v 18 c 0,1.571 -1.43,3 -3,3 H 69.969 C 71.865,71.512 73,74.629 73,78 73,86.249 66.249,93 58,93 53.106,93 48.742,90.592 46,86.938 43.257,90.592 38.893,93 34,93" /><path
           id="path22"
           style="fill:none;stroke:#000000;stroke-width:2;stroke-linecap:butt;stroke-linejoin:miter;stroke-miterlimit:10;stroke-dasharray:none;stroke-opacity:1"
           d="M 49,45 H 79 V 7 H 49 Z M 13,45 H 43 V 7 H 13 Z M 49,63 H 85 V 51 H 49 Z M 7,63 H 43 V 51 H 7 Z m 51,24 c 5.006,0 9,-3.994 9,-9 0,-5.006 -3.994,-9 -9,-9 h -9 v 9 c 0,5.006 3.994,9 9,9 z m -24,0 c 5.006,0 9,-3.994 9,-9 v -9 h -9 c -5.006,0 -9,3.994 -9,9 0,5.006 3.994,9 9,9 z m 0,6 c -8.249,0 -15,-6.751 -15,-15 0,-3.371 1.135,-6.488 3.031,-9 H 4 C 2.429,69 1,67.571 1,66 V 48 C 1,46.429 2.429,45 4,45 H 7 V 4 C 7,2.43 8.429,1 10,1 h 72 c 1.57,0 3,1.43 3,3 v 41 h 3 c 1.57,0 3,1.429 3,3 v 18 c 0,1.571 -1.43,3 -3,3 H 69.969 C 71.865,71.512 73,74.629 73,78 73,86.249 66.249,93 58,93 53.106,93 48.742,90.592 46,86.938 43.257,90.592 38.893,93 34,93 Z" /></g></g></g></svg>