<?xml version="1.0" encoding="UTF-8" standalone="no"?>
<svg
   xmlns:dc="http://purl.org/dc/elements/1.1/"
   xmlns:cc="http://creativecommons.org/ns#"
   xmlns:rdf="http://www.w3.org/1999/02/22-rdf-syntax-ns#"
   xmlns:svg="http://www.w3.org/2000/svg"
   xmlns="http://www.w3.org/2000/svg"
   viewBox="0 0 33.333332 38.386665"
   height="38.386665"
   width="33.333332"
   xml:space="preserve"
   id="svg2"
   version="1.1"><metadata
     id="metadata8"><rdf:RDF><cc:Work
         rdf:about=""><dc:format>image/svg+xml</dc:format><dc:type
           rdf:resource="http://purl.org/dc/dcmitype/StillImage" /><dc:title></dc:title></cc:Work></rdf:RDF></metadata><defs
     id="defs6" /><g
     transform="matrix(1.3333333,0,0,-1.3333333,1.3333333e-4,38.386799)"
     id="g10"><path
       id="path12"
       style="fill:#000000;fill-opacity:1;fill-rule:nonzero;stroke:none"
       d="m 6,9 h 3 v 1 H 6 Z" /><path
       id="path14"
       style="fill:#000000;fill-opacity:1;fill-rule:nonzero;stroke:none"
       d="m 6,12 h 3 v 1 H 6 Z" /><path
       id="path16"
       style="fill:#000000;fill-opacity:1;fill-rule:nonzero;stroke:none"
       d="m 6,15 h 3 v 1 H 6 Z" /><path
       id="path18"
       style="fill:#000000;fill-opacity:1;fill-rule:nonzero;stroke:none"
       d="M 6,6 H 9 V 7 H 6 Z" /><path
       id="path20"
       style="fill:#000000;fill-opacity:1;fill-rule:nonzero;stroke:none"
       d="M 6,3 H 9 V 4 H 6 Z" /><path
       id="path22"
       style="fill:#000000;fill-opacity:1;fill-rule:nonzero;stroke:none"
       d="m 10,6 h 2 v 1 h -2 z" /><path
       id="path24"
       style="fill:#000000;fill-opacity:1;fill-rule:nonzero;stroke:none"
       d="m 10,15 h 2 v 1 h -2 z" /><path
       id="path26"
       style="fill:#000000;fill-opacity:1;fill-rule:nonzero;stroke:none"
       d="m 10,12 h 2 v 1 h -2 z" /><path
       id="path28"
       style="fill:#000000;fill-opacity:1;fill-rule:nonzero;stroke:none"
       d="m 10,3 h 2 v 1 h -2 z" /><path
       id="path30"
       style="fill:#000000;fill-opacity:1;fill-rule:nonzero;stroke:none"
       d="m 10,9 h 2 v 1 h -2 z" /><path
       id="path32"
       style="fill:#000000;fill-opacity:1;fill-rule:nonzero;stroke:none"
       d="m 3,15 h 2.001 v 1 H 3 Z" /><path
       id="path34"
       style="fill:#000000;fill-opacity:1;fill-rule:nonzero;stroke:none"
       d="m 19,3 h 3 v 1 h -3 z" /><path
       id="path36"
       style="fill:#000000;fill-opacity:1;fill-rule:nonzero;stroke:none"
       d="m 15,6 h 3 v 1 h -3 z" /><path
       id="path38"
       style="fill:#000000;fill-opacity:1;fill-rule:nonzero;stroke:none"
       d="m 15,12 h 3 v 1 h -3 z" /><path
       id="path40"
       style="fill:#000000;fill-opacity:1;fill-rule:nonzero;stroke:none"
       d="m 15,9 h 3 v 1 h -3 z" /><path
       id="path42"
       style="fill:#000000;fill-opacity:1;fill-rule:nonzero;stroke:none"
       d="m 3,12 h 2.001 v 1 H 3 Z" /><g
       transform="translate(0.9999,28.7901)"
       id="g44"><path
         id="path46"
         style="fill:#000000;fill-opacity:1;fill-rule:nonzero;stroke:none"
         d="m 0,0 v -27.79 h -1 v -1 h 25 v 1 h -1 v 10.933 l -9.999,5.714 v 3.714 z M 1,-1.723 12,-8.009 V -27.79 H 1 Z m 12.001,-10.572 9,-5.142 V -27.79 h -9 z" /></g><path
       id="path48"
       style="fill:#000000;fill-opacity:1;fill-rule:nonzero;stroke:none"
       d="m 15,3 h 3 v 1 h -3 z" /><path
       id="path50"
       style="fill:#000000;fill-opacity:1;fill-rule:nonzero;stroke:none"
       d="M 3,3 H 5.001 V 4 H 3 Z" /><path
       id="path52"
       style="fill:#000000;fill-opacity:1;fill-rule:nonzero;stroke:none"
       d="M 3,6 H 5.001 V 7 H 3 Z" /><path
       id="path54"
       style="fill:#000000;fill-opacity:1;fill-rule:nonzero;stroke:none"
       d="m 19,6 h 3 v 1 h -3 z" /><path
       id="path56"
       style="fill:#000000;fill-opacity:1;fill-rule:nonzero;stroke:none"
       d="m 3,9 h 2.001 v 1 H 3 Z" /><path
       id="path58"
       style="fill:#000000;fill-opacity:1;fill-rule:nonzero;stroke:none"
       d="m 19,9 h 3 v 1 h -3 z" /><path
       id="path60"
       style="fill:#231f20;fill-opacity:1;fill-rule:nonzero;stroke:none"
       d="m 3.982,17.574 h 1.407 v 3.612 H 3.982 Z" /><path
       id="path62"
       style="fill:#25a9e0;fill-opacity:1;fill-rule:nonzero;stroke:none"
       d="M 6.797,17.573 H 7.641 V 19.38 H 6.797 Z" /><path
       id="path64"
       style="fill:#ec1c24;fill-opacity:1;fill-rule:nonzero;stroke:none"
       d="m 5.671,17.573 h 0.844 v 3.613 H 5.671 Z" /><path
       id="path66"
       style="fill:#231f20;fill-opacity:1;fill-rule:nonzero;stroke:none"
       d="m 8.485,17.574 h 1.407 v 3.612 H 8.485 Z" /><path
       id="path68"
       style="fill:#25a9e0;fill-opacity:1;fill-rule:nonzero;stroke:none"
       d="m 10.174,17.574 h 0.844 v 2.964 h -0.844 z" /></g></svg>