<svg xmlns="http://www.w3.org/2000/svg" viewBox="0 0 48 64" height="64" width="48"><defs><clipPath id="a"><path d="M0 48h36V0H0z"/></clipPath></defs><g clip-path="url(#a)" transform="matrix(1.33333 0 0 -1.33333 0 64)" fill="#24abe2"><path d="M8 39h20v4h-6.525c-.751 0-1.393.547-1.493 1.273A2.006 2.006 0 0 1 18 46a2.003 2.003 0 0 1-1.98-1.726c-.101-.727-.743-1.274-1.494-1.274H8zm22-2H6v6c0 1.103.897 2 2 2h6.127c.449 1.739 2.04 3 3.873 3a4.017 4.017 0 0 0 3.874-3H28c1.103 0 2-.897 2-2z"/><path d="M36 0H0v42h7v-2H2V2h32v38h-4.999v2H36z"/><path d="M5 33h4v-2H5zm8 0h18v-2H13zm-8-6h4v-2H5zm8 0h18v-2H13zm-8-6h4v-2H5zm8 0h18v-2H13zm-8-6h4v-2H5zm8 0h18v-2H13zM5 9h4V7H5zm8 0h18V7H13z"/></g></svg>