<?xml version="1.0" encoding="UTF-8" standalone="no"?>
<svg
   xmlns:dc="http://purl.org/dc/elements/1.1/"
   xmlns:cc="http://creativecommons.org/ns#"
   xmlns:rdf="http://www.w3.org/1999/02/22-rdf-syntax-ns#"
   xmlns:svg="http://www.w3.org/2000/svg"
   xmlns="http://www.w3.org/2000/svg"
   viewBox="0 0 26 18"
   height="18"
   width="26"
   xml:space="preserve"
   id="svg2"
   version="1.1"><metadata
     id="metadata8"><rdf:RDF><cc:Work
         rdf:about=""><dc:format>image/svg+xml</dc:format><dc:type
           rdf:resource="http://purl.org/dc/dcmitype/StillImage" /><dc:title></dc:title></cc:Work></rdf:RDF></metadata><defs
     id="defs6"><clipPath
       id="clipPath18"
       clipPathUnits="userSpaceOnUse"><path
         id="path16"
         d="M 0,13.5 H 19.5 V 0 H 0 Z" /></clipPath></defs><g
     transform="matrix(1.3333333,0,0,-1.3333333,0,18)"
     id="g10"><g
       id="g12"><g
         clip-path="url(#clipPath18)"
         id="g14"><g
           transform="translate(18,2.4043)"
           id="g20"><path
             id="path22"
             style="fill:#000000;fill-opacity:1;fill-rule:nonzero;stroke:none"
             d="M 0,0 -5.033,4.346 0,8.692 Z m -15.224,-0.904 4.978,4.283 1.996,-1.796 1.996,1.796 4.978,-4.283 z M -16.5,0 v 8.692 l 5.032,-4.346 z M -1.274,9.596 -8.25,3.617 -15.226,9.596 Z M 1.5,8.346 c 0,1.568 -1.183,2.75 -2.75,2.75 h -14 c -1.568,0 -2.75,-1.182 -2.75,-2.75 v -8 c 0,-1.568 1.182,-2.75 2.75,-2.75 h 14 c 1.567,0 2.75,1.182 2.75,2.75 z" /></g></g></g></g></svg>