<?xml version="1.0" encoding="UTF-8" standalone="no"?>
<svg
   xmlns:dc="http://purl.org/dc/elements/1.1/"
   xmlns:cc="http://creativecommons.org/ns#"
   xmlns:rdf="http://www.w3.org/1999/02/22-rdf-syntax-ns#"
   xmlns:svg="http://www.w3.org/2000/svg"
   xmlns="http://www.w3.org/2000/svg"
   viewBox="0 0 74.400002 88"
   height="88"
   width="74.400002"
   xml:space="preserve"
   id="svg2"
   version="1.1"><metadata
     id="metadata8"><rdf:RDF><cc:Work
         rdf:about=""><dc:format>image/svg+xml</dc:format><dc:type
           rdf:resource="http://purl.org/dc/dcmitype/StillImage" /><dc:title></dc:title></cc:Work></rdf:RDF></metadata><defs
     id="defs6"><clipPath
       id="clipPath20"
       clipPathUnits="userSpaceOnUse"><path
         id="path18"
         d="M 0,66 H 55.8 V 0 H 0 Z" /></clipPath><clipPath
       id="clipPath40"
       clipPathUnits="userSpaceOnUse"><path
         id="path38"
         d="M 0,66 H 55.8 V 0 H 0 Z" /></clipPath></defs><g
     transform="matrix(1.3333333,0,0,-1.3333333,0,88)"
     id="g10"><path
       id="path12"
       style="fill:#000000;fill-opacity:1;fill-rule:nonzero;stroke:none"
       d="m 0.25,52.85 h 55.3 v 12.9 H 0.25 Z m 1.5,11.4 h 52.299 v -10 H 54.15 1.75 Z" /><g
       id="g14"><g
         clip-path="url(#clipPath20)"
         id="g16"><g
           transform="translate(54.1502,54.2498)"
           id="g22"><path
             id="path24"
             style="fill:none;stroke:#000000;stroke-width:0.5;stroke-linecap:butt;stroke-linejoin:miter;stroke-miterlimit:10;stroke-dasharray:none;stroke-opacity:1"
             d="M 0,0 H -52.4 V 10 H -0.101 V 0 Z M -53.9,-1.4 H 1.4 v 12.9 h -55.3 z" /></g></g></g><path
       id="path26"
       style="fill:#000000;fill-opacity:1;fill-rule:nonzero;stroke:#000000;stroke-width:0.5;stroke-linecap:butt;stroke-linejoin:miter;stroke-miterlimit:10;stroke-dasharray:none;stroke-opacity:1"
       d="m 44.55,59.95 h 1.5 v -1.5 h -1.5 z" /><path
       id="path28"
       style="fill:#000000;fill-opacity:1;fill-rule:nonzero;stroke:#000000;stroke-width:0.5;stroke-linecap:butt;stroke-linejoin:miter;stroke-miterlimit:10;stroke-dasharray:none;stroke-opacity:1"
       d="m 47.85,59.95 h 1.5 v -1.5 h -1.5 z" /><path
       id="path30"
       style="fill:#000000;fill-opacity:1;fill-rule:nonzero;stroke:#000000;stroke-width:0.5;stroke-linecap:butt;stroke-linejoin:miter;stroke-miterlimit:10;stroke-dasharray:none;stroke-opacity:1"
       d="m 41.25,59.95 h 1.5 v -1.5 h -1.5 z" /><path
       id="path32"
       style="fill:#000000;fill-opacity:1;fill-rule:nonzero;stroke:#000000;stroke-width:0.5;stroke-linecap:butt;stroke-linejoin:miter;stroke-miterlimit:10;stroke-dasharray:none;stroke-opacity:1"
       d="m 26.15,59.95 h 11.899 v -1.5 H 26.15 Z" /><g
       id="g34"><g
         clip-path="url(#clipPath40)"
         id="g36"><g
           transform="translate(8.45,60.8499)"
           id="g42"><path
             id="path44"
             style="fill:#000000;fill-opacity:1;fill-rule:nonzero;stroke:none"
             d="m 0,0 c 0.9,0 1.6,-0.7 1.6,-1.6 0,-0.9 -0.7,-1.7 -1.6,-1.7 -0.9,0 -1.6,0.7 -1.6,1.6 0,0.9 0.7,1.7 1.6,1.7 m 0,-4.8 c 1.7,0 3.1,1.4 3.1,3.1 C 3.1,0 1.7,1.4 0,1.4 -1.7,1.4 -3.1,0 -3.1,-1.7 c 0,-1.7 1.4,-3.1 3.1,-3.1" /></g><g
           transform="translate(8.45,60.8499)"
           id="g46"><path
             id="path48"
             style="fill:none;stroke:#000000;stroke-width:0.5;stroke-linecap:butt;stroke-linejoin:miter;stroke-miterlimit:10;stroke-dasharray:none;stroke-opacity:1"
             d="m 0,0 c 0.9,0 1.6,-0.7 1.6,-1.6 0,-0.9 -0.7,-1.7 -1.6,-1.7 -0.9,0 -1.6,0.7 -1.6,1.6 0,0.9 0.7,1.7 1.6,1.7 z m 0,-4.8 c 1.7,0 3.1,1.4 3.1,3.1 C 3.1,0 1.7,1.4 0,1.4 -1.7,1.4 -3.1,0 -3.1,-1.7 c 0,-1.7 1.4,-3.1 3.1,-3.1 z" /></g><g
           transform="translate(17.2498,60.8499)"
           id="g50"><path
             id="path52"
             style="fill:#000000;fill-opacity:1;fill-rule:nonzero;stroke:none"
             d="m 0,0 c 0.9,0 1.6,-0.7 1.6,-1.6 0,-0.9 -0.7,-1.6 -1.6,-1.6 -0.9,0 -1.6,0.7 -1.6,1.6 0,0.9 0.7,1.6 1.6,1.6 m 0,-4.8 c 1.7,0 3.1,1.4 3.1,3.1 C 3.1,0 1.7,1.4 0,1.4 -1.7,1.4 -3.1,0 -3.1,-1.7 c 0,-1.7 1.4,-3.1 3.1,-3.1" /></g><g
           transform="translate(17.2498,60.8499)"
           id="g54"><path
             id="path56"
             style="fill:none;stroke:#000000;stroke-width:0.5;stroke-linecap:butt;stroke-linejoin:miter;stroke-miterlimit:10;stroke-dasharray:none;stroke-opacity:1"
             d="m 0,0 c 0.9,0 1.6,-0.7 1.6,-1.6 0,-0.9 -0.7,-1.6 -1.6,-1.6 -0.9,0 -1.6,0.7 -1.6,1.6 0,0.9 0.7,1.6 1.6,1.6 z m 0,-4.8 c 1.7,0 3.1,1.4 3.1,3.1 C 3.1,0 1.7,1.4 0,1.4 -1.7,1.4 -3.1,0 -3.1,-1.7 c 0,-1.7 1.4,-3.1 3.1,-3.1 z" /></g><path
           id="path58"
           style="fill:#000000;fill-opacity:1;fill-rule:nonzero;stroke:#000000;stroke-width:0.5;stroke-linecap:butt;stroke-linejoin:miter;stroke-miterlimit:10;stroke-dasharray:none;stroke-opacity:1"
           d="m 1.75,48.55 h 52.3 v -9.9 H 1.75 Z m -1.5,-11.5 h 55.3 v 13 H 0.25 Z" /><path
           id="path60"
           style="fill:#000000;fill-opacity:1;fill-rule:nonzero;stroke:#000000;stroke-width:0.5;stroke-linecap:butt;stroke-linejoin:miter;stroke-miterlimit:10;stroke-dasharray:none;stroke-opacity:1"
           d="m 44.55,44.35 h 1.5 v -1.5 h -1.5 z" /><path
           id="path62"
           style="fill:#000000;fill-opacity:1;fill-rule:nonzero;stroke:#000000;stroke-width:0.5;stroke-linecap:butt;stroke-linejoin:miter;stroke-miterlimit:10;stroke-dasharray:none;stroke-opacity:1"
           d="m 47.85,44.35 h 1.5 v -1.5 h -1.5 z" /><path
           id="path64"
           style="fill:#000000;fill-opacity:1;fill-rule:nonzero;stroke:#000000;stroke-width:0.5;stroke-linecap:butt;stroke-linejoin:miter;stroke-miterlimit:10;stroke-dasharray:none;stroke-opacity:1"
           d="m 41.25,44.35 h 1.5 v -1.5 h -1.5 z" /><path
           id="path66"
           style="fill:#000000;fill-opacity:1;fill-rule:nonzero;stroke:#000000;stroke-width:0.5;stroke-linecap:butt;stroke-linejoin:miter;stroke-miterlimit:10;stroke-dasharray:none;stroke-opacity:1"
           d="m 26.15,44.35 h 11.899 v -1.5 H 26.15 Z" /><g
           transform="translate(8.45,41.95)"
           id="g68"><path
             id="path70"
             style="fill:#000000;fill-opacity:1;fill-rule:nonzero;stroke:none"
             d="M 0,0 C -0.9,0 -1.6,0.7 -1.6,1.6 -1.6,2.5 -0.9,3.2 0,3.2 0.9,3.2 1.6,2.5 1.6,1.6 1.6,0.7 0.9,0 0,0 m 0,4.7 c -1.7,0 -3.1,-1.4 -3.1,-3.1 0,-1.7 1.4,-3.1 3.1,-3.1 1.7,0 3.1,1.4 3.1,3.1 C 3.2,3.3 1.7,4.7 0,4.7" /></g><g
           transform="translate(8.45,41.95)"
           id="g72"><path
             id="path74"
             style="fill:none;stroke:#000000;stroke-width:0.5;stroke-linecap:butt;stroke-linejoin:miter;stroke-miterlimit:10;stroke-dasharray:none;stroke-opacity:1"
             d="M 0,0 C -0.9,0 -1.6,0.7 -1.6,1.6 -1.6,2.5 -0.9,3.2 0,3.2 0.9,3.2 1.6,2.5 1.6,1.6 1.6,0.7 0.9,0 0,0 Z m 0,4.7 c -1.7,0 -3.1,-1.4 -3.1,-3.1 0,-1.7 1.4,-3.1 3.1,-3.1 1.7,0 3.1,1.4 3.1,3.1 C 3.2,3.3 1.7,4.7 0,4.7 Z" /></g><g
           transform="translate(17.2498,41.95)"
           id="g76"><path
             id="path78"
             style="fill:#000000;fill-opacity:1;fill-rule:nonzero;stroke:none"
             d="M 0,0 C -0.9,0 -1.6,0.7 -1.6,1.6 -1.6,2.5 -0.9,3.2 0,3.2 0.9,3.2 1.6,2.5 1.6,1.6 1.6,0.7 0.9,0 0,0 m 0,4.7 c -1.7,0 -3.1,-1.4 -3.1,-3.1 0,-1.7 1.4,-3.1 3.1,-3.1 1.7,0 3.1,1.4 3.1,3.1 0,1.7 -1.4,3.1 -3.1,3.1" /></g><g
           transform="translate(17.2498,41.95)"
           id="g80"><path
             id="path82"
             style="fill:none;stroke:#000000;stroke-width:0.5;stroke-linecap:butt;stroke-linejoin:miter;stroke-miterlimit:10;stroke-dasharray:none;stroke-opacity:1"
             d="M 0,0 C -0.9,0 -1.6,0.7 -1.6,1.6 -1.6,2.5 -0.9,3.2 0,3.2 0.9,3.2 1.6,2.5 1.6,1.6 1.6,0.7 0.9,0 0,0 Z m 0,4.7 c -1.7,0 -3.1,-1.4 -3.1,-3.1 0,-1.7 1.4,-3.1 3.1,-3.1 1.7,0 3.1,1.4 3.1,3.1 0,1.7 -1.4,3.1 -3.1,3.1 z" /></g><path
           id="path84"
           style="fill:#000000;fill-opacity:1;fill-rule:nonzero;stroke:#000000;stroke-width:0.5;stroke-linecap:butt;stroke-linejoin:miter;stroke-miterlimit:10;stroke-dasharray:none;stroke-opacity:1"
           d="m 1.75,32.85 h 52.3 v -9.9 H 1.75 Z m -1.5,-11.4 h 55.3 v 12.9 H 0.25 Z" /><path
           id="path86"
           style="fill:#000000;fill-opacity:1;fill-rule:nonzero;stroke:#000000;stroke-width:0.5;stroke-linecap:butt;stroke-linejoin:miter;stroke-miterlimit:10;stroke-dasharray:none;stroke-opacity:1"
           d="m 47.85,28.65 h 1.5 v -1.5 h -1.5 z" /><path
           id="path88"
           style="fill:#000000;fill-opacity:1;fill-rule:nonzero;stroke:#000000;stroke-width:0.5;stroke-linecap:butt;stroke-linejoin:miter;stroke-miterlimit:10;stroke-dasharray:none;stroke-opacity:1"
           d="m 44.55,28.65 h 1.5 v -1.5 h -1.5 z" /><path
           id="path90"
           style="fill:#000000;fill-opacity:1;fill-rule:nonzero;stroke:#000000;stroke-width:0.5;stroke-linecap:butt;stroke-linejoin:miter;stroke-miterlimit:10;stroke-dasharray:none;stroke-opacity:1"
           d="m 41.25,28.65 h 1.5 v -1.5 h -1.5 z" /><path
           id="path92"
           style="fill:#000000;fill-opacity:1;fill-rule:nonzero;stroke:#000000;stroke-width:0.5;stroke-linecap:butt;stroke-linejoin:miter;stroke-miterlimit:10;stroke-dasharray:none;stroke-opacity:1"
           d="m 26.15,28.65 h 11.899 v -1.5 H 26.15 Z" /><g
           transform="translate(8.45,26.2498)"
           id="g94"><path
             id="path96"
             style="fill:#000000;fill-opacity:1;fill-rule:nonzero;stroke:none"
             d="M 0,0 C -0.9,0 -1.6,0.7 -1.6,1.6 -1.6,2.5 -0.9,3.2 0,3.2 0.9,3.2 1.6,2.5 1.6,1.6 1.6,0.7 0.9,0 0,0 M 0,4.8 C -1.7,4.8 -3.1,3.4 -3.1,1.7 -3.1,0 -1.7,-1.4 0,-1.4 1.7,-1.4 3.1,0 3.1,1.7 3.2,3.4 1.7,4.8 0,4.8" /></g><g
           transform="translate(8.45,26.2498)"
           id="g98"><path
             id="path100"
             style="fill:none;stroke:#000000;stroke-width:0.5;stroke-linecap:butt;stroke-linejoin:miter;stroke-miterlimit:10;stroke-dasharray:none;stroke-opacity:1"
             d="M 0,0 C -0.9,0 -1.6,0.7 -1.6,1.6 -1.6,2.5 -0.9,3.2 0,3.2 0.9,3.2 1.6,2.5 1.6,1.6 1.6,0.7 0.9,0 0,0 Z M 0,4.8 C -1.7,4.8 -3.1,3.4 -3.1,1.7 -3.1,0 -1.7,-1.4 0,-1.4 1.7,-1.4 3.1,0 3.1,1.7 3.2,3.4 1.7,4.8 0,4.8 Z" /></g><g
           transform="translate(17.2498,26.2498)"
           id="g102"><path
             id="path104"
             style="fill:#000000;fill-opacity:1;fill-rule:nonzero;stroke:none"
             d="M 0,0 C -0.9,0 -1.6,0.7 -1.6,1.6 -1.6,2.5 -0.9,3.2 0,3.2 0.9,3.2 1.6,2.5 1.6,1.6 1.6,0.7 0.9,0 0,0 M 0,4.8 C -1.7,4.8 -3.1,3.4 -3.1,1.7 -3.1,0 -1.7,-1.4 0,-1.4 1.7,-1.4 3.1,0 3.1,1.7 3.1,3.4 1.7,4.8 0,4.8" /></g><g
           transform="translate(17.2498,26.2498)"
           id="g106"><path
             id="path108"
             style="fill:none;stroke:#000000;stroke-width:0.5;stroke-linecap:butt;stroke-linejoin:miter;stroke-miterlimit:10;stroke-dasharray:none;stroke-opacity:1"
             d="M 0,0 C -0.9,0 -1.6,0.7 -1.6,1.6 -1.6,2.5 -0.9,3.2 0,3.2 0.9,3.2 1.6,2.5 1.6,1.6 1.6,0.7 0.9,0 0,0 Z M 0,4.8 C -1.7,4.8 -3.1,3.4 -3.1,1.7 -3.1,0 -1.7,-1.4 0,-1.4 1.7,-1.4 3.1,0 3.1,1.7 3.1,3.4 1.7,4.8 0,4.8 Z" /></g><path
           id="path110"
           style="fill:#000000;fill-opacity:1;fill-rule:nonzero;stroke:none"
           d="m 1.75,17.15 h 52.3 V 7.25 H 1.75 Z M 0.25,5.75 h 7.9 v -4 h -3.6 v -1.5 h 8.7 v 1.5 h -3.6 v 4 h 36.5 v -4 h -3.6 v -1.5 h 8.7 v 1.5 h -3.6 v 4 h 7.9 v 12.9 H 0.25 Z" /><path
           id="path112"
           style="fill:none;stroke:#000000;stroke-width:0.5;stroke-linecap:butt;stroke-linejoin:miter;stroke-miterlimit:10;stroke-dasharray:none;stroke-opacity:1"
           d="m 1.75,17.15 h 52.3 V 7.25 H 1.75 Z M 0.25,5.75 h 7.9 v -4 h -3.6 v -1.5 h 8.7 v 1.5 h -3.6 v 4 h 36.5 v -4 h -3.6 v -1.5 h 8.7 v 1.5 h -3.6 v 4 h 7.9 v 12.9 H 0.25 Z" /><path
           id="path114"
           style="fill:#000000;fill-opacity:1;fill-rule:nonzero;stroke:#000000;stroke-width:0.5;stroke-linecap:butt;stroke-linejoin:miter;stroke-miterlimit:10;stroke-dasharray:none;stroke-opacity:1"
           d="m 47.85,12.95 h 1.5 v -1.5 h -1.5 z" /><path
           id="path116"
           style="fill:#000000;fill-opacity:1;fill-rule:nonzero;stroke:#000000;stroke-width:0.5;stroke-linecap:butt;stroke-linejoin:miter;stroke-miterlimit:10;stroke-dasharray:none;stroke-opacity:1"
           d="m 44.55,12.95 h 1.5 v -1.5 h -1.5 z" /><path
           id="path118"
           style="fill:#000000;fill-opacity:1;fill-rule:nonzero;stroke:#000000;stroke-width:0.5;stroke-linecap:butt;stroke-linejoin:miter;stroke-miterlimit:10;stroke-dasharray:none;stroke-opacity:1"
           d="m 41.25,12.95 h 1.5 v -1.5 h -1.5 z" /><path
           id="path120"
           style="fill:#000000;fill-opacity:1;fill-rule:nonzero;stroke:#000000;stroke-width:0.5;stroke-linecap:butt;stroke-linejoin:miter;stroke-miterlimit:10;stroke-dasharray:none;stroke-opacity:1"
           d="m 26.15,12.95 h 11.899 v -1.5 H 26.15 Z" /><g
           transform="translate(8.45,10.5496)"
           id="g122"><path
             id="path124"
             style="fill:#000000;fill-opacity:1;fill-rule:nonzero;stroke:none"
             d="M 0,0 C -0.9,0 -1.6,0.7 -1.6,1.601 -1.6,2.5 -0.9,3.2 0,3.2 0.9,3.2 1.6,2.5 1.6,1.601 1.6,0.7 0.9,0 0,0 M 0,4.801 C -1.7,4.801 -3.1,3.4 -3.1,1.7 -3.1,0 -1.7,-1.399 0,-1.399 1.7,-1.399 3.1,0 3.1,1.7 3.2,3.4 1.7,4.801 0,4.801" /></g><g
           transform="translate(8.45,10.5496)"
           id="g126"><path
             id="path128"
             style="fill:none;stroke:#000000;stroke-width:0.5;stroke-linecap:butt;stroke-linejoin:miter;stroke-miterlimit:10;stroke-dasharray:none;stroke-opacity:1"
             d="M 0,0 C -0.9,0 -1.6,0.7 -1.6,1.601 -1.6,2.5 -0.9,3.2 0,3.2 0.9,3.2 1.6,2.5 1.6,1.601 1.6,0.7 0.9,0 0,0 Z M 0,4.801 C -1.7,4.801 -3.1,3.4 -3.1,1.7 -3.1,0 -1.7,-1.399 0,-1.399 1.7,-1.399 3.1,0 3.1,1.7 3.2,3.4 1.7,4.801 0,4.801 Z" /></g><g
           transform="translate(17.2498,10.5496)"
           id="g130"><path
             id="path132"
             style="fill:#000000;fill-opacity:1;fill-rule:nonzero;stroke:none"
             d="M 0,0 C -0.9,0 -1.6,0.7 -1.6,1.601 -1.6,2.5 -0.9,3.2 0,3.2 0.9,3.2 1.6,2.5 1.6,1.601 1.6,0.7 0.9,0 0,0 M 0,4.801 C -1.7,4.801 -3.1,3.4 -3.1,1.7 -3.1,0 -1.7,-1.399 0,-1.399 1.7,-1.399 3.1,0 3.1,1.7 3.1,3.4 1.7,4.801 0,4.801" /></g><g
           transform="translate(17.2498,10.5496)"
           id="g134"><path
             id="path136"
             style="fill:none;stroke:#000000;stroke-width:0.5;stroke-linecap:butt;stroke-linejoin:miter;stroke-miterlimit:10;stroke-dasharray:none;stroke-opacity:1"
             d="M 0,0 C -0.9,0 -1.6,0.7 -1.6,1.601 -1.6,2.5 -0.9,3.2 0,3.2 0.9,3.2 1.6,2.5 1.6,1.601 1.6,0.7 0.9,0 0,0 Z M 0,4.801 C -1.7,4.801 -3.1,3.4 -3.1,1.7 -3.1,0 -1.7,-1.399 0,-1.399 1.7,-1.399 3.1,0 3.1,1.7 3.1,3.4 1.7,4.801 0,4.801 Z" /></g><path
           id="path138"
           style="fill:#000000;fill-opacity:1;fill-rule:nonzero;stroke:#000000;stroke-width:0.5;stroke-linecap:butt;stroke-linejoin:miter;stroke-miterlimit:10;stroke-dasharray:none;stroke-opacity:1"
           d="m 17.05,1.75 h 21.7 v -1.5 h -21.7 z" /></g></g></g></svg>