<?xml version="1.0" encoding="UTF-8" standalone="no"?>
<svg
   xmlns:dc="http://purl.org/dc/elements/1.1/"
   xmlns:cc="http://creativecommons.org/ns#"
   xmlns:rdf="http://www.w3.org/1999/02/22-rdf-syntax-ns#"
   xmlns:svg="http://www.w3.org/2000/svg"
   xmlns="http://www.w3.org/2000/svg"
   viewBox="0 0 79.73333 80.26667"
   height="80.26667"
   width="79.73333"
   xml:space="preserve"
   id="svg2"
   version="1.1"><metadata
     id="metadata8"><rdf:RDF><cc:Work
         rdf:about=""><dc:format>image/svg+xml</dc:format><dc:type
           rdf:resource="http://purl.org/dc/dcmitype/StillImage" /><dc:title></dc:title></cc:Work></rdf:RDF></metadata><defs
     id="defs6"><clipPath
       id="clipPath18"
       clipPathUnits="userSpaceOnUse"><path
         id="path16"
         d="M 0,60.2 H 59.8 V 0 H 0 Z" /></clipPath></defs><g
     transform="matrix(1.3333333,0,0,-1.3333333,0,80.266667)"
     id="g10"><g
       style="fill:#24abe2;fill-opacity:1"
       id="g12"><g
         style="fill:#24abe2;fill-opacity:1"
         clip-path="url(#clipPath18)"
         id="g14"><g
           style="fill:#24abe2;fill-opacity:1"
           transform="translate(3.0001,11.6996)"
           id="g20"><path
             id="path22"
             style="fill:#24abe2;fill-opacity:1;fill-rule:nonzero;stroke:none"
             d="m 0,0 8.5,-8.5 c 2.1,-2.1 4.8,-3.199 7.8,-3.199 3,0 5.7,1.099 7.8,3.199 l 12,12 -4.2,4.2 -12,-12 c -0.9,-0.899 -2.2,-1.5 -3.5,-1.5 -1.3,0 -2.6,0.5 -3.5,1.5 L 4.4,4.2 C 3.5,5.101 2.9,6.4 2.9,7.7 c 0,1.3 0.5,2.6 1.5,3.5 l 12,12 -4.2,4.2 -12,-12 C -1.9,13.3 -3,10.601 -3,7.601 -3,4.601 -2,2.101 0,0" /></g><g
           style="fill:#24abe2;fill-opacity:1"
           transform="translate(56.8004,48.4999)"
           id="g24"><path
             id="path26"
             style="fill:#24abe2;fill-opacity:1;fill-rule:nonzero;stroke:none"
             d="m 0,0 -8.5,8.5 c -2.101,2.1 -4.801,3.2 -7.801,3.2 -3,0 -5.699,-1.1 -7.8,-3.2 l -12,-12 4.201,-4.2 12,12 c 0.9,0.9 2.2,1.5 3.5,1.5 1.299,0 2.599,-0.5 3.5,-1.5 l 8.5,-8.5 c 0.9,-0.9 1.5,-2.2 1.5,-3.5 0,-1.3 -0.5,-2.6 -1.5,-3.5 l -12,-12 4.2,-4.2 12,12 c 2.099,2.1 3.2,4.8 3.2,7.8 0,3 -1,5.5 -3,7.6" /></g><g
           style="fill:#24abe2;fill-opacity:1"
           transform="translate(17.8785,22.3217)"
           id="g28"><path
             id="path30"
             style="fill:#24abe2;fill-opacity:1;fill-rule:nonzero;stroke:none"
             d="M 0,0 19.799,19.799 24.041,15.557 4.243,-4.242 Z" /></g></g></g></g></svg>