<?xml version="1.0" encoding="UTF-8" standalone="no"?>
<svg
   xmlns:dc="http://purl.org/dc/elements/1.1/"
   xmlns:cc="http://creativecommons.org/ns#"
   xmlns:rdf="http://www.w3.org/1999/02/22-rdf-syntax-ns#"
   xmlns:svg="http://www.w3.org/2000/svg"
   xmlns="http://www.w3.org/2000/svg"
   viewBox="0 0 114.66667 114.66667"
   height="114.66667"
   width="114.66667"
   xml:space="preserve"
   id="svg2"
   version="1.1"><metadata
     id="metadata8"><rdf:RDF><cc:Work
         rdf:about=""><dc:format>image/svg+xml</dc:format><dc:type
           rdf:resource="http://purl.org/dc/dcmitype/StillImage" /><dc:title></dc:title></cc:Work></rdf:RDF></metadata><defs
     id="defs6"><clipPath
       id="clipPath18"
       clipPathUnits="userSpaceOnUse"><path
         id="path16"
         d="M 0,86 H 86 V 0 H 0 Z" /></clipPath></defs><g
     transform="matrix(1.3333333,0,0,-1.3333333,0,114.66667)"
     id="g10"><g
       id="g12"><g
         clip-path="url(#clipPath18)"
         id="g14"><g
           transform="translate(23.9614,53.6836)"
           id="g20"><path
             id="path22"
             style="fill:#000000;fill-opacity:1;fill-rule:nonzero;stroke:none"
             d="m 0,0 1.25,-1.876 c 7.059,-10.588 16.007,-19.537 26.596,-26.597 l 1.876,-1.251 8.093,8.092 17.232,-6.46 L 55,-28.831 c -0.285,-4.53 -2.216,-8.801 -5.44,-12.025 -3.758,-3.758 -8.753,-5.828 -14.065,-5.828 -3.52,0 -6.987,0.938 -10.025,2.711 -16.413,9.574 -30.149,23.309 -39.722,39.721 -1.772,3.038 -2.709,6.504 -2.709,10.023 0,5.315 2.069,10.31 5.826,14.065 3.223,3.224 7.494,5.157 12.026,5.442 L 1.63,25.325 8.092,8.091 Z m 2.094,30.816 c -6.466,0 -12.545,-2.518 -17.117,-7.089 -4.797,-4.796 -7.438,-11.173 -7.438,-17.956 0,-4.491 1.196,-8.915 3.459,-12.793 10.05,-17.229 24.471,-31.65 41.702,-41.703 3.878,-2.262 8.301,-3.459 12.794,-3.459 6.782,0 13.159,2.642 17.954,7.438 4.572,4.572 7.091,10.65 7.091,17.117 v 3.351 l -24.11,9.041 -7.39,-7.39 -0.69,0.494 c -8.026,5.75 -15.011,12.735 -20.761,20.76 l -0.494,0.69 7.392,7.391 -9.041,24.108 z" /></g><g
           transform="translate(23.9614,53.6836)"
           id="g24"><path
             id="path26"
             style="fill:none;stroke:#000000;stroke-width:3;stroke-linecap:butt;stroke-linejoin:miter;stroke-miterlimit:10;stroke-dasharray:none;stroke-opacity:1"
             d="m 0,0 1.25,-1.876 c 7.059,-10.588 16.007,-19.537 26.596,-26.597 l 1.876,-1.251 8.093,8.092 17.232,-6.46 L 55,-28.831 c -0.285,-4.53 -2.216,-8.801 -5.44,-12.025 -3.758,-3.758 -8.753,-5.828 -14.065,-5.828 -3.52,0 -6.987,0.938 -10.025,2.711 -16.413,9.574 -30.149,23.309 -39.722,39.721 -1.772,3.038 -2.709,6.504 -2.709,10.023 0,5.315 2.069,10.31 5.826,14.065 3.223,3.224 7.494,5.157 12.026,5.442 L 1.63,25.325 8.092,8.091 Z m 2.094,30.816 c -6.466,0 -12.545,-2.518 -17.117,-7.089 -4.797,-4.796 -7.438,-11.173 -7.438,-17.956 0,-4.491 1.196,-8.915 3.459,-12.793 10.05,-17.229 24.471,-31.65 41.702,-41.703 3.878,-2.262 8.301,-3.459 12.794,-3.459 6.782,0 13.159,2.642 17.954,7.438 4.572,4.572 7.091,10.65 7.091,17.117 v 3.351 l -24.11,9.041 -7.39,-7.39 -0.69,0.494 c -8.026,5.75 -15.011,12.735 -20.761,20.76 l -0.494,0.69 7.392,7.391 -9.041,24.108 z" /></g></g></g></g></svg>