<?xml version="1.0" encoding="UTF-8" standalone="no"?>
<svg
   xmlns:dc="http://purl.org/dc/elements/1.1/"
   xmlns:cc="http://creativecommons.org/ns#"
   xmlns:rdf="http://www.w3.org/1999/02/22-rdf-syntax-ns#"
   xmlns:svg="http://www.w3.org/2000/svg"
   xmlns="http://www.w3.org/2000/svg"
   viewBox="0 0 78.933334 88.133331"
   height="88.133331"
   width="78.933334"
   xml:space="preserve"
   id="svg2"
   version="1.1"><metadata
     id="metadata8"><rdf:RDF><cc:Work
         rdf:about=""><dc:format>image/svg+xml</dc:format><dc:type
           rdf:resource="http://purl.org/dc/dcmitype/StillImage" /><dc:title></dc:title></cc:Work></rdf:RDF></metadata><defs
     id="defs6"><clipPath
       id="clipPath20"
       clipPathUnits="userSpaceOnUse"><path
         id="path18"
         d="M 0,66.1 H 59.2 V 0 H 0 Z" /></clipPath><clipPath
       id="clipPath40"
       clipPathUnits="userSpaceOnUse"><path
         id="path38"
         d="M 0,66.1 H 59.2 V 0 H 0 Z" /></clipPath></defs><g
     transform="matrix(1.3333333,0,0,-1.3333333,0,88.133333)"
     id="g10"><path
       id="path12"
       style="fill:#000000;fill-opacity:1;fill-rule:nonzero;stroke:none"
       d="m 0.25,52.15 h 58.7 V 65.849 H 0.25 Z m 1.501,12.2 h 55.7 V 53.65 H 57.35 1.751 Z" /><g
       id="g14"><g
         clip-path="url(#clipPath20)"
         id="g16"><g
           transform="translate(57.3498,53.6501)"
           id="g22"><path
             id="path24"
             style="fill:none;stroke:#000000;stroke-width:0.5;stroke-linecap:butt;stroke-linejoin:miter;stroke-miterlimit:10;stroke-dasharray:none;stroke-opacity:1"
             d="M 0,0 H -55.6 V 10.7 H 0.101 L 0.101,0 Z M -57.1,-1.5 H 1.6 v 13.7 h -58.7 z" /></g></g></g><path
       id="path26"
       style="fill:#000000;fill-opacity:1;fill-rule:nonzero;stroke:#000000;stroke-width:0.5;stroke-linecap:butt;stroke-linejoin:miter;stroke-miterlimit:10;stroke-dasharray:none;stroke-opacity:1"
       d="m 4.85,59.75 h 1.5 v -1.5 h -1.5 z" /><path
       id="path28"
       style="fill:#000000;fill-opacity:1;fill-rule:nonzero;stroke:#000000;stroke-width:0.5;stroke-linecap:butt;stroke-linejoin:miter;stroke-miterlimit:10;stroke-dasharray:none;stroke-opacity:1"
       d="m 8.65,59.75 h 1.5 v -1.5 h -1.5 z" /><path
       id="path30"
       style="fill:#000000;fill-opacity:1;fill-rule:nonzero;stroke:#000000;stroke-width:0.5;stroke-linecap:butt;stroke-linejoin:miter;stroke-miterlimit:10;stroke-dasharray:none;stroke-opacity:1"
       d="m 12.45,59.75 h 1.5 v -1.5 h -1.5 z" /><path
       id="path32"
       style="fill:#000000;fill-opacity:1;fill-rule:nonzero;stroke:#000000;stroke-width:0.5;stroke-linecap:butt;stroke-linejoin:miter;stroke-miterlimit:10;stroke-dasharray:none;stroke-opacity:1"
       d="m 18.75,59.75 h 12.7 v -1.5 h -12.7 z" /><g
       id="g34"><g
         clip-path="url(#clipPath40)"
         id="g36"><g
           transform="translate(50.2502,60.7502)"
           id="g42"><path
             id="path44"
             style="fill:#000000;fill-opacity:1;fill-rule:nonzero;stroke:none"
             d="m 0,0 c 1,0 1.8,-0.8 1.8,-1.8 0,-1 -0.8,-1.8 -1.8,-1.8 -1,0 -1.8,0.8 -1.8,1.8 0,1 0.8,1.8 1.8,1.8 m 0,-5.1 c 1.8,0 3.3,1.5 3.3,3.3 C 3.3,0 1.8,1.5 0,1.5 -1.8,1.5 -3.3,0 -3.3,-1.8 c 0,-1.8 1.5,-3.3 3.3,-3.3" /></g><g
           transform="translate(50.2502,60.7502)"
           id="g46"><path
             id="path48"
             style="fill:none;stroke:#000000;stroke-width:0.5;stroke-linecap:butt;stroke-linejoin:miter;stroke-miterlimit:10;stroke-dasharray:none;stroke-opacity:1"
             d="m 0,0 c 1,0 1.8,-0.8 1.8,-1.8 0,-1 -0.8,-1.8 -1.8,-1.8 -1,0 -1.8,0.8 -1.8,1.8 0,1 0.8,1.8 1.8,1.8 z m 0,-5.1 c 1.8,0 3.3,1.5 3.3,3.3 C 3.3,0 1.8,1.5 0,1.5 -1.8,1.5 -3.3,0 -3.3,-1.8 c 0,-1.8 1.5,-3.3 3.3,-3.3 z" /></g><g
           transform="translate(40.9504,60.7502)"
           id="g50"><path
             id="path52"
             style="fill:#000000;fill-opacity:1;fill-rule:nonzero;stroke:none"
             d="m 0,0 c 1,0 1.8,-0.8 1.8,-1.8 0,-1 -0.8,-1.8 -1.8,-1.8 -1,0 -1.801,0.8 -1.801,1.8 C -1.801,-0.8 -1,0 0,0 m 0,-5.1 c 1.8,0 3.3,1.5 3.3,3.3 C 3.3,0 1.8,1.5 0,1.5 -1.801,1.5 -3.301,0 -3.301,-1.8 -3.301,-3.6 -1.9,-5.1 0,-5.1" /></g><g
           transform="translate(40.9504,60.7502)"
           id="g54"><path
             id="path56"
             style="fill:none;stroke:#000000;stroke-width:0.5;stroke-linecap:butt;stroke-linejoin:miter;stroke-miterlimit:10;stroke-dasharray:none;stroke-opacity:1"
             d="m 0,0 c 1,0 1.8,-0.8 1.8,-1.8 0,-1 -0.8,-1.8 -1.8,-1.8 -1,0 -1.801,0.8 -1.801,1.8 C -1.801,-0.8 -1,0 0,0 Z m 0,-5.1 c 1.8,0 3.3,1.5 3.3,3.3 C 3.3,0 1.8,1.5 0,1.5 -1.801,1.5 -3.301,0 -3.301,-1.8 -3.301,-3.6 -1.9,-5.1 0,-5.1 Z" /></g><path
           id="path58"
           style="fill:#000000;fill-opacity:1;fill-rule:nonzero;stroke:#000000;stroke-width:0.5;stroke-linecap:butt;stroke-linejoin:miter;stroke-miterlimit:10;stroke-dasharray:none;stroke-opacity:1"
           d="m 1.75,47.65 h 55.7 V 36.95 H 1.75 Z m -1.5,-12.2 h 58.7 v 13.7 H 0.25 Z" /><path
           id="path60"
           style="fill:#000000;fill-opacity:1;fill-rule:nonzero;stroke:#000000;stroke-width:0.5;stroke-linecap:butt;stroke-linejoin:miter;stroke-miterlimit:10;stroke-dasharray:none;stroke-opacity:1"
           d="m 4.85,43.05 h 1.5 v -1.5 h -1.5 z" /><path
           id="path62"
           style="fill:#000000;fill-opacity:1;fill-rule:nonzero;stroke:#000000;stroke-width:0.5;stroke-linecap:butt;stroke-linejoin:miter;stroke-miterlimit:10;stroke-dasharray:none;stroke-opacity:1"
           d="m 12.45,43.05 h 1.5 v -1.5 h -1.5 z" /><path
           id="path64"
           style="fill:#000000;fill-opacity:1;fill-rule:nonzero;stroke:#000000;stroke-width:0.5;stroke-linecap:butt;stroke-linejoin:miter;stroke-miterlimit:10;stroke-dasharray:none;stroke-opacity:1"
           d="m 8.65,43.05 h 1.5 v -1.5 h -1.5 z" /><path
           id="path66"
           style="fill:#000000;fill-opacity:1;fill-rule:nonzero;stroke:#000000;stroke-width:0.5;stroke-linecap:butt;stroke-linejoin:miter;stroke-miterlimit:10;stroke-dasharray:none;stroke-opacity:1"
           d="m 18.75,43.05 h 12.7 v -1.5 h -12.7 z" /><g
           transform="translate(50.2502,40.55)"
           id="g68"><path
             id="path70"
             style="fill:#000000;fill-opacity:1;fill-rule:nonzero;stroke:none"
             d="M 0,0 C -1,0 -1.8,0.8 -1.8,1.8 -1.8,2.8 -1,3.6 0,3.6 1,3.6 1.8,2.8 1.8,1.8 1.8,0.8 1,0 0,0 M 0,5.1 C -1.8,5.1 -3.3,3.6 -3.3,1.8 -3.3,0 -1.8,-1.5 0,-1.5 1.8,-1.5 3.3,0 3.3,1.8 3.3,3.6 1.8,5.1 0,5.1" /></g><g
           transform="translate(50.2502,40.55)"
           id="g72"><path
             id="path74"
             style="fill:none;stroke:#000000;stroke-width:0.5;stroke-linecap:butt;stroke-linejoin:miter;stroke-miterlimit:10;stroke-dasharray:none;stroke-opacity:1"
             d="M 0,0 C -1,0 -1.8,0.8 -1.8,1.8 -1.8,2.8 -1,3.6 0,3.6 1,3.6 1.8,2.8 1.8,1.8 1.8,0.8 1,0 0,0 Z M 0,5.1 C -1.8,5.1 -3.3,3.6 -3.3,1.8 -3.3,0 -1.8,-1.5 0,-1.5 1.8,-1.5 3.3,0 3.3,1.8 3.3,3.6 1.8,5.1 0,5.1 Z" /></g><g
           transform="translate(40.9504,40.55)"
           id="g76"><path
             id="path78"
             style="fill:#000000;fill-opacity:1;fill-rule:nonzero;stroke:none"
             d="M 0,0 C -1,0 -1.801,0.8 -1.801,1.8 -1.801,2.8 -1,3.6 0,3.6 1,3.6 1.8,2.8 1.8,1.8 1.8,0.8 1,0 0,0 m 0,5.1 c -1.801,0 -3.301,-1.5 -3.301,-3.3 0,-1.8 1.5,-3.3 3.301,-3.3 1.8,0 3.3,1.5 3.3,3.3 0,1.8 -1.5,3.3 -3.3,3.3" /></g><g
           transform="translate(40.9504,40.55)"
           id="g80"><path
             id="path82"
             style="fill:none;stroke:#000000;stroke-width:0.5;stroke-linecap:butt;stroke-linejoin:miter;stroke-miterlimit:10;stroke-dasharray:none;stroke-opacity:1"
             d="M 0,0 C -1,0 -1.801,0.8 -1.801,1.8 -1.801,2.8 -1,3.6 0,3.6 1,3.6 1.8,2.8 1.8,1.8 1.8,0.8 1,0 0,0 Z m 0,5.1 c -1.801,0 -3.301,-1.5 -3.301,-3.3 0,-1.8 1.5,-3.3 3.301,-3.3 1.8,0 3.3,1.5 3.3,3.3 0,1.8 -1.5,3.3 -3.3,3.3 z" /></g><path
           id="path84"
           style="fill:#000000;fill-opacity:1;fill-rule:nonzero;stroke:none"
           d="m 1.75,31.05 h 55.7 V 20.35 H 1.75 Z m 34.7,-29.2 h -13.8 v 4.9 h 13.7 v -4.9 z m -36.2,17 h 28.6 V 8.15 h -7.6 V 4.95 H 6.65 v -1.5 h 14.5 v -3.2 h 16.7 v 3.2 h 14.5 v 1.5 h -14.4 v 3.2 h -7.6 v 10.7 h 28.6 v 13.7 H 0.25 Z" /><path
           id="path86"
           style="fill:none;stroke:#000000;stroke-width:0.5;stroke-linecap:butt;stroke-linejoin:miter;stroke-miterlimit:10;stroke-dasharray:none;stroke-opacity:1"
           d="m 1.75,31.05 h 55.7 V 20.35 H 1.75 Z m 34.7,-29.2 h -13.8 v 4.9 h 13.7 v -4.9 z m -36.2,17 h 28.6 V 8.15 h -7.6 V 4.95 H 6.65 v -1.5 h 14.5 v -3.2 h 16.7 v 3.2 h 14.5 v 1.5 h -14.4 v 3.2 h -7.6 v 10.7 h 28.6 v 13.7 H 0.25 Z" /><path
           id="path88"
           style="fill:#000000;fill-opacity:1;fill-rule:nonzero;stroke:#000000;stroke-width:0.5;stroke-linecap:butt;stroke-linejoin:miter;stroke-miterlimit:10;stroke-dasharray:none;stroke-opacity:1"
           d="m 8.65,26.45 h 1.5 v -1.5 h -1.5 z" /><path
           id="path90"
           style="fill:#000000;fill-opacity:1;fill-rule:nonzero;stroke:#000000;stroke-width:0.5;stroke-linecap:butt;stroke-linejoin:miter;stroke-miterlimit:10;stroke-dasharray:none;stroke-opacity:1"
           d="m 4.85,26.45 h 1.5 v -1.5 h -1.5 z" /><path
           id="path92"
           style="fill:#000000;fill-opacity:1;fill-rule:nonzero;stroke:#000000;stroke-width:0.5;stroke-linecap:butt;stroke-linejoin:miter;stroke-miterlimit:10;stroke-dasharray:none;stroke-opacity:1"
           d="m 12.45,26.45 h 1.5 v -1.5 h -1.5 z" /><path
           id="path94"
           style="fill:#000000;fill-opacity:1;fill-rule:nonzero;stroke:#000000;stroke-width:0.5;stroke-linecap:butt;stroke-linejoin:miter;stroke-miterlimit:10;stroke-dasharray:none;stroke-opacity:1"
           d="m 18.75,26.45 h 12.7 v -1.5 h -12.7 z" /><g
           transform="translate(50.2502,23.8498)"
           id="g96"><path
             id="path98"
             style="fill:#000000;fill-opacity:1;fill-rule:nonzero;stroke:none"
             d="M 0,0 C -1,0 -1.8,0.8 -1.8,1.8 -1.8,2.8 -1,3.6 0,3.6 1,3.6 1.8,2.8 1.8,1.8 1.8,0.8 1,0 0,0 M 0,5.1 C -1.8,5.1 -3.3,3.6 -3.3,1.8 -3.3,0 -1.8,-1.5 0,-1.5 1.8,-1.5 3.3,0 3.3,1.8 3.3,3.6 1.8,5.1 0,5.1" /></g><g
           transform="translate(50.2502,23.8498)"
           id="g100"><path
             id="path102"
             style="fill:none;stroke:#000000;stroke-width:0.5;stroke-linecap:butt;stroke-linejoin:miter;stroke-miterlimit:10;stroke-dasharray:none;stroke-opacity:1"
             d="M 0,0 C -1,0 -1.8,0.8 -1.8,1.8 -1.8,2.8 -1,3.6 0,3.6 1,3.6 1.8,2.8 1.8,1.8 1.8,0.8 1,0 0,0 Z M 0,5.1 C -1.8,5.1 -3.3,3.6 -3.3,1.8 -3.3,0 -1.8,-1.5 0,-1.5 1.8,-1.5 3.3,0 3.3,1.8 3.3,3.6 1.8,5.1 0,5.1 Z" /></g><g
           transform="translate(40.9504,23.8498)"
           id="g104"><path
             id="path106"
             style="fill:#000000;fill-opacity:1;fill-rule:nonzero;stroke:none"
             d="M 0,0 C -1,0 -1.801,0.8 -1.801,1.8 -1.801,2.8 -1,3.6 0,3.6 1,3.6 1.8,2.8 1.8,1.8 1.8,0.8 1,0 0,0 m 0,5.1 c -1.801,0 -3.301,-1.5 -3.301,-3.3 0,-1.8 1.5,-3.3 3.301,-3.3 1.8,0 3.3,1.5 3.3,3.3 0,1.8 -1.5,3.3 -3.3,3.3" /></g><g
           transform="translate(40.9504,23.8498)"
           id="g108"><path
             id="path110"
             style="fill:none;stroke:#000000;stroke-width:0.5;stroke-linecap:butt;stroke-linejoin:miter;stroke-miterlimit:10;stroke-dasharray:none;stroke-opacity:1"
             d="M 0,0 C -1,0 -1.801,0.8 -1.801,1.8 -1.801,2.8 -1,3.6 0,3.6 1,3.6 1.8,2.8 1.8,1.8 1.8,0.8 1,0 0,0 Z m 0,5.1 c -1.801,0 -3.301,-1.5 -3.301,-3.3 0,-1.8 1.5,-3.3 3.301,-3.3 1.8,0 3.3,1.5 3.3,3.3 0,1.8 -1.5,3.3 -3.3,3.3 z" /></g><path
           id="path112"
           style="fill:#000000;fill-opacity:1;fill-rule:nonzero;stroke:#000000;stroke-width:0.5;stroke-linecap:butt;stroke-linejoin:miter;stroke-miterlimit:10;stroke-dasharray:none;stroke-opacity:1"
           d="m 30.35,4.95 h 1.5 v -1.5 h -1.5 z" /><path
           id="path114"
           style="fill:#000000;fill-opacity:1;fill-rule:nonzero;stroke:#000000;stroke-width:0.5;stroke-linecap:butt;stroke-linejoin:miter;stroke-miterlimit:10;stroke-dasharray:none;stroke-opacity:1"
           d="m 26.85,4.95 h 1.5 v -1.5 h -1.5 z" /></g></g></g></svg>