<?xml version="1.0" encoding="UTF-8" standalone="no"?>
<svg
   xmlns:dc="http://purl.org/dc/elements/1.1/"
   xmlns:cc="http://creativecommons.org/ns#"
   xmlns:rdf="http://www.w3.org/1999/02/22-rdf-syntax-ns#"
   xmlns:svg="http://www.w3.org/2000/svg"
   xmlns="http://www.w3.org/2000/svg"
   viewBox="0 0 28.666668 25.085333"
   height="25.085333"
   width="28.666668"
   xml:space="preserve"
   id="svg2"
   version="1.1"><metadata
     id="metadata8"><rdf:RDF><cc:Work
         rdf:about=""><dc:format>image/svg+xml</dc:format><dc:type
           rdf:resource="http://purl.org/dc/dcmitype/StillImage" /><dc:title></dc:title></cc:Work></rdf:RDF></metadata><defs
     id="defs6"><clipPath
       id="clipPath18"
       clipPathUnits="userSpaceOnUse"><path
         id="path16"
         d="M 0,18.814 H 21.5 V 0 H 0 Z" /></clipPath></defs><g
     transform="matrix(1.3333333,0,0,-1.3333333,0,25.085333)"
     id="g10"><g
       id="g12"><g
         clip-path="url(#clipPath18)"
         id="g14"><g
           transform="translate(4.7031,14.782)"
           id="g20"><path
             id="path22"
             style="fill:#24abe2;fill-opacity:1;fill-rule:nonzero;stroke:none"
             d="m 0,0 c -0.741,0 -1.344,0.603 -1.344,1.344 0,0.741 0.603,1.344 1.344,1.344 0.741,0 1.344,-0.603 1.344,-1.344 C 1.344,0.603 0.741,0 0,0 M 2.592,2.016 C 2.292,3.172 1.249,4.032 0,4.032 c -1.249,0 -2.292,-0.86 -2.592,-2.016 H -4.703 V 0.672 h 2.111 c 0.3,-1.156 1.343,-2.016 2.592,-2.016 1.249,0 2.292,0.86 2.592,2.016 h 14.205 v 1.344 z" /></g><g
           transform="translate(16.7969,8.0628)"
           id="g24"><path
             id="path26"
             style="fill:#24abe2;fill-opacity:1;fill-rule:nonzero;stroke:none"
             d="m 0,0 c -0.741,0 -1.344,0.603 -1.344,1.344 0,0.741 0.603,1.344 1.344,1.344 0.741,0 1.344,-0.603 1.344,-1.344 C 1.344,0.603 0.741,0 0,0 m 0,4.031 c -1.249,0 -2.292,-0.86 -2.592,-2.016 H -16.797 V 0.671 h 14.205 c 0.3,-1.156 1.343,-2.016 2.592,-2.016 1.249,0 2.292,0.86 2.592,2.016 H 4.703 V 2.015 H 2.592 C 2.292,3.172 1.249,4.031 0,4.031" /></g><g
           transform="translate(8.7339,1.3435)"
           id="g28"><path
             id="path30"
             style="fill:#24abe2;fill-opacity:1;fill-rule:nonzero;stroke:none"
             d="m 0,0 c -0.741,0 -1.344,0.604 -1.344,1.345 0,0.741 0.603,1.343 1.344,1.343 0.741,0 1.344,-0.602 1.344,-1.343 C 1.344,0.604 0.741,0 0,0 m 0,4.032 c -1.249,0 -2.292,-0.859 -2.592,-2.015 H -8.734 V 0.673 h 6.142 c 0.3,-1.156 1.343,-2.017 2.592,-2.017 1.249,0 2.292,0.861 2.592,2.017 H 12.766 V 2.017 H 2.592 C 2.292,3.173 1.249,4.032 0,4.032" /></g></g></g></g></svg>