<?xml version="1.0" encoding="UTF-8" standalone="no"?>
<svg
   xmlns:dc="http://purl.org/dc/elements/1.1/"
   xmlns:cc="http://creativecommons.org/ns#"
   xmlns:rdf="http://www.w3.org/1999/02/22-rdf-syntax-ns#"
   xmlns:svg="http://www.w3.org/2000/svg"
   xmlns="http://www.w3.org/2000/svg"
   viewBox="0 0 120 120"
   height="120"
   width="120"
   xml:space="preserve"
   id="svg2"
   version="1.1"><metadata
     id="metadata8"><rdf:RDF><cc:Work
         rdf:about=""><dc:format>image/svg+xml</dc:format><dc:type
           rdf:resource="http://purl.org/dc/dcmitype/StillImage" /><dc:title></dc:title></cc:Work></rdf:RDF></metadata><defs
     id="defs6"><clipPath
       id="clipPath18"
       clipPathUnits="userSpaceOnUse"><path
         id="path16"
         d="M 0,90 H 90 V 0 H 0 Z" /></clipPath></defs><g
     transform="matrix(1.3333333,0,0,-1.3333333,0,120)"
     id="g10"><g
       id="g12"><g
         clip-path="url(#clipPath18)"
         id="g14"><g
           transform="translate(59.7715,37.6841)"
           id="g20"><path
             id="path22"
             style="fill:#24abe2;fill-opacity:1;fill-rule:nonzero;stroke:none"
             d="m 0,0 c 0.823,1.712 1.706,3.389 2.664,5.02 4.254,7.237 7.292,16.89 8.856,27.713 H 25.142 C 24.115,17.851 13.988,5.288 0,0 m -10.928,-17.684 h -7.689 c -1.642,9.016 -4.773,17.565 -9.281,25.236 -5.659,9.629 -9.024,24.013 -9.349,39.764 H 7.702 C 7.38,31.565 4.014,17.181 -1.646,7.552 -6.154,-0.119 -9.283,-8.668 -10.928,-17.684 m 6.157,-5 v -10 h -5 -10 -5 v 10 z m -49.915,55.417 h 13.623 C -39.5,21.909 -36.461,12.256 -32.208,5.02 -31.25,3.39 -30.368,1.712 -29.543,0 -43.531,5.288 -53.659,17.851 -54.686,32.733 m 82.415,5 H 12.131 c 0.389,3.924 0.598,7.967 0.598,12.083 0,1.381 -1.12,2.5 -2.5,2.5 h -50 c -1.381,0 -2.5,-1.119 -2.5,-2.5 0,-4.116 0.208,-8.159 0.598,-12.083 h -15.598 c -1.381,0 -2.5,-1.119 -2.5,-2.5 0,-19.637 13.904,-36.224 32.814,-41.305 1.389,-3.74 2.478,-7.624 3.254,-11.612 h -3.568 c -1.381,0 -2.5,-1.119 -2.5,-2.5 v -15 c 0,-1.381 1.119,-2.5 2.5,-2.5 h 25 c 1.38,0 2.5,1.119 2.5,2.5 v 15 c 0,1.381 -1.12,2.5 -2.5,2.5 H -5.84 c 0.777,3.988 1.866,7.872 3.254,11.612 18.909,5.081 32.815,21.668 32.815,41.305 0,1.38 -1.12,2.5 -2.5,2.5" /></g><g
           transform="translate(32.9429,77.729)"
           id="g24"><path
             id="path26"
             style="fill:#24abe2;fill-opacity:1;fill-rule:nonzero;stroke:none"
             d="m 0,0 c -0.127,1.375 -1.353,2.383 -2.718,2.261 -1.375,-0.126 -2.388,-1.344 -2.261,-2.718 1.089,-11.859 4.009,-22.336 8.22,-29.501 0.466,-0.792 1.301,-1.234 2.157,-1.234 0.431,0 0.867,0.111 1.265,0.345 1.19,0.7 1.588,2.231 0.889,3.422 C 3.706,-20.881 1.024,-11.142 0,0" /></g></g></g></g></svg>