<svg xmlns="http://www.w3.org/2000/svg" viewBox="0 0 245.34908 59.566665" height="59.567" width="245.349"><defs><clipPath id="a"><path d="M0 66.342h87.011V0H0z"/></clipPath></defs><g clip-path="url(#a)" transform="matrix(1.33333 0 0 -1.33333 0 88.456)"><path d="M0 21.667h17.402v44.675H0z" fill="#231f20"/><path d="M34.804 21.667h10.442V44.01H34.804z" fill="#28aae1"/><path d="M20.882 21.667h10.442v44.675H20.882z" fill="#ed1c24"/><path d="M55.687 21.667h17.402v44.675H55.687z" fill="#231f20"/><path d="M76.57 21.673h10.441v36.654H76.57z" fill="#28aae1"/></g><path d="M129.408 39.806V25.39h3.175v1.304h.052a3.263 3.263 0 0 1 1.392-1.38 3.54 3.54 0 0 1 1.938-.39v3.355c-1.006 0-1.778.302-2.316.898-.537.601-.798 1.548-.781 2.852v7.778h-3.46m22.687-14.416v14.417h-3.173v-1.952h-.052c-.608.814-1.332 1.416-2.173 1.806a6.48 6.48 0 0 1-2.642.613c-1.925 0-3.582-.692-4.969-2.081-1.388-1.387-2.081-3.21-2.081-5.466 0-2.237.689-4.096 2.068-5.58 1.378-1.482 3.074-2.226 5.086-2.226 1.006 0 1.912.216 2.72.638.806.426 1.47 1.046 1.991 1.86h.052v-2.029zm-7.389 2.81c-1.248 0-2.268.431-3.057 1.289-.791.857-1.184 1.94-1.184 3.238-.018 1.251.368 2.274 1.158 3.072.79.796 1.816 1.196 3.083 1.196 1.23 0 2.23-.408 2.992-1.222.764-.816 1.145-1.883 1.145-3.202 0-1.248-.381-2.289-1.145-3.122-.763-.832-1.761-1.248-2.992-1.248m20.764 6.92h3.904c-.573 1.58-1.472 2.833-2.694 3.758-1.223.93-2.702 1.394-4.435 1.394-2.29 0-4.19-.73-5.7-2.184-1.507-1.46-2.263-3.324-2.263-5.596 0-2.151.742-3.951 2.226-5.4 1.481-1.447 3.35-2.171 5.606-2.171 1.787 0 3.322.476 4.606 1.432 1.284.955 2.168 2.23 2.654 3.823h-3.904c-.346-.64-.81-1.127-1.392-1.458-.58-.328-1.252-.502-2.016-.518-1.336 0-2.39.42-3.16 1.26-.773.842-1.16 1.869-1.16 3.082 0 1.286.396 2.352 1.186 3.204.788.847 1.833 1.264 3.134 1.247.73 0 1.392-.152 1.991-.457.597-.303 1.07-.775 1.417-1.416m6.088 4.684V20.552h3.46V32.18l4.632-6.79h4.095l-5.217 7.052 6.081 7.364h-4.645l-4.946-6.74v6.74zm14.181-4.528h3.46c.017.538.204.958.56 1.261.356.305.802.457 1.34.457.469.018.854-.104 1.158-.364.304-.26.455-.633.455-1.12a1.468 1.468 0 0 0-.285-.818c-.175-.234-.512-.455-1.015-.666a25.595 25.595 0 0 0-.327-.102 74.75 74.75 0 0 1-1.157-.39c-1.284-.398-2.215-.937-2.797-1.613-.582-.676-.872-1.528-.872-2.55 0-1.25.46-2.303 1.38-3.162.918-.859 2.08-1.29 3.486-1.29 1.302 0 2.384.414 3.252 1.238.868.824 1.336 1.885 1.406 3.187h-3.46c-.054-.364-.192-.646-.418-.844-.224-.199-.52-.3-.884-.3-.4 0-.714.112-.95.338-.234.226-.351.52-.351.884 0 .382.139.694.417.936.276.244.875.47 1.795.678 1.527.381 2.615.912 3.265 1.585.65.68.976 1.572.976 2.683 0 1.421-.485 2.608-1.457 3.552-.972.946-2.221 1.417-3.747 1.417-1.613 0-2.888-.49-3.825-1.47-.936-.98-1.405-2.155-1.405-3.527m12.879 4.528V28.46h-1.692v-3.07h1.692v-4.838h3.461v4.837h2.08v3.07h-2.08v11.347zm14.207-14.884c2.168 0 3.987.754 5.45 2.266 1.468 1.509 2.2 3.32 2.2 5.434 0 2.135-.732 3.943-2.2 5.428-1.463 1.483-3.282 2.226-5.45 2.226-2.185 0-4.006-.743-5.464-2.226-1.457-1.485-2.185-3.293-2.185-5.428 0-2.114.728-3.925 2.185-5.434 1.458-1.512 3.279-2.266 5.464-2.266m0 3.279c-1.248 0-2.26.433-3.032 1.303-.772.865-1.157 1.906-1.157 3.118-.017 1.216.365 2.25 1.145 3.1.78.848 1.796 1.275 3.044 1.275 1.232.015 2.238-.404 3.019-1.265.78-.856 1.17-1.894 1.17-3.11 0-1.212-.39-2.253-1.17-3.118-.781-.87-1.787-1.303-3.019-1.303m9.732 11.605V25.39h3.175v1.304h.052a3.263 3.263 0 0 1 1.392-1.38 3.54 3.54 0 0 1 1.938-.39v3.355c-1.006 0-1.777.302-2.317.898-.536.601-.797 1.548-.78 2.852v7.778h-3.46m22.715-5.672H233.98c.208.885.653 1.582 1.34 2.093.684.513 1.496.768 2.433.768.693.017 1.313-.092 1.86-.327a3.482 3.482 0 0 0 1.367-1.025h3.901c-.608 1.439-1.525 2.572-2.759 3.396-1.23.823-2.644 1.235-4.24 1.235-2.168 0-3.98-.728-5.438-2.184-1.458-1.46-2.184-3.255-2.184-5.386 0-2.136.732-3.966 2.197-5.492 1.465-1.525 3.29-2.29 5.477-2.29 2.17 0 3.942.738 5.32 2.213 1.38 1.472 2.08 3.296 2.095 5.464 0 .345-.008.636-.025.87l-.052.665m-11.344-3.071h7.805c-.244-.885-.712-1.583-1.405-2.095-.694-.513-1.49-.766-2.394-.766-.954.016-1.792.28-2.51.793a3.92 3.92 0 0 0-1.496 2.068" fill="#231f20"/></svg>