<svg xmlns="http://www.w3.org/2000/svg" viewBox="0 0 110 98.005333" height="98.005" width="110"><defs><clipPath id="a"><path d="M0 73.504h82.5V0H0z"/></clipPath></defs><g clip-path="url(#a)" transform="matrix(1.33333 0 0 -1.33333 0 98.005)" fill="#2dafe3"><path d="M4.25 54.25c0 1.1.9 2 2 2h62c2.2 0 4-1.8 4-4v-9h-12c-5.5 0-10-4.5-10-10v-6c0-5.5 4.5-10 10-10h12v-9c0-2.2-1.8-4-4-4h-62c-1.1 0-2 .9-2 2zm50.4 14.5l1.3-8.5h-31.1zm23.6-32.5v-12c0-1.7-1.3-3-3-3h-15c-3.3 0-6 2.7-6 6v6c0 3.3 2.7 6 6 6h15c1.7 0 3-1.3 3-3m-72-36h62c4.4 0 8 3.6 8 8v9.1c3.4.5 6 3.4 6 6.9v12c0 3.5-2.6 6.4-6 6.9v9.1c0 4.4-3.6 8-8 8h-8.3l-1.7 11.3c-.1.6-.4 1.1-.9 1.4-.5.3-1.1.4-1.6.2l-45.5-12.9h-4c-3.3 0-6-2.7-6-6v-48c0-3.3 2.7-6 6-6"/><path d="M4.25 54.25c0 1.1.9 2 2 2h62c2.2 0 4-1.8 4-4v-9h-12c-5.5 0-10-4.5-10-10v-6c0-5.5 4.5-10 10-10h12v-9c0-2.2-1.8-4-4-4h-62c-1.1 0-2 .9-2 2zm50.4 14.5l1.3-8.5h-31.1zm23.6-32.5v-12c0-1.7-1.3-3-3-3h-15c-3.3 0-6 2.7-6 6v6c0 3.3 2.7 6 6 6h15c1.7 0 3-1.3 3-3zm-72-36h62c4.4 0 8 3.6 8 8v9.1c3.4.5 6 3.4 6 6.9v12c0 3.5-2.6 6.4-6 6.9v9.1c0 4.4-3.6 8-8 8h-8.3l-1.7 11.3c-.1.6-.4 1.1-.9 1.4-.5.3-1.1.4-1.6.2l-45.5-12.9h-4c-3.3 0-6-2.7-6-6v-48c0-3.3 2.7-6 6-6z"/><path d="M63.25 28.25c-1.1 0-2 .9-2 2s.9 2 2 2 2-.9 2-2-.9-2-2-2m0 8c-3.3 0-6-2.7-6-6s2.7-6 6-6 6 2.7 6 6-2.7 6-6 6"/><path d="M63.25 28.25c-1.1 0-2 .9-2 2s.9 2 2 2 2-.9 2-2-.9-2-2-2zm0 8c-3.3 0-6-2.7-6-6s2.7-6 6-6 6 2.7 6 6-2.7 6-6 6z"/></g></svg>