<?xml version="1.0" encoding="UTF-8" standalone="no"?>
<svg
   xmlns:dc="http://purl.org/dc/elements/1.1/"
   xmlns:cc="http://creativecommons.org/ns#"
   xmlns:rdf="http://www.w3.org/1999/02/22-rdf-syntax-ns#"
   xmlns:svg="http://www.w3.org/2000/svg"
   xmlns="http://www.w3.org/2000/svg"
   viewBox="0 0 110 98.005333"
   height="98.005333"
   width="110"
   xml:space="preserve"
   id="svg2"
   version="1.1"><metadata
     id="metadata8"><rdf:RDF><cc:Work
         rdf:about=""><dc:format>image/svg+xml</dc:format><dc:type
           rdf:resource="http://purl.org/dc/dcmitype/StillImage" /><dc:title></dc:title></cc:Work></rdf:RDF></metadata><defs
     id="defs6"><clipPath
       id="clipPath18"
       clipPathUnits="userSpaceOnUse"><path
         id="path16"
         d="M 0,73.504 H 82.5 V 0 H 0 Z" /></clipPath></defs><g
     transform="matrix(1.3333333,0,0,-1.3333333,0,98.005333)"
     id="g10"><g
       style="stroke:none;fill:#2dafe3;fill-opacity:1"
       id="g12"><g
         style="stroke:none;fill:#2dafe3;fill-opacity:1"
         clip-path="url(#clipPath18)"
         id="g14"><g
           style="stroke:none;fill:#2dafe3;fill-opacity:1"
           transform="translate(4.25,54.25)"
           id="g20"><path
             id="path22"
             style="fill:#2dafe3;fill-opacity:1;fill-rule:nonzero;stroke:none"
             d="M 0,0 C 0,1.1 0.9,2 2,2 H 6.2 64 c 2.2,0 4,-1.8 4,-4 v -9 H 56 c -5.5,0 -10,-4.5 -10,-10 v -6 c 0,-5.5 4.5,-10 10,-10 h 12 v -9 c 0,-2.2 -1.8,-4 -4,-4 H 2 c -1.1,0 -2,0.9 -2,2 z M 50.4,14.5 51.7,6 H 20.6 Z M 74,-18 v -12 c 0,-1.7 -1.3,-3 -3,-3 H 56 c -3.3,0 -6,2.7 -6,6 v 6 c 0,3.3 2.7,6 6,6 h 15 c 1.7,0 3,-1.3 3,-3 M 2,-54 h 62 c 4.4,0 8,3.6 8,8 v 9.1 c 3.4,0.5 6,3.4 6,6.9 v 12 c 0,3.5 -2.6,6.4 -6,6.9 V -2 c 0,4.4 -3.6,8 -8,8 H 55.7 L 54,17.3 c -0.1,0.6 -0.4,1.1 -0.9,1.4 -0.5,0.3 -1.1,0.4 -1.6,0.2 L 6,6 H 2 C -1.3,6 -4,3.3 -4,0 v -48 c 0,-3.3 2.7,-6 6,-6" /></g><g
           style="stroke:none;fill:#2dafe3;fill-opacity:1"
           transform="translate(4.25,54.25)"
           id="g24"><path
             id="path26"
             style="fill:#2dafe3;stroke:none;stroke-width:0.5;stroke-linecap:butt;stroke-linejoin:miter;stroke-miterlimit:10;stroke-dasharray:none;stroke-opacity:1;fill-opacity:1"
             d="M 0,0 C 0,1.1 0.9,2 2,2 H 6.2 64 c 2.2,0 4,-1.8 4,-4 v -9 H 56 c -5.5,0 -10,-4.5 -10,-10 v -6 c 0,-5.5 4.5,-10 10,-10 h 12 v -9 c 0,-2.2 -1.8,-4 -4,-4 H 2 c -1.1,0 -2,0.9 -2,2 z M 50.4,14.5 51.7,6 H 20.6 Z M 74,-18 v -12 c 0,-1.7 -1.3,-3 -3,-3 H 56 c -3.3,0 -6,2.7 -6,6 v 6 c 0,3.3 2.7,6 6,6 h 15 c 1.7,0 3,-1.3 3,-3 z M 2,-54 h 62 c 4.4,0 8,3.6 8,8 v 9.1 c 3.4,0.5 6,3.4 6,6.9 v 12 c 0,3.5 -2.6,6.4 -6,6.9 V -2 c 0,4.4 -3.6,8 -8,8 H 55.7 L 54,17.3 c -0.1,0.6 -0.4,1.1 -0.9,1.4 -0.5,0.3 -1.1,0.4 -1.6,0.2 L 6,6 H 2 C -1.3,6 -4,3.3 -4,0 v -48 c 0,-3.3 2.7,-6 6,-6 z" /></g><g
           style="stroke:none;fill:#2dafe3;fill-opacity:1"
           transform="translate(63.25,28.25)"
           id="g28"><path
             id="path30"
             style="fill:#2dafe3;fill-opacity:1;fill-rule:nonzero;stroke:none"
             d="M 0,0 C -1.1,0 -2,0.9 -2,2 -2,3.1 -1.1,4 0,4 1.1,4 2,3.1 2,2 2,0.9 1.1,0 0,0 m 0,8 c -3.3,0 -6,-2.7 -6,-6 0,-3.3 2.7,-6 6,-6 3.3,0 6,2.7 6,6 0,3.3 -2.7,6 -6,6" /></g><g
           style="stroke:none;fill:#2dafe3;fill-opacity:1"
           transform="translate(63.25,28.25)"
           id="g32"><path
             id="path34"
             style="fill:#2dafe3;stroke:none;stroke-width:0.5;stroke-linecap:butt;stroke-linejoin:miter;stroke-miterlimit:10;stroke-dasharray:none;stroke-opacity:1;fill-opacity:1"
             d="M 0,0 C -1.1,0 -2,0.9 -2,2 -2,3.1 -1.1,4 0,4 1.1,4 2,3.1 2,2 2,0.9 1.1,0 0,0 Z m 0,8 c -3.3,0 -6,-2.7 -6,-6 0,-3.3 2.7,-6 6,-6 3.3,0 6,2.7 6,6 0,3.3 -2.7,6 -6,6 z" /></g></g></g></g></svg>