<?xml version="1.0" encoding="UTF-8" standalone="no"?>
<svg
   xmlns:dc="http://purl.org/dc/elements/1.1/"
   xmlns:cc="http://creativecommons.org/ns#"
   xmlns:rdf="http://www.w3.org/1999/02/22-rdf-syntax-ns#"
   xmlns:svg="http://www.w3.org/2000/svg"
   xmlns="http://www.w3.org/2000/svg"
   viewBox="0 0 21.675734 17.139732"
   height="17.139732"
   width="21.675734"
   xml:space="preserve"
   id="svg2"
   version="1.1"><metadata
     id="metadata8"><rdf:RDF><cc:Work
         rdf:about=""><dc:format>image/svg+xml</dc:format><dc:type
           rdf:resource="http://purl.org/dc/dcmitype/StillImage" /><dc:title></dc:title></cc:Work></rdf:RDF></metadata><defs
     id="defs6"><clipPath
       id="clipPath18"
       clipPathUnits="userSpaceOnUse"><path
         id="path16"
         d="M 0,12.855 H 16.257 V 0 H 0 Z" /></clipPath></defs><g
     transform="matrix(1.3333333,0,0,-1.3333333,0,17.139733)"
     id="g10"><g
       style="fill:#2dafe3;fill-opacity:1"
       id="g12"><g
         style="fill:#2dafe3;fill-opacity:1"
         clip-path="url(#clipPath18)"
         id="g14"><g
           style="fill:#2dafe3;fill-opacity:1"
           transform="translate(1.1377,8.9229)"
           id="g20"><path
             id="path22"
             style="fill:#2dafe3;fill-opacity:1;fill-rule:nonzero;stroke:none"
             d="m 0,0 h -0.651 c -0.264,0 -0.487,-0.225 -0.487,-0.491 0,-0.266 0.223,-0.491 0.487,-0.491 H 0 c 0.266,0 0.491,0.225 0.491,0.491 C 0.491,-0.225 0.266,0 0,0" /></g><g
           style="fill:#2dafe3;fill-opacity:1"
           transform="translate(15.7617,0.9912)"
           id="g24"><path
             id="path26"
             style="fill:#2dafe3;fill-opacity:1;fill-rule:nonzero;stroke:none"
             d="m 0,0 h -10.345 c -0.264,0 -0.487,-0.228 -0.487,-0.496 0,-0.269 0.223,-0.495 0.487,-0.495 H 0 c 0.273,0 0.495,0.221 0.495,0.495 C 0.495,-0.228 0.269,0 0,0" /></g><g
           style="fill:#2dafe3;fill-opacity:1"
           transform="translate(1.1377,12.855)"
           id="g28"><path
             id="path30"
             style="fill:#2dafe3;fill-opacity:1;fill-rule:nonzero;stroke:none"
             d="m 0,0 h -0.651 c -0.268,0 -0.487,-0.218 -0.487,-0.487 0,-0.264 0.223,-0.487 0.487,-0.487 H 0 c 0.266,0 0.491,0.223 0.491,0.487 C 0.491,-0.223 0.266,0 0,0" /></g><g
           style="fill:#2dafe3;fill-opacity:1"
           transform="translate(15.7617,4.9243)"
           id="g32"><path
             id="path34"
             style="fill:#2dafe3;fill-opacity:1;fill-rule:nonzero;stroke:none"
             d="m 0,0 h -10.345 c -0.264,0 -0.487,-0.227 -0.487,-0.496 0,-0.264 0.223,-0.487 0.487,-0.487 H 0 c 0.273,0 0.495,0.218 0.495,0.487 C 0.495,-0.223 0.273,0 0,0" /></g><g
           style="fill:#2dafe3;fill-opacity:1"
           transform="translate(1.1377,4.9829)"
           id="g36"><path
             id="path38"
             style="fill:#2dafe3;fill-opacity:1;fill-rule:nonzero;stroke:none"
             d="m 0,0 h -0.651 c -0.264,0 -0.487,-0.227 -0.487,-0.496 0,-0.264 0.223,-0.487 0.487,-0.487 H 0 c 0.266,0 0.491,0.223 0.491,0.487 C 0.491,-0.227 0.266,0 0,0" /></g><g
           style="fill:#2dafe3;fill-opacity:1"
           transform="translate(1.1377,1.0498)"
           id="g40"><path
             id="path42"
             style="fill:#2dafe3;fill-opacity:1;fill-rule:nonzero;stroke:none"
             d="m 0,0 h -0.651 c -0.264,0 -0.487,-0.228 -0.487,-0.496 0,-0.269 0.223,-0.495 0.487,-0.495 H 0 c 0.266,0 0.491,0.226 0.491,0.495 C 0.491,-0.231 0.262,0 0,0" /></g><g
           style="fill:#2dafe3;fill-opacity:1"
           transform="translate(15.7617,12.7964)"
           id="g44"><path
             id="path46"
             style="fill:#2dafe3;fill-opacity:1;fill-rule:nonzero;stroke:none"
             d="m 0,0 h -10.345 c -0.268,0 -0.487,-0.218 -0.487,-0.487 0,-0.264 0.223,-0.487 0.487,-0.487 H 0 c 0.273,0 0.495,0.219 0.495,0.487 C 0.495,-0.218 0.273,0 0,0" /></g><g
           style="fill:#2dafe3;fill-opacity:1"
           transform="translate(15.7617,8.8643)"
           id="g48"><path
             id="path50"
             style="fill:#2dafe3;fill-opacity:1;fill-rule:nonzero;stroke:none"
             d="m 0,0 h -10.345 c -0.268,0 -0.487,-0.22 -0.487,-0.491 0,-0.266 0.223,-0.491 0.487,-0.491 H 0 c 0.269,0 0.495,0.225 0.495,0.491 C 0.495,-0.22 0.273,0 0,0" /></g><g
           style="fill:#2dafe3;fill-opacity:1"
           transform="translate(3.6377,8.8643)"
           id="g52"><path
             id="path54"
             style="fill:#2dafe3;fill-opacity:1;fill-rule:nonzero;stroke:none"
             d="m 0,0 h -0.651 c -0.264,0 -0.487,-0.225 -0.487,-0.491 0,-0.266 0.223,-0.491 0.487,-0.491 H 0 c 0.266,0 0.491,0.225 0.491,0.491 C 0.491,-0.225 0.266,0 0,0" /></g><g
           style="fill:#2dafe3;fill-opacity:1"
           transform="translate(3.6377,12.7964)"
           id="g56"><path
             id="path58"
             style="fill:#2dafe3;fill-opacity:1;fill-rule:nonzero;stroke:none"
             d="m 0,0 h -0.651 c -0.268,0 -0.487,-0.218 -0.487,-0.487 0,-0.264 0.223,-0.487 0.487,-0.487 H 0 c 0.266,0 0.491,0.223 0.491,0.487 C 0.491,-0.223 0.266,0 0,0" /></g><g
           style="fill:#2dafe3;fill-opacity:1"
           transform="translate(3.6377,4.9243)"
           id="g60"><path
             id="path62"
             style="fill:#2dafe3;fill-opacity:1;fill-rule:nonzero;stroke:none"
             d="m 0,0 h -0.651 c -0.264,0 -0.487,-0.227 -0.487,-0.496 0,-0.264 0.223,-0.487 0.487,-0.487 H 0 c 0.266,0 0.491,0.223 0.491,0.487 C 0.491,-0.227 0.266,0 0,0" /></g><g
           style="fill:#2dafe3;fill-opacity:1"
           transform="translate(3.6377,0.9912)"
           id="g64"><path
             id="path66"
             style="fill:#2dafe3;fill-opacity:1;fill-rule:nonzero;stroke:none"
             d="m 0,0 h -0.651 c -0.264,0 -0.487,-0.228 -0.487,-0.496 0,-0.269 0.223,-0.495 0.487,-0.495 H 0 c 0.266,0 0.491,0.226 0.491,0.495 C 0.491,-0.231 0.262,0 0,0" /></g></g></g></g></svg>