<?xml version="1.0" encoding="UTF-8" standalone="no"?>
<!-- Created with Inkscape (http://www.inkscape.org/) -->

<svg
   xmlns:dc="http://purl.org/dc/elements/1.1/"
   xmlns:cc="http://creativecommons.org/ns#"
   xmlns:rdf="http://www.w3.org/1999/02/22-rdf-syntax-ns#"
   xmlns:svg="http://www.w3.org/2000/svg"
   xmlns="http://www.w3.org/2000/svg"
   xmlns:sodipodi="http://sodipodi.sourceforge.net/DTD/sodipodi-0.dtd"
   xmlns:inkscape="http://www.inkscape.org/namespaces/inkscape"
   version="1.1"
   id="svg2"
   xml:space="preserve"
   width="115.126"
   height="125.34587"
   viewBox="0 0 115.126 125.34587"
   sodipodi:docname="3.svg"
   inkscape:version="0.92.1 r15371"><metadata
     id="metadata8"><rdf:RDF><cc:Work
         rdf:about=""><dc:format>image/svg+xml</dc:format><dc:type
           rdf:resource="http://purl.org/dc/dcmitype/StillImage" /><dc:title></dc:title></cc:Work></rdf:RDF></metadata><defs
     id="defs6"><clipPath
       clipPathUnits="userSpaceOnUse"
       id="clipPath18"><path
         d="M 0,94.009 H 86.344 V 0 H 0 Z"
         id="path16"
         inkscape:connector-curvature="0" /></clipPath></defs><sodipodi:namedview
     pagecolor="#ffffff"
     bordercolor="#666666"
     borderopacity="1"
     objecttolerance="10"
     gridtolerance="10"
     guidetolerance="10"
     inkscape:pageopacity="0"
     inkscape:pageshadow="2"
     inkscape:window-width="716"
     inkscape:window-height="480"
     id="namedview4"
     showgrid="false"
     inkscape:zoom="1.8827904"
     inkscape:cx="57.563"
     inkscape:cy="62.672935"
     inkscape:window-x="0"
     inkscape:window-y="0"
     inkscape:window-maximized="0"
     inkscape:current-layer="g10" /><g
     id="g10"
     inkscape:groupmode="layer"
     inkscape:label="Vector Smart Object10"
     transform="matrix(1.3333333,0,0,-1.3333333,0,125.34587)"><g
       id="g12"><g
         id="g14"
         clip-path="url(#clipPath18)"><g
           id="g20"
           transform="translate(81.2446,31.6003)"><path
             d="M 0,0 C 0,-1.8 -0.601,-3.7 -2,-6 -3.101,-8 -4.601,-9.5 -6.601,-10.601 -15,-15.4 -23.5,-20.3 -31.7,-25.101 l -0.2,-0.099 c -2.1,-1.2 -4.4,-1.7 -7.2,-1.6 -2.2,0.199 -4.1,0.8 -5.9,1.9 -4.2,2.4 -8.3,4.799 -12.5,7.2 -4.2,2.4 -8.3,4.8 -12.5,7.2 -2.8,1.6 -4.7,4 -5.9,7.6 -0.4,1 -0.6,2.2 -0.6,3.6 v 9.7 19.5 c 0,5 2.1,8.6 6.5,11.3 6,3.6 12.2,7.1 18.2,10.6 2.4,1.4 4.8,2.7 7.2,4.1 1.8,1.1 3.7,1.6 6.1,1.6 h 0.6 c 2.2,-0.1 4.2,-0.7 6.1,-1.8 4.199,-2.4 8.4,-4.9 12.6,-7.3 4.2,-2.4 8.4,-4.9 12.7,-7.3 2.8,-1.6 4.7,-4.1 5.899,-7.8 0.301,-1 0.5,-2.2 0.5,-3.4 l 0,-29.9 z m 4.3,34.8 c -1.6,4.9 -4.3,8.4 -8.2,10.6 -4.201,2.5 -8.4,4.9 -12.6,7.3 -4.2,2.4 -8.4,4.8 -12.601,7.3 -2.699,1.5 -5.399,2.3 -8.399,2.4 -3.6,0.1 -6.7,-0.6 -9.4,-2.2 -2.4,-1.4 -4.8,-2.7 -7.1,-4.1 -6,-3.4 -12.2,-7 -18.3,-10.6 -5.8,-3.5 -8.9,-8.9 -8.9,-15.5 -0.1,-6.5 0,-13.1 0,-19.5 V 0.8 c 0,-1.901 0.3,-3.7 0.8,-5.2 1.6,-4.6 4.3,-8.1 8.1,-10.3 4.1,-2.401 8.3,-4.8 12.5,-7.2 4.2,-2.4 8.4,-4.8 12.5,-7.201 2.5,-1.5 5.1,-2.299 8.1,-2.5 h 1.4 c 3.199,0 6.1,0.801 8.699,2.301 l 0.101,0.1 c 8.2,4.8 16.7,9.7 25,14.5 2.7,1.5 4.899,3.599 6.5,6.4 1.8,3.1 2.6,5.699 2.6,8.5 V 30.1 C 5,31.5 4.8,33.2 4.3,34.8 M -38.2,8.6 c -3.7,0 -6.7,3 -6.7,6.7 0,3.7 3,6.7 6.7,6.7 3.7,0 6.7,-3 6.7,-6.7 0,-3.7 -3,-6.7 -6.7,-6.7 m 0,18.4 c -6.5,0 -11.7,-5.3 -11.7,-11.7 0,-6.5 5.3,-11.7 11.7,-11.7 6.5,0 11.7,5.3 11.7,11.7 0,6.5 -5.2,11.7 -11.7,11.7 M -14,13.3 -19.9,13 c -1.1,-0.1 -2,-0.8 -2.3,-1.9 -0.401,-1.5 -1,-2.9 -1.8,-4.3 -0.601,-0.9 -0.4,-2.1 0.3,-3 l 4,-4.401 -2.8,-2.799 -4.4,4 c -0.8,0.7 -2,0.9 -2.9,0.299 C -31.2,0.1 -32.601,-0.5 -34.101,-0.9 -35.2,-1.2 -35.9,-2.101 -36,-3.2 l -0.3,-5.901 h -3.9 l -0.3,5.901 c -0.1,1.099 -0.8,2 -1.9,2.3 -1.5,0.4 -2.9,1 -4.3,1.799 C -47.6,1.5 -48.8,1.3 -49.6,0.6 l -4.4,-4 -2.8,2.799 4,4.401 c 0.7,0.8 0.9,2 0.3,2.9 -0.8,1.4 -1.4,2.8 -1.8,4.3 -0.3,1.1 -1.2,1.8 -2.3,1.9 l -5.9,0.3 v 4.1 l 5.9,0.3 c 1.1,0.1 2,0.8 2.3,1.9 0.4,1.5 1,2.9 1.8,4.3 0.5,0.9 0.4,2.1 -0.3,2.9 l -4,4.4 2.8,2.8 4.4,-4 c 0.8,-0.7 2,-0.9 3,-0.3 1.3,0.8 2.8,1.4 4.3,1.8 1.1,0.3 1.8,1.2 1.9,2.3 l 0.3,5.9 h 3.9 l 0.3,-5.9 c 0.1,-1.1 0.799,-2 1.9,-2.3 1.5,-0.4 2.899,-1 4.3,-1.8 0.9,-0.6 2.099,-0.4 3,0.3 l 4.4,4 2.8,-2.8 -4,-4.4 c -0.7,-0.8 -0.9,-2 -0.3,-2.9 0.8,-1.3 1.4,-2.8 1.8,-4.3 0.3,-1.1 1.2,-1.8 2.3,-1.9 l 5.9,-0.3 v -4 z m 2.7,8.8 -6.5,0.3 c -0.301,0.7 -0.6,1.4 -0.9,2.1 l 4.4,4.8 c 0.9,1 0.9,2.5 -0.1,3.4 l -6.1,6.1 c -0.9,0.9 -2.5,1 -3.4,0.1 l -4.8,-4.4 c -0.7,0.3 -1.401,0.6 -2.1,0.9 l -0.301,6.5 c -0.099,1.3 -1.199,2.4 -2.5,2.4 H -42.3 c -1.3,0 -2.4,-1 -2.5,-2.4 l -0.3,-6.5 c -0.7,-0.3 -1.4,-0.6 -2.1,-0.9 l -4.8,4.4 c -1,0.9 -2.5,0.9 -3.4,-0.1 l -6.1,-6.1 c -0.9,-0.9 -1,-2.5 -0.1,-3.4 l 4.4,-4.9 c -0.3,-0.7 -0.6,-1.4 -0.9,-2.1 L -64.6,22 C -65.9,21.9 -67,20.8 -67,19.5 v -8.7 c 0,-1.3 1,-2.4 2.4,-2.5 L -58.1,8 c 0.3,-0.7 0.6,-1.4 0.9,-2.1 L -61.6,1 c -0.9,-1 -0.9,-2.5 0.1,-3.4 l 6.1,-6.1 c 0.9,-0.9 2.5,-1 3.4,-0.101 l 4.8,4.401 c 0.7,-0.3 1.4,-0.6 2.1,-0.901 l 0.3,-6.5 C -44.7,-12.9 -43.6,-14 -42.3,-14 h 8.699 c 1.301,0 2.401,1 2.5,2.399 l 0.301,6.5 c 0.699,0.301 1.4,0.601 2.1,0.901 l 4.8,-4.401 c 1,-0.899 2.5,-0.899 3.4,0.101 l 6.1,6.1 c 0.9,0.9 1,2.5 0.1,3.4 l -4.4,4.8 c 0.3,0.7 0.599,1.4 0.9,2.1 l 6.5,0.3 c 1.3,0.1 2.4,1.2 2.4,2.5 v 8.7 C -9,21 -10,22.1 -11.3,22.1"
             style="fill:#2dafe3;fill-opacity:1;fill-rule:nonzero;stroke:none"
             id="path22"
             inkscape:connector-curvature="0" /></g></g></g></g></svg>