<?xml version="1.0" encoding="UTF-8" standalone="no"?>
<svg
   xmlns:dc="http://purl.org/dc/elements/1.1/"
   xmlns:cc="http://creativecommons.org/ns#"
   xmlns:rdf="http://www.w3.org/1999/02/22-rdf-syntax-ns#"
   xmlns:svg="http://www.w3.org/2000/svg"
   xmlns="http://www.w3.org/2000/svg"
   viewBox="0 0 119.71467 106.93867"
   height="106.93867"
   width="119.71467"
   xml:space="preserve"
   id="svg2"
   version="1.1"><metadata
     id="metadata8"><rdf:RDF><cc:Work
         rdf:about=""><dc:format>image/svg+xml</dc:format><dc:type
           rdf:resource="http://purl.org/dc/dcmitype/StillImage" /><dc:title></dc:title></cc:Work></rdf:RDF></metadata><defs
     id="defs6"><clipPath
       id="clipPath32"
       clipPathUnits="userSpaceOnUse"><path
         id="path30"
         d="M 0,80.204 H 89.786 V 0 H 0 Z" /></clipPath></defs><g
     transform="matrix(1.3333333,0,0,-1.3333333,0,106.93867)"
     id="g10"><g
       transform="translate(28.5161,18.5444)"
       id="g12"><path
         id="path14"
         style="fill:#000000;fill-opacity:1;fill-rule:nonzero;stroke:none"
         d="M 0,0 V 31.852 H 32.822 V 6.962 h -18.03 z m 36.821,2.962 v 32.89 H -4 V -6.303 l 19.687,9.266 h 21.134 z" /></g><g
       style="fill:#2dafe3;fill-opacity:1;stroke:#2dafe3;stroke-opacity:1"
       transform="translate(28.5161,18.5444)"
       id="g16"><path
         id="path18"
         style="fill:#2dafe3;stroke:#2dafe3;stroke-width:0.25;stroke-linecap:butt;stroke-linejoin:miter;stroke-miterlimit:10;stroke-dasharray:none;stroke-opacity:1;fill-opacity:1"
         d="M 0,0 V 31.852 H 32.822 V 6.962 h -18.03 z m 36.821,2.962 v 32.89 H -4 V -6.303 l 19.687,9.266 h 21.134 z" /></g><path
       id="path20"
       style="fill:#2dafe3;fill-opacity:1;fill-rule:nonzero;stroke:#2dafe3;stroke-width:0.25;stroke-linecap:butt;stroke-linejoin:miter;stroke-miterlimit:10;stroke-dasharray:none;stroke-opacity:1"
       d="m 32.655,46.801 h 24.542 v -4 H 32.655 Z" /><path
       id="path22"
       style="fill:#2dafe3;fill-opacity:1;fill-rule:nonzero;stroke:#2dafe3;stroke-width:0.25;stroke-linecap:butt;stroke-linejoin:miter;stroke-miterlimit:10;stroke-dasharray:none;stroke-opacity:1"
       d="m 32.655,40.209 h 18.399 v -4 H 32.655 Z" /><path
       id="path24"
       style="fill:#2dafe3;fill-opacity:1;fill-rule:nonzero;stroke:#2dafe3;stroke-width:0.25;stroke-linecap:butt;stroke-linejoin:miter;stroke-miterlimit:10;stroke-dasharray:none;stroke-opacity:1"
       d="m 32.655,33.617 h 22.059 v -4 H 32.655 Z" /><g
       style="fill:#2dafe3;fill-opacity:1;stroke:#2dafe3;stroke-opacity:1"
       id="g26"><g
         style="fill:#2dafe3;fill-opacity:1;stroke:#2dafe3;stroke-opacity:1"
         clip-path="url(#clipPath32)"
         id="g28"><g
           style="fill:#2dafe3;fill-opacity:1;stroke:#2dafe3;stroke-opacity:1"
           transform="translate(71.4311,25.1196)"
           id="g34"><path
             id="path36"
             style="fill:#2dafe3;fill-opacity:1;fill-rule:nonzero;stroke:#2dafe3;stroke-opacity:1"
             d="m 0,0 c -0.016,0 -0.033,0.004 -0.051,0.004 v 24.219 c 0.025,0.126 0.039,0.255 0.039,0.387 v 3.852 H 0 c 7.848,0 14.231,-6.383 14.231,-14.231 C 14.231,6.384 7.848,0 0,0 m -20.535,-20.994 h -5.055 c -1.516,0 -2.749,1.232 -2.749,2.749 0,1.516 1.233,2.749 2.749,2.749 h 5.055 c 1.515,0 2.75,-1.233 2.75,-2.749 0,-1.517 -1.235,-2.749 -2.75,-2.749 m -46.771,35.366 c 0,7.846 6.385,14.23 14.232,14.23 0.025,0 0.051,-0.004 0.077,-0.004 v -0.755 c -0.012,-0.087 -0.026,-0.172 -0.026,-0.261 V 0.143 c -0.018,0 -0.033,-0.003 -0.051,-0.003 -7.847,0 -14.232,6.383 -14.232,14.232 M 0,32.462 c -0.074,0 -0.146,-0.01 -0.221,-0.012 -1.601,12.857 -12.566,22.509 -26.283,22.509 -13.669,0 -24.604,-9.585 -26.266,-22.373 -0.102,0.002 -0.202,0.017 -0.304,0.017 -10.054,0 -18.232,-8.179 -18.232,-18.23 0,-10.053 8.179,-18.231 18.232,-18.231 0.678,0 1.356,0.043 2.021,0.118 0.01,0 0.02,-0.003 0.029,-0.003 1.104,0 2,0.895 2,2 v 26.092 c 0.012,0.087 0.026,0.172 0.026,0.261 v 4.579 c 0,12.412 9.67,21.77 22.492,21.77 12.822,0 22.493,-9.357 22.493,-21.77 V 27.968 C -4.036,27.843 -4.052,27.714 -4.052,27.582 V -0.922 c -0.009,-0.077 -0.023,-0.152 -0.023,-0.231 v -6.642 c 0,-4.982 -3.506,-8.461 -8.727,-8.651 l -1.225,-0.046 c -0.773,2.873 -3.395,4.996 -6.51,4.996 h -5.055 c -3.722,0 -6.749,-3.027 -6.749,-6.749 0,-3.723 3.027,-6.749 6.749,-6.749 h 5.055 c 2.93,0 5.422,1.879 6.353,4.492 l 1.53,0.058 c 7.406,0.271 12.578,5.474 12.578,12.649 v 3.797 c 0.025,0 0.051,-0.002 0.074,-0.002 10.053,0 18.231,8.179 18.231,18.231 0,10.052 -8.176,18.231 -18.229,18.231" /></g><g
           style="fill:#2dafe3;fill-opacity:1;stroke:#2dafe3;stroke-opacity:1"
           transform="translate(71.4311,25.1196)"
           id="g38"><path
             id="path40"
             style="fill:#2dafe3;stroke:#2dafe3;stroke-width:0.25;stroke-linecap:butt;stroke-linejoin:miter;stroke-miterlimit:10;stroke-dasharray:none;stroke-opacity:1;fill-opacity:1"
             d="m 0,0 c -0.016,0 -0.033,0.004 -0.051,0.004 v 24.219 c 0.025,0.126 0.039,0.255 0.039,0.387 v 3.852 H 0 c 7.848,0 14.231,-6.383 14.231,-14.231 C 14.231,6.384 7.848,0 0,0 Z m -20.535,-20.994 h -5.055 c -1.516,0 -2.749,1.232 -2.749,2.749 0,1.516 1.233,2.749 2.749,2.749 h 5.055 c 1.515,0 2.75,-1.233 2.75,-2.749 0,-1.517 -1.235,-2.749 -2.75,-2.749 z m -46.771,35.366 c 0,7.846 6.385,14.23 14.232,14.23 0.025,0 0.051,-0.004 0.077,-0.004 v -0.755 c -0.012,-0.087 -0.026,-0.172 -0.026,-0.261 V 0.143 c -0.018,0 -0.033,-0.003 -0.051,-0.003 -7.847,0 -14.232,6.383 -14.232,14.232 z M 0,32.462 c -0.074,0 -0.146,-0.01 -0.221,-0.012 -1.601,12.857 -12.566,22.509 -26.283,22.509 -13.669,0 -24.604,-9.585 -26.266,-22.373 -0.102,0.002 -0.202,0.017 -0.304,0.017 -10.054,0 -18.232,-8.179 -18.232,-18.23 0,-10.053 8.179,-18.231 18.232,-18.231 0.678,0 1.356,0.043 2.021,0.118 0.01,0 0.02,-0.003 0.029,-0.003 1.104,0 2,0.895 2,2 v 26.092 c 0.012,0.087 0.026,0.172 0.026,0.261 v 4.579 c 0,12.412 9.67,21.77 22.492,21.77 12.822,0 22.493,-9.357 22.493,-21.77 V 27.968 C -4.036,27.843 -4.052,27.714 -4.052,27.582 V -0.922 c -0.009,-0.077 -0.023,-0.152 -0.023,-0.231 v -6.642 c 0,-4.982 -3.506,-8.461 -8.727,-8.651 l -1.225,-0.046 c -0.773,2.873 -3.395,4.996 -6.51,4.996 h -5.055 c -3.722,0 -6.749,-3.027 -6.749,-6.749 0,-3.723 3.027,-6.749 6.749,-6.749 h 5.055 c 2.93,0 5.422,1.879 6.353,4.492 l 1.53,0.058 c 7.406,0.271 12.578,5.474 12.578,12.649 v 3.797 c 0.025,0 0.051,-0.002 0.074,-0.002 10.053,0 18.231,8.179 18.231,18.231 0,10.052 -8.176,18.231 -18.229,18.231 z" /></g></g></g></g></svg>