<?xml version="1.0" encoding="UTF-8" standalone="no"?>
<svg
   xmlns:dc="http://purl.org/dc/elements/1.1/"
   xmlns:cc="http://creativecommons.org/ns#"
   xmlns:rdf="http://www.w3.org/1999/02/22-rdf-syntax-ns#"
   xmlns:svg="http://www.w3.org/2000/svg"
   xmlns="http://www.w3.org/2000/svg"
   viewBox="0 0 97.866669 97.866669"
   height="97.866669"
   width="97.866669"
   xml:space="preserve"
   id="svg2"
   version="1.1"><metadata
     id="metadata8"><rdf:RDF><cc:Work
         rdf:about=""><dc:format>image/svg+xml</dc:format><dc:type
           rdf:resource="http://purl.org/dc/dcmitype/StillImage" /><dc:title></dc:title></cc:Work></rdf:RDF></metadata><defs
     id="defs6"><clipPath
       id="clipPath18"
       clipPathUnits="userSpaceOnUse"><path
         id="path16"
         d="M 0,73.4 H 73.4 V 0 H 0 Z" /></clipPath></defs><g
     transform="matrix(1.3333333,0,0,-1.3333333,0,97.866667)"
     id="g10"><g
       style="fill:#24abe2;fill-opacity:1"
       id="g12"><g
         style="fill:#24abe2;fill-opacity:1"
         clip-path="url(#clipPath18)"
         id="g14"><g
           style="fill:#24abe2;fill-opacity:1"
           transform="translate(36.7,5.9998)"
           id="g20"><path
             id="path22"
             style="fill:#24abe2;fill-opacity:1;fill-rule:nonzero;stroke:none"
             d="m 0,0 c -16.9,0 -30.7,13.8 -30.7,30.7 0,16.9 13.8,30.7 30.7,30.7 16.9,0 30.7,-13.8 30.7,-30.7 C 30.7,13.8 16.9,0 0,0 M 0,67.4 C -20.3,67.4 -36.7,50.9 -36.7,30.7 -36.7,10.5 -20.3,-6 0,-6 20.3,-6 36.7,10.4 36.7,30.7 36.7,51 20.3,67.4 0,67.4" /></g><g
           style="fill:#24abe2;fill-opacity:1"
           transform="translate(44.9002,39.2)"
           id="g24"><path
             id="path26"
             style="fill:#24abe2;fill-opacity:1;fill-rule:nonzero;stroke:none"
             d="M 0,0 C -1.2,-1.1 -2.9,-1.6 -5.101,-1.6 H -11.7 V 10 h 6.599 C -3,10 -1.3,9.5 0,8.5 1.3,7.5 1.899,6.1 1.899,4.1 1.899,2.4 1.2,1 0,0 m 4.3,12.2 c -1.1,1 -2.3,1.7 -3.901,2.2 -1.5,0.5 -3.199,0.8 -5.099,0.8 H -17.3 V -1.5 h -3.6 v -5.1 h 3.6 V -10 h -3.6 v -5.1 h 3.6 v -6.8 h 5.6 v 6.8 h 10.9 v 5.1 h -10.9 v 3.3 h 6.4 c 1.8,0 3.5,0.2 5,0.7 1.6,0.5 2.9,1.2 4.1,2.1 1.2,0.9 2.099,2.1 2.8,3.4 0.7,1.4 1,3 1,4.8 0,1.7 -0.3,3.1 -0.9,4.5 -0.5,1.3 -1.301,2.4 -2.4,3.4" /></g></g></g></g></svg>