<svg xmlns="http://www.w3.org/2000/svg" viewBox="0 0 97.866669 97.866669" height="97.867" width="97.867"><defs><clipPath id="a"><path d="M0 73.4h73.4V0H0z"/></clipPath></defs><g clip-path="url(#a)" transform="matrix(1.33333 0 0 -1.33333 0 97.867)" fill="#24abe2"><path d="M36.7 6C19.8 6 6 19.8 6 36.7s13.8 30.7 30.7 30.7 30.7-13.8 30.7-30.7S53.6 6 36.7 6m0 67.4C16.4 73.4 0 56.9 0 36.7 0 16.5 16.4 0 36.7 0 57 0 73.4 16.4 73.4 36.7 73.4 57 57 73.4 36.7 73.4"/><path d="M54.187 38.61c-.219 5.237-1.32 10.306-3.206 14.977a43.28 43.28 0 0 1 9.22 4.28 31.515 31.515 0 0 0 8.081-19.257zm-2.959-18.16a45.154 45.154 0 0 1 2.98 15.055h14.107c-.278-7.445-3.14-14.237-7.714-19.51a43.252 43.252 0 0 1-9.373 4.455m-1.218-2.869a40.282 40.282 0 0 0 8.4-3.872C53.806 9.36 47.905 6.37 41.351 5.4c3.587 3.456 6.506 7.6 8.66 12.182m-26.753.032c2.153-4.588 5.073-8.737 8.661-12.197-6.546.996-12.433 4.01-17.02 8.38a40.248 40.248 0 0 0 8.36 3.817m-4.185 17.892a45.112 45.112 0 0 1 2.968-15.02 43.268 43.268 0 0 1-9.327-4.395c-4.525 5.26-7.354 12.015-7.63 19.415zm3.212 18.048a45.054 45.054 0 0 1-3.19-14.943H5.116c.44 7.336 3.388 14.006 8.001 19.162a43.392 43.392 0 0 1 9.168-4.219m1.267 2.858a40.305 40.305 0 0 0-8.189 3.637 31.554 31.554 0 0 0 16.564 7.937c-3.429-3.302-6.252-7.23-8.375-11.574m17.78 11.592a31.563 31.563 0 0 0 16.613-7.87 40.266 40.266 0 0 0-8.235-3.692c-2.127 4.34-4.949 8.264-8.379 11.562m-3.198-13.56V66.71c3.494-3.103 6.372-6.884 8.524-11.119a43.351 43.351 0 0 0-8.524-1.147m0-15.833v12.728a46.32 46.32 0 0 1 9.861 1.378c1.808-4.385 2.867-9.164 3.088-14.106zm0-15.833v12.728h12.968c-.137-4.953-1.122-9.75-2.856-14.172a46.27 46.27 0 0 1-10.112 1.444m0-3.104a43.29 43.29 0 0 0 8.857-1.227c-2.184-4.499-5.184-8.508-8.857-11.774zm-3.105 0V6.784c-3.624 3.252-6.588 7.227-8.749 11.686a43.192 43.192 0 0 0 8.75 1.203m0 15.832V22.777a46.274 46.274 0 0 1-10.002-1.417 41.991 41.991 0 0 0-2.849 14.145zm0 15.833V38.61H22.2c.218 4.933 1.273 9.703 3.075 14.082a46.262 46.262 0 0 1 9.754-1.354m0 3.105a43.169 43.169 0 0 0-8.42 1.125c2.13 4.196 4.971 7.948 8.42 11.04zM36.7 71.45c-19.16 0-34.75-15.589-34.75-34.75 0-19.16 15.59-34.75 34.75-34.75 19.161 0 34.75 15.59 34.75 34.75 0 19.161-15.589 34.75-34.75 34.75"/></g></svg>