<?xml version="1.0" encoding="UTF-8" standalone="no"?>
<svg
   xmlns:dc="http://purl.org/dc/elements/1.1/"
   xmlns:cc="http://creativecommons.org/ns#"
   xmlns:rdf="http://www.w3.org/1999/02/22-rdf-syntax-ns#"
   xmlns:svg="http://www.w3.org/2000/svg"
   xmlns="http://www.w3.org/2000/svg"
   viewBox="0 0 97.866669 97.866669"
   height="97.866669"
   width="97.866669"
   xml:space="preserve"
   id="svg2"
   version="1.1"><metadata
     id="metadata8"><rdf:RDF><cc:Work
         rdf:about=""><dc:format>image/svg+xml</dc:format><dc:type
           rdf:resource="http://purl.org/dc/dcmitype/StillImage" /><dc:title></dc:title></cc:Work></rdf:RDF></metadata><defs
     id="defs6"><clipPath
       id="clipPath18"
       clipPathUnits="userSpaceOnUse"><path
         id="path16"
         d="M 0,73.4 H 73.4 V 0 H 0 Z" /></clipPath></defs><g
     transform="matrix(1.3333333,0,0,-1.3333333,0,97.866667)"
     id="g10"><g
       style="fill:#24abe2;fill-opacity:1"
       id="g12"><g
         style="fill:#24abe2;fill-opacity:1"
         clip-path="url(#clipPath18)"
         id="g14"><g
           style="fill:#24abe2;fill-opacity:1"
           transform="translate(36.6999,5.9999)"
           id="g20"><path
             id="path22"
             style="fill:#24abe2;fill-opacity:1;fill-rule:nonzero;stroke:none"
             d="m 0,0 c -16.9,0 -30.7,13.8 -30.7,30.7 0,16.9 13.8,30.7 30.7,30.7 16.9,0 30.7,-13.8 30.7,-30.7 C 30.7,13.8 16.9,0 0,0 M 0,67.4 C -20.3,67.4 -36.7,50.9 -36.7,30.7 -36.7,10.5 -20.3,-6 0,-6 20.3,-6 36.7,10.4 36.7,30.7 36.7,51 20.3,67.4 0,67.4" /></g><g
           style="fill:#24abe2;fill-opacity:1"
           transform="translate(54.1872,38.6103)"
           id="g24"><path
             id="path26"
             style="fill:#24abe2;fill-opacity:1;fill-rule:nonzero;stroke:none"
             d="m 0,0 c -0.219,5.237 -1.32,10.306 -3.206,14.977 3.24,1.065 6.332,2.498 9.22,4.28 C 10.674,14.089 13.653,7.382 14.095,0 Z m -2.959,-18.16 c 1.814,4.71 2.844,9.803 2.98,15.055 h 14.107 c -0.278,-7.445 -3.141,-14.237 -7.714,-19.51 -2.93,1.853 -6.072,3.348 -9.373,4.455 m -1.218,-2.869 c 2.95,-0.971 5.767,-2.265 8.4,-3.872 -4.604,-4.351 -10.505,-7.34 -17.059,-8.31 3.587,3.456 6.506,7.6 8.659,12.182 m -26.752,0.032 c 2.153,-4.588 5.073,-8.737 8.661,-12.197 -6.546,0.996 -12.433,4.01 -17.021,8.379 2.623,1.586 5.427,2.862 8.36,3.818 m -4.184,17.892 c 0.135,-5.239 1.161,-10.321 2.968,-15.021 -3.283,-1.092 -6.408,-2.565 -9.327,-4.394 -4.525,5.259 -7.354,12.015 -7.63,19.415 z m 3.212,18.048 C -33.777,10.281 -34.875,5.224 -35.092,0 H -49.07 c 0.44,7.336 3.388,14.006 8.001,19.162 2.874,-1.756 5.948,-3.168 9.168,-4.219 m 1.267,2.858 c -2.867,0.91 -5.612,2.127 -8.189,3.637 4.519,4.133 10.236,6.976 16.564,7.937 -3.429,-3.302 -6.252,-7.231 -8.375,-11.574 m 17.779,11.592 C -6.515,28.458 -0.779,25.64 3.759,21.522 1.17,19.99 -1.59,18.755 -4.476,17.831 c -2.127,4.339 -4.949,8.264 -8.379,11.562 m -3.198,-13.56 v 12.266 c 3.494,-3.103 6.372,-6.884 8.524,-11.119 -2.76,-0.656 -5.613,-1.046 -8.524,-1.147 m 0,-15.833 v 12.728 c 3.373,0.109 6.677,0.573 9.861,1.378 C -4.384,9.721 -3.325,4.942 -3.104,0 Z m 0,-15.833 v 12.728 h 12.968 c -0.137,-4.953 -1.122,-9.75 -2.856,-14.172 -3.262,0.844 -6.65,1.333 -10.112,1.444 m 0,-3.104 c 3.03,-0.106 5.994,-0.521 8.857,-1.227 -2.184,-4.499 -5.184,-8.508 -8.857,-11.774 z m -3.105,0 v -12.889 c -3.624,3.252 -6.588,7.227 -8.749,11.686 2.829,0.691 5.759,1.099 8.749,1.203 m 0,15.832 v -12.728 c -3.422,-0.111 -6.773,-0.589 -10.001,-1.417 -1.729,4.415 -2.712,9.202 -2.849,14.145 z m 0,15.833 V 0 h -12.83 c 0.219,4.933 1.274,9.703 3.076,14.082 3.152,-0.79 6.419,-1.246 9.754,-1.354 m 0,3.105 c -2.874,0.099 -5.692,0.482 -8.42,1.125 2.129,4.196 4.971,7.948 8.42,11.039 z m 1.671,17.007 c -19.161,0 -34.75,-15.589 -34.75,-34.75 0,-19.161 15.589,-34.75 34.75,-34.75 19.161,0 34.75,15.589 34.75,34.75 0,19.161 -15.589,34.75 -34.75,34.75" /></g></g></g></g></svg>