<?xml version="1.0" encoding="UTF-8" standalone="no"?>
<svg
   xmlns:dc="http://purl.org/dc/elements/1.1/"
   xmlns:cc="http://creativecommons.org/ns#"
   xmlns:rdf="http://www.w3.org/1999/02/22-rdf-syntax-ns#"
   xmlns:svg="http://www.w3.org/2000/svg"
   xmlns="http://www.w3.org/2000/svg"
   viewBox="0 0 97.866669 97.866669"
   height="97.866669"
   width="97.866669"
   xml:space="preserve"
   id="svg2"
   version="1.1"><metadata
     id="metadata8"><rdf:RDF><cc:Work
         rdf:about=""><dc:format>image/svg+xml</dc:format><dc:type
           rdf:resource="http://purl.org/dc/dcmitype/StillImage" /><dc:title></dc:title></cc:Work></rdf:RDF></metadata><defs
     id="defs6"><clipPath
       id="clipPath18"
       clipPathUnits="userSpaceOnUse"><path
         id="path16"
         d="M 0,73.4 H 73.4 V 0 H 0 Z" /></clipPath></defs><g
     transform="matrix(1.3333333,0,0,-1.3333333,0,97.866667)"
     id="g10"><g
       style="fill:#24abe2;fill-opacity:1;stroke:#24abe2;stroke-opacity:1"
       id="g12"><g
         style="fill:#24abe2;fill-opacity:1;stroke:#24abe2;stroke-opacity:1"
         clip-path="url(#clipPath18)"
         id="g14"><g
           style="fill:#24abe2;fill-opacity:1;stroke:#24abe2;stroke-opacity:1"
           transform="translate(36.7,5.9998)"
           id="g20"><path
             id="path22"
             style="fill:#24abe2;fill-opacity:1;fill-rule:nonzero;stroke:#24abe2;stroke-opacity:1"
             d="m 0,0 c -16.9,0 -30.7,13.8 -30.7,30.7 0,16.9 13.8,30.7 30.7,30.7 16.9,0 30.7,-13.8 30.7,-30.7 C 30.7,13.8 16.9,0 0,0 M 0,67.4 C -20.3,67.4 -36.7,50.9 -36.7,30.7 -36.7,10.5 -20.3,-6 0,-6 20.3,-6 36.7,10.4 36.7,30.7 36.7,51 20.3,67.4 0,67.4" /></g><g
           style="fill:#24abe2;fill-opacity:1;stroke:#24abe2;stroke-opacity:1"
           transform="translate(22.2259,27.1805)"
           id="g24"><path
             id="path26"
             style="fill:#24abe2;fill-opacity:1;fill-rule:nonzero;stroke:#24abe2;stroke-opacity:1"
             d="m 0,0 v 19.526 l 14.433,6.415 14.433,-6.415 V 0.062 C 28.372,-1.526 21.882,-5.927 14.433,-9.751 6.935,-5.901 0.413,-1.474 0,0 m 32.474,0 v 20.699 c 0,0.712 -0.42,1.358 -1.071,1.649 l -16.237,7.216 c -0.468,0.207 -1,0.207 -1.466,0 L -2.537,22.348 C -3.188,22.057 -3.608,21.411 -3.608,20.699 V 0 c 0,-4.106 10.795,-10.15 17.231,-13.387 0.254,-0.128 0.532,-0.193 0.81,-0.193 0.277,0 0.556,0.065 0.81,0.191 6.435,3.239 17.231,9.281 17.231,13.389" /></g><g
           style="fill:#24abe2;fill-opacity:1;stroke:#24abe2;stroke-opacity:1"
           transform="translate(22.2259,27.1805)"
           id="g28"><path
             id="path30"
             style="fill:#24abe2;stroke:#24abe2;stroke-width:1.5;stroke-linecap:butt;stroke-linejoin:miter;stroke-miterlimit:10;stroke-dasharray:none;stroke-opacity:1;fill-opacity:1"
             d="m 0,0 v 19.526 l 14.433,6.415 14.433,-6.415 V 0.062 C 28.372,-1.526 21.882,-5.927 14.433,-9.751 6.935,-5.901 0.413,-1.474 0,0 Z m 32.474,0 v 20.699 c 0,0.712 -0.42,1.358 -1.071,1.649 l -16.237,7.216 c -0.468,0.207 -1,0.207 -1.466,0 L -2.537,22.348 C -3.188,22.057 -3.608,21.411 -3.608,20.699 V 0 c 0,-4.106 10.795,-10.15 17.231,-13.387 0.254,-0.128 0.532,-0.193 0.81,-0.193 0.277,0 0.556,0.065 0.81,0.191 6.435,3.239 17.231,9.281 17.231,13.389 z" /></g><g
           style="fill:#24abe2;fill-opacity:1;stroke:#24abe2;stroke-opacity:1"
           transform="translate(35.2386,31.5979)"
           id="g32"><path
             id="path34"
             style="fill:#24abe2;fill-opacity:1;fill-rule:nonzero;stroke:#24abe2;stroke-opacity:1"
             d="M 0,0 -4.378,2.766 -5.805,0.508 -0.46,-2.869 c 0.219,-0.14 0.466,-0.207 0.712,-0.207 0.374,0 0.745,0.158 1.007,0.455 L 10.613,8.07 8.602,9.83 Z" /></g><g
           style="fill:#24abe2;fill-opacity:1;stroke:#24abe2;stroke-opacity:1"
           transform="translate(35.2386,31.5979)"
           id="g36"><path
             id="path38"
             style="fill:#24abe2;stroke:#24abe2;stroke-width:2;stroke-linecap:butt;stroke-linejoin:miter;stroke-miterlimit:10;stroke-dasharray:none;stroke-opacity:1;fill-opacity:1"
             d="M 0,0 -4.378,2.766 -5.805,0.508 -0.46,-2.869 c 0.219,-0.14 0.466,-0.207 0.712,-0.207 0.374,0 0.745,0.158 1.007,0.455 L 10.613,8.07 8.602,9.83 Z" /></g></g></g></g></svg>