<svg xmlns="http://www.w3.org/2000/svg" viewBox="0 0 97.866669 97.866669" height="97.867" width="97.867"><defs><clipPath id="a"><path d="M0 73.4h73.4V0H0z"/></clipPath></defs><g clip-path="url(#a)" transform="matrix(1.33333 0 0 -1.33333 0 97.867)" fill="#24abe2" stroke="#24abe2"><path d="M36.7 6C19.8 6 6 19.8 6 36.7s13.8 30.7 30.7 30.7 30.7-13.8 30.7-30.7S53.6 6 36.7 6m0 67.4C16.4 73.4 0 56.9 0 36.7 0 16.5 16.4 0 36.7 0 57 0 73.4 16.4 73.4 36.7 73.4 57 57 73.4 36.7 73.4"/><path d="M22.226 27.18v19.526l14.433 6.415 14.433-6.415V27.242c-.494-1.588-6.984-5.989-14.433-9.813-7.498 3.85-14.02 8.277-14.433 9.751m32.474 0v20.7c0 .711-.42 1.357-1.071 1.648l-16.237 7.216c-.468.207-1 .207-1.466 0l-16.237-7.216a1.808 1.808 0 0 1-1.071-1.649V27.18c0-4.106 10.795-10.15 17.23-13.387a1.801 1.801 0 0 1 1.62-.002c6.436 3.24 17.232 9.281 17.232 13.39"/><path d="M22.226 27.18v19.526l14.433 6.415 14.433-6.415V27.242c-.494-1.588-6.984-5.989-14.433-9.813-7.498 3.85-14.02 8.277-14.433 9.751zm32.474 0v20.7c0 .711-.42 1.357-1.071 1.648l-16.237 7.217c-.468.207-1 .207-1.466 0l-16.237-7.216a1.808 1.808 0 0 1-1.071-1.65V27.18c0-4.106 10.795-10.15 17.23-13.387a1.801 1.801 0 0 1 1.62-.002c6.436 3.24 17.232 9.281 17.232 13.39z" stroke-width="1.5" stroke-miterlimit="10"/><path d="M35.239 31.598l-4.378 2.766-1.427-2.258 5.345-3.377c.219-.14.466-.207.712-.207.374 0 .745.158 1.007.455l9.354 10.69-2.011 1.76z"/><path d="M35.239 31.598l-4.378 2.766-1.427-2.258 5.345-3.377c.219-.14.466-.207.712-.207.374 0 .745.158 1.007.455l9.354 10.69-2.011 1.76z" stroke-width="2" stroke-miterlimit="10"/></g></svg>