<?xml version="1.0" encoding="UTF-8" standalone="no"?>
<svg
   xmlns:dc="http://purl.org/dc/elements/1.1/"
   xmlns:cc="http://creativecommons.org/ns#"
   xmlns:rdf="http://www.w3.org/1999/02/22-rdf-syntax-ns#"
   xmlns:svg="http://www.w3.org/2000/svg"
   xmlns="http://www.w3.org/2000/svg"
   viewBox="0 0 245.34908 59.566665"
   height="59.566666"
   width="245.34909"
   xml:space="preserve"
   id="svg2"
   version="1.1"><metadata
     id="metadata8"><rdf:RDF><cc:Work
         rdf:about=""><dc:format>image/svg+xml</dc:format><dc:type
           rdf:resource="http://purl.org/dc/dcmitype/StillImage" /><dc:title></dc:title></cc:Work></rdf:RDF></metadata><defs
     id="defs6"><clipPath
       id="clipPath18"
       clipPathUnits="userSpaceOnUse"><path
         id="path16"
         d="M 0,66.342 H 87.011 V 0 H 0 Z" /></clipPath></defs><g
     transform="matrix(1.3333333,0,0,-1.3333333,0,88.455998)"
     id="g10"><g
       id="g12"><g
         clip-path="url(#clipPath18)"
         id="g14"><g
           transform="translate(2e-4,0.3517)"
           id="g20" /><g
           transform="translate(17.0158,11.1632)"
           id="g24" /><g
           transform="translate(27.0471,3.8654)"
           id="g28" /><g
           transform="translate(31.613,0.3517)"
           id="g32" /><g
           transform="translate(42.2482,3.7482)"
           id="g36" /><g
           transform="translate(51.9079,0.3517)"
           id="g40" /><g
           transform="translate(62.5632,11.5148)"
           id="g44" /><g
           transform="translate(69.862,0.3517)"
           id="g48" /><g
           transform="translate(86.8981,4.6056)"
           id="g52" /><path
           id="path56"
           style="fill:#231f20;fill-opacity:1;fill-rule:nonzero;stroke:none"
           d="M 0,21.667 H 17.402 V 66.342 H 0 Z" /><path
           id="path58"
           style="fill:#28aae1;fill-opacity:1;fill-rule:nonzero;stroke:none"
           d="M 34.804,21.667 H 45.246 V 44.01 H 34.804 Z" /><path
           id="path60"
           style="fill:#ed1c24;fill-opacity:1;fill-rule:nonzero;stroke:none"
           d="M 20.882,21.667 H 31.324 V 66.342 H 20.882 Z" /><path
           id="path62"
           style="fill:#231f20;fill-opacity:1;fill-rule:nonzero;stroke:none"
           d="M 55.687,21.667 H 73.089 V 66.342 H 55.687 Z" /><path
           id="path64"
           style="fill:#28aae1;fill-opacity:1;fill-rule:nonzero;stroke:none"
           d="M 76.57,21.673 H 87.011 V 58.327 H 76.57 Z" /></g></g><path
       id="path22"
       style="fill:#231f20;fill-opacity:1;fill-rule:nonzero;stroke:none;stroke-width:0.99999994"
       d="m 97.055914,36.487153 v 10.813 h 2.381 v -0.978 h 0.039 c 0.247,0.456 0.594996,0.803 1.043996,1.035 0.449,0.234 0.933,0.332 1.454,0.293 v -2.517 c -0.755,0 -1.334,-0.226 -1.737,-0.673 -0.402996,-0.451 -0.598996,-1.161001 -0.585996,-2.139001 v -5.833999 h -2.595" /><path
       id="path26"
       style="fill:#231f20;fill-opacity:1;fill-rule:nonzero;stroke:none;stroke-width:0.99999994"
       d="m 114.07151,47.298653 v -10.813 h -2.38 v 1.464 h -0.039 c -0.456,-0.610001 -0.999,-1.062 -1.63,-1.354 -0.631,-0.294 -1.292,-0.447 -1.981,-0.46 -1.444,0 -2.687,0.519 -3.727,1.560999 -1.041,1.040001 -1.561,2.407001 -1.561,4.099001 0,1.678 0.517,3.072 1.551,4.185 1.034,1.112 2.306,1.67 3.815,1.67 0.754,0 1.434,-0.162 2.04,-0.479 0.604,-0.319 1.102,-0.784 1.493,-1.395 h 0.039 v 1.522 z m -5.542,-2.108 c -0.936,0 -1.701,-0.323 -2.293,-0.966 -0.593,-0.643 -0.888,-1.455001 -0.888,-2.429 -0.013,-0.938 0.276,-1.705001 0.869,-2.304 0.592,-0.597 1.362,-0.897 2.312,-0.897 0.923,0 1.672,0.306 2.244,0.916999 0.573,0.612 0.859,1.412001 0.859,2.401001 0,0.936 -0.286,1.717 -0.859,2.342 -0.572,0.624 -1.321,0.936 -2.244,0.936" /><path
       id="path30"
       style="fill:#231f20;fill-opacity:1;fill-rule:nonzero;stroke:none;stroke-width:0.99999994"
       d="m 124.10281,40.000853 h 2.928 c -0.43,-1.185999 -1.104,-2.124999 -2.021,-2.819 -0.917,-0.697999 -2.026,-1.045 -3.326,-1.045 -1.717,0 -3.142,0.547 -4.275,1.638 -1.13,1.094001 -1.697,2.493 -1.697,4.197 0,1.613 0.556,2.963 1.669,4.05 1.111,1.085 2.513,1.628 4.205,1.628 1.34,0 2.491,-0.357 3.454,-1.074 0.963,-0.716 1.626,-1.672 1.991,-2.867 h -2.928 c -0.26,0.48 -0.608,0.845 -1.044,1.093 -0.436,0.246 -0.939,0.377 -1.512,0.389 -1.002,0 -1.793,-0.315 -2.371,-0.946 -0.579,-0.631 -0.869,-1.401 -0.869,-2.311 0,-0.964 0.297,-1.764 0.889,-2.403 0.591,-0.634999 1.375,-0.948 2.351,-0.934999 0.547,0 1.044,0.114 1.493,0.342999 0.448,0.227001 0.803,0.581 1.063,1.062" /><path
       id="path34"
       style="fill:#231f20;fill-opacity:1;fill-rule:nonzero;stroke:none;stroke-width:0.99999994"
       d="m 128.66871,36.487153 v 14.441 h 2.595 v -8.721001 l 3.474,5.093001 h 3.07101 l -3.91301,-5.29 4.56101,-5.523 h -3.48401 l -3.709,5.056 v -5.056 z" /><path
       id="path38"
       style="fill:#231f20;fill-opacity:1;fill-rule:nonzero;stroke:none;stroke-width:0.99999994"
       d="m 139.30391,39.883653 h 2.596 c 0.012,-0.404 0.152,-0.719 0.419,-0.946 0.267,-0.229 0.602,-0.343 1.006,-0.343 0.351,-0.013 0.64,0.078 0.868,0.273 0.228,0.195 0.341,0.475 0.341,0.84 -0.012,0.234 -0.084,0.439 -0.214,0.614 -0.131,0.175 -0.384,0.341 -0.761,0.499 -0.078,0.025 -0.16,0.051 -0.245,0.077 -0.084,0.026 -0.374,0.124 -0.868,0.293 -0.963,0.298 -1.661,0.702 -2.098,1.209 -0.436,0.507 -0.654,1.146 -0.654,1.913 0,0.937 0.345,1.727 1.035,2.371 0.689,0.644 1.561,0.967 2.615,0.967 0.976,0 1.788,-0.31 2.439,-0.928 0.651,-0.618 1.002,-1.414 1.054,-2.39 h -2.595 c -0.04,0.273 -0.144,0.484 -0.313,0.633 -0.168,0.149 -0.39,0.225 -0.663,0.225 -0.3,0 -0.536,-0.084 -0.713,-0.254 -0.175,-0.169 -0.263,-0.39 -0.263,-0.663 0,-0.286 0.104,-0.52 0.313,-0.702 0.207,-0.183 0.656,-0.352 1.346,-0.508 1.145,-0.286 1.961,-0.684 2.449,-1.189 0.488,-0.51 0.732,-1.179 0.732,-2.012 0,-1.066 -0.364,-1.956 -1.093,-2.664 -0.729,-0.71 -1.666,-1.063 -2.81,-1.063 -1.21,0 -2.166,0.367 -2.869,1.102 -0.702,0.735 -1.054,1.617 -1.054,2.646" /><path
       id="path42"
       style="fill:#231f20;fill-opacity:1;fill-rule:nonzero;stroke:none;stroke-width:0.99999994"
       d="m 148.96361,36.487153 v 8.51 h -1.269 v 2.303 h 1.269 v 3.628 h 2.59601 v -3.628 h 1.56 v -2.303 h -1.56 v -8.51 z" /><path
       id="path46"
       style="fill:#231f20;fill-opacity:1;fill-rule:nonzero;stroke:none;stroke-width:0.99999994"
       d="m 159.61891,47.650253 c 1.626,0 2.99,-0.565 4.088,-1.699 1.1,-1.132 1.65,-2.49 1.65,-4.076 0,-1.601001 -0.55,-2.957001 -1.65,-4.071 -1.098,-1.112 -2.462,-1.669 -4.088,-1.669 -1.639,0 -3.005,0.557 -4.098,1.669 -1.093,1.113999 -1.639,2.469999 -1.639,4.071 0,1.586 0.546,2.944 1.639,4.076 1.093,1.134 2.459,1.699 4.098,1.699 m 0,-2.459 c -0.936,0 -1.695,-0.325 -2.274,-0.977 -0.579,-0.649 -0.868,-1.43 -0.868,-2.339 -0.013,-0.912 0.274,-1.687 0.859,-2.325 0.585,-0.636 1.347,-0.956001 2.283,-0.956001 0.924,-0.011 1.678,0.303 2.264,0.949001 0.585,0.642 0.878,1.42 0.878,2.332 0,0.909 -0.293,1.69 -0.878,2.339 -0.586,0.652 -1.34,0.977 -2.264,0.977" /><path
       id="path50"
       style="fill:#231f20;fill-opacity:1;fill-rule:nonzero;stroke:none;stroke-width:0.99999994"
       d="m 166.91771,36.487153 v 10.813 h 2.381 v -0.978 h 0.039 c 0.247,0.456 0.595,0.803 1.044,1.035 0.449,0.234 0.933,0.332 1.454,0.293 v -2.517 c -0.755,0 -1.333,-0.226 -1.738,-0.673 -0.402,-0.451 -0.598,-1.161001 -0.585,-2.139001 v -5.833999 h -2.595" /><path
       id="path54"
       style="fill:#231f20;fill-opacity:1;fill-rule:nonzero;stroke:none;stroke-width:0.99999994"
       d="m 183.95381,40.741053 h -8.469 c 0.156,-0.664 0.49001,-1.187 1.005,-1.57 0.513,-0.385 1.122,-0.576 1.82501,-0.576 0.51999,-0.013 0.98499,0.069 1.395,0.245 0.40999,0.174 0.75099,0.431 1.02499,0.769 h 2.92601 c -0.456,-1.079 -1.14401,-1.929 -2.06901,-2.547 -0.923,-0.617 -1.983,-0.926 -3.18,-0.926 -1.626,0 -2.98599,0.546 -4.079,1.638 -1.093,1.094 -1.638,2.441 -1.638,4.039 0,1.602 0.549,2.975 1.64801,4.119 1.09899,1.144 2.46799,1.718 4.10799,1.718 1.627,0 2.956,-0.554 3.99,-1.66 1.035,-1.104 1.55901,-2.472 1.57101,-4.098 0,-0.259 -0.006,-0.477 -0.019,-0.653 -0.013,-0.176 -0.026,-0.342 -0.039,-0.498 m -8.508,2.303 h 5.854 c -0.183,0.664 -0.534,1.187 -1.054,1.571 -0.52,0.385 -1.118,0.575 -1.795,0.575 -0.716,-0.012 -1.344,-0.211 -1.883,-0.595 -0.54,-0.382 -0.915,-0.9 -1.122,-1.551" /></g></svg>