<svg xmlns="http://www.w3.org/2000/svg" viewBox="0 0 35.4048 40.457066" height="40.457" width="35.405"><defs><clipPath id="a"><path d="M0 30.343h26.554V0H0z"/></clipPath></defs><g clip-path="url(#a)" transform="matrix(1.33333 0 0 -1.33333 0 40.457)" fill="#24abe2"><path d="M13.324 1.353l-.048-.021-.048.02C1.587 6.194 1.25 23.331 1.25 25.268v.065l.054.039a21.094 21.094 0 0 0 11.97 3.72c4.282 0 8.42-1.286 11.972-3.72l.055-.038v-.066c0-1.938-.336-19.074-11.978-23.916m13.229 24.232l-.001.414-.44.264a22.036 22.036 0 0 1-12.836 4.08c-4.638 0-9.074-1.409-12.827-4.076L0 25.997V25.6C-.022 22.201.499 5 13.02.084L13.277 0l.26.086c12.568 4.898 13.048 22.1 13.017 25.498"/><path d="M9.858 18.938l5.904-5.904.884.884-5.904 5.904z"/><path d="M9.857 13.989l.883-.884 5.906 5.904-.884.884z"/></g></svg>