<svg xmlns="http://www.w3.org/2000/svg" viewBox="0 0 111.93333 157.07333" height="157.073" width="111.933"><defs><clipPath id="a"><path d="M0 117.805h83.95V0H0z"/></clipPath></defs><g clip-path="url(#a)" transform="matrix(1.33333 0 0 -1.33333 0 157.073)" fill="#24abe2" stroke="#24abe2"><path d="M79.95 66.587a4.758 4.758 0 0 0-4.752-4.753h-4.534c2.219 4.972 3.46 10.668 3.46 16.823 0 1.642-.098 3.256-.27 4.843h1.344a4.757 4.757 0 0 0 4.752-4.753zM41.975 45.521c-16.617 0-29.146 14.245-29.146 33.136 0 1.734.109 3.438.31 5.106 7.442.612 12.192 4.474 14.417 11.761 4.015-3.35 9.379-3.858 14.254-3.858 4.682 0 10.344.52 14.506 4.121 2.142-7.46 6.918-11.408 14.498-12.024.2-1.668.312-3.37.312-5.105-.001-18.892-12.532-33.137-29.151-33.137m9.268-6.734c0-5.109-4.157-9.266-9.268-9.266-5.108 0-9.266 4.156-9.266 9.266v5.15a30.747 30.747 0 0 1 9.266-1.416c3.25 0 6.354.497 9.268 1.415zM8.752 61.834A4.758 4.758 0 0 0 4 66.587v12.16A4.757 4.757 0 0 0 8.752 83.5h1.344a45.682 45.682 0 0 1-.268-4.843c0-6.155 1.24-11.852 3.46-16.823zm33.223 51.97c13.744 0 25.287-11.529 28.346-26.984-6.645.775-10.305 4.657-11.707 12.313a1.497 1.497 0 0 1-1.133 1.19 1.497 1.497 0 0 1-1.543-.562c-2.677-3.57-6.902-5.096-14.13-5.096-5.261 0-10.583.576-13.872 4.754a1.499 1.499 0 0 1-2.648-.629c-1.512-7.428-5.153-11.203-11.658-11.97 3.062 15.456 14.605 26.984 28.345 26.984M75.198 86.5h-1.762c-3.056 17.285-16 30.305-31.461 30.305-15.461 0-28.403-13.02-31.461-30.305H8.752C4.477 86.5 1 83.022 1 78.747v-12.16c0-4.274 3.477-7.753 7.752-7.753h6.043c3.502-6.226 8.668-11.037 14.914-13.77v-1.7c-10-3.689-24.568-13.239-24.568-25.18V3.938h3v14.245c0 9.73 12.53 18.39 21.568 22.016v-1.412c0-6.764 5.502-12.266 12.266-12.266s12.268 5.502 12.268 12.266v1.411C63.28 36.57 75.81 27.912 75.81 18.183V3.937h3v14.246c0 11.94-14.568 21.488-24.568 25.18v1.7c6.246 2.733 11.412 7.545 14.912 13.77h6.043c4.275 0 7.752 3.48 7.752 7.753v12.16c0 4.276-3.476 7.754-7.752 7.754"/><path d="M79.95 66.587a4.758 4.758 0 0 0-4.752-4.753h-4.534c2.219 4.972 3.46 10.668 3.46 16.823 0 1.642-.098 3.256-.27 4.843h1.344a4.757 4.757 0 0 0 4.752-4.753zM41.975 45.521c-16.617 0-29.146 14.245-29.146 33.136 0 1.734.109 3.438.31 5.106 7.442.612 12.192 4.474 14.417 11.761 4.015-3.35 9.379-3.858 14.254-3.858 4.682 0 10.344.52 14.506 4.121 2.142-7.46 6.918-11.408 14.498-12.024.2-1.668.312-3.37.312-5.105-.001-18.892-12.532-33.137-29.151-33.137zm9.268-6.734c0-5.109-4.157-9.266-9.268-9.266-5.108 0-9.266 4.156-9.266 9.266v5.15a30.747 30.747 0 0 1 9.266-1.416c3.25 0 6.354.497 9.268 1.415zM8.752 61.834A4.758 4.758 0 0 0 4 66.587v12.16A4.757 4.757 0 0 0 8.752 83.5h1.344a45.682 45.682 0 0 1-.268-4.843c0-6.155 1.24-11.852 3.46-16.823zm33.223 51.97c13.744 0 25.287-11.529 28.346-26.984-6.645.775-10.305 4.657-11.707 12.313a1.497 1.497 0 0 1-1.133 1.19 1.497 1.497 0 0 1-1.543-.562c-2.677-3.57-6.902-5.096-14.13-5.096-5.261 0-10.583.576-13.872 4.754a1.499 1.499 0 0 1-2.648-.629c-1.512-7.428-5.153-11.203-11.658-11.97 3.062 15.456 14.605 26.984 28.345 26.984zM75.198 86.5h-1.762c-3.056 17.285-16 30.305-31.461 30.305-15.461 0-28.403-13.02-31.461-30.305H8.752C4.477 86.5 1 83.022 1 78.747v-12.16c0-4.274 3.477-7.753 7.752-7.753h6.043c3.502-6.226 8.668-11.037 14.914-13.77v-1.7c-10-3.689-24.568-13.239-24.568-25.18V3.938h3v14.245c0 9.73 12.53 18.39 21.568 22.016v-1.412c0-6.764 5.502-12.266 12.266-12.266s12.268 5.502 12.268 12.266v1.411C63.28 36.57 75.81 27.912 75.81 18.183V3.937h3v14.246c0 11.94-14.568 21.488-24.568 25.18v1.7c6.246 2.733 11.412 7.545 14.912 13.77h6.043c4.275 0 7.752 3.48 7.752 7.753v12.16c0 4.276-3.476 7.754-7.752 7.754z" stroke-width="2" stroke-miterlimit="10"/><path d="M41.975 55.38c-2.844 0-5.156 1.964-5.156 4.38h-3c0-4.07 3.658-7.38 8.156-7.38 4.499 0 8.159 3.31 8.159 7.38h-3c0-2.417-2.315-4.38-5.159-4.38"/><path d="M41.975 55.38c-2.844 0-5.156 1.964-5.156 4.38h-3c0-4.07 3.658-7.38 8.156-7.38 4.499 0 8.159 3.31 8.159 7.38h-3c0-2.417-2.315-4.38-5.159-4.38z" stroke-width="2" stroke-miterlimit="10"/><path d="M48.819 78.833h12.545v-8.999H48.819zm-13.688-8.999H22.586v8.999h12.545zm10.688 5.816h-7.688v6.183H19.586V66.834h18.545v5.816h7.688v-5.816h18.545v14.999H45.819z"/><path d="M48.819 78.833h12.545v-8.999H48.819zm-13.688-8.999H22.586v8.999h12.545zm10.688 5.816h-7.688v6.183H19.586V66.834h18.545v5.816h7.688v-5.816h18.545v14.999H45.819z" stroke-width="2" stroke-miterlimit="10"/><path d="M61.233 24.4H22.719a6.038 6.038 0 0 1-6.031-6.03V1h3v17.37a3.034 3.034 0 0 0 3.03 3.03h38.515a3.034 3.034 0 0 0 3.03-3.03V1h3v17.37a6.037 6.037 0 0 1-6.03 6.03"/><path d="M61.233 24.4H22.719a6.038 6.038 0 0 1-6.031-6.03V1h3v17.37a3.034 3.034 0 0 0 3.03 3.03h38.515a3.034 3.034 0 0 0 3.03-3.03V1h3v17.37a6.037 6.037 0 0 1-6.03 6.03z" stroke-width="2" stroke-miterlimit="10"/><path d="M37.975 10.168h8.002v-3h-8.002z" stroke-width="2" stroke-miterlimit="10"/></g></svg>