<svg xmlns="http://www.w3.org/2000/svg" viewBox="0 0 82.666664 70.666664" height="70.667" width="82.667"><defs><clipPath id="a"><path d="M0 53h62V0H0z"/></clipPath></defs><path d="M18.667 44v13.334H40v5.332h-2.666v2.668H20V68h17.332v2.667h8V68H64v-2.666H45.334v-2.668h-2.667v-5.332H64V44zm2.667 2.667h40v8h-40zm18.665 18.667h2.668V68H40z" fill="#24abe2"/><path d="M24 49.333h13.333V52H24zm32 0h2.667V52H56zm-5.333 0h2.666V52h-2.666zm-5.334 0H48V52h-2.667z" fill="#24abe2"/><g clip-path="url(#a)" transform="matrix(1.33333 0 0 -1.33333 0 70.667)" fill="#24abe2"><path d="M55.9 33.2C56.9 42.5 50 53 38 53c-5.8 0-11.2-2.8-14.6-7.5C14.7 48 7 40.8 7 33.5c-4.2-1.3-7-5.1-7-9.5 0-5.5 4.5-10 10-10h3v2h-3c-4.4 0-8 3.6-8 8 0 7 7 8 7 8-.5 10.5 10.1 13.7 15.2 11.2 0 0 4.3 7.8 13.8 7.8 12.6 0 17.4-12.4 15.7-19.1 0 0 6.3-1.5 6.3-7.9 0-4.4-3.6-8-8-8h-3v-2h3c5.5 0 10 4.5 10 10 0 4.1-2.4 7.7-6.1 9.2"/><path d="M51 35c0 7.2-5.8 13-13 13v-2c6.1 0 11-4.9 11-11zm-19.495-8.698a7.883 7.883 0 0 0-1.583.262 8.13 8.13 0 0 0-.546.201 4.783 4.783 0 0 0-2.777 4.336 4.784 4.784 0 0 0 4.78 4.778 4.783 4.783 0 0 0 4.776-4.712h1.727a6.511 6.511 0 0 1-6.503 6.437c-3.587 0-6.506-2.917-6.506-6.503a6.507 6.507 0 0 1 3.426-5.724 7.898 7.898 0 0 1 1.075-.45 9.668 9.668 0 0 1 1.927-.336c.217-.016.967-.024 1.187-.026h11.889v1.721h-11.87c-.157 0-.847.006-1.002.016m1.003 2.7c-.125 0-.782.005-.903.015a5.983 5.983 0 0 0-.696.092 2.858 2.858 0 0 0-.511.184 2.057 2.057 0 1 0 3.035 1.874h1.658a3.713 3.713 0 0 1-3.712 3.65 3.718 3.718 0 0 1-3.72-3.716 3.71 3.71 0 0 1 2.04-3.312c.185-.109.536-.223.636-.249.34-.09.799-.15 1.17-.178.139-.012.812-.017.953-.018h11.918v1.658zm-8.7-4.429h-1.736v11.303H19.53v1.738h4.278zm-6.185 10.435v-1.67h1.908v-8.765h1.67v10.435z"/></g></svg>