<svg xmlns="http://www.w3.org/2000/svg" viewBox="0 0 122.66667 125.33333" height="125.333" width="122.667"><defs><clipPath id="a"><path d="M0 94h92V0H0z"/></clipPath></defs><g clip-path="url(#a)" transform="matrix(1.33333 0 0 -1.33333 0 125.333)"><path d="M49 45h30V7H49zm-36 0h30V7H13zm36 18h36V51H49zM7 63h36V51H7zm51 24c5.006 0 9-3.994 9-9s-3.994-9-9-9h-9v9c0 5.006 3.994 9 9 9m-24 0c5.006 0 9-3.994 9-9v-9h-9c-5.006 0-9 3.994-9 9s3.994 9 9 9m0 6c-8.249 0-15-6.751-15-15a14.9 14.9 0 0 1 3.031-9H4c-1.571 0-3-1.429-3-3V48c0-1.571 1.429-3 3-3h3V4c0-1.57 1.429-3 3-3h72c1.57 0 3 1.43 3 3v41h3c1.57 0 3 1.429 3 3v18c0 1.571-1.43 3-3 3H69.969A14.9 14.9 0 0 1 73 78c0 8.249-6.751 15-15 15-4.894 0-9.258-2.408-12-6.062C43.257 90.592 38.893 93 34 93"/><path d="M49 45h30V7H49zm-36 0h30V7H13zm36 18h36V51H49zM7 63h36V51H7zm51 24c5.006 0 9-3.994 9-9s-3.994-9-9-9h-9v9c0 5.006 3.994 9 9 9zm-24 0c5.006 0 9-3.994 9-9v-9h-9c-5.006 0-9 3.994-9 9s3.994 9 9 9zm0 6c-8.249 0-15-6.751-15-15a14.9 14.9 0 0 1 3.031-9H4c-1.571 0-3-1.429-3-3V48c0-1.571 1.429-3 3-3h3V4c0-1.57 1.429-3 3-3h72c1.57 0 3 1.43 3 3v41h3c1.57 0 3 1.429 3 3v18c0 1.571-1.43 3-3 3H69.969A14.9 14.9 0 0 1 73 78c0 8.249-6.751 15-15 15-4.894 0-9.258-2.408-12-6.062C43.257 90.592 38.893 93 34 93z" fill="none" stroke="#000" stroke-width="2" stroke-miterlimit="10"/></g></svg>