<svg xmlns="http://www.w3.org/2000/svg" viewBox="0 0 74.400002 88" height="88" width="74.4"><defs><clipPath id="a"><path d="M0 66h55.8V0H0z"/></clipPath><clipPath id="b"><path d="M0 66h55.8V0H0z"/></clipPath></defs><path d="M.333 17.533h73.734V.333H.333zm2-15.2h69.732v13.334h.135H2.333z"/><g clip-path="url(#a)" transform="matrix(1.33333 0 0 -1.33333 0 88)"><path d="M54.15 54.25H1.75v10h52.3v-10zm-53.9-1.4h55.3v12.9H.25z" fill="none" stroke="#000" stroke-width=".5" stroke-miterlimit="10"/></g><path d="M59.4 8.067h2v2h-2zm4.4 0h2v2h-2zm-8.8 0h2v2h-2zm-20.133 0h15.865v2H34.867z" stroke="#000" stroke-width=".667" stroke-miterlimit="10"/><g clip-path="url(#b)" transform="matrix(1.33333 0 0 -1.33333 0 88)"><path d="M8.45 60.85c.9 0 1.6-.7 1.6-1.6 0-.9-.7-1.7-1.6-1.7-.9 0-1.6.7-1.6 1.6 0 .9.7 1.7 1.6 1.7m0-4.8c1.7 0 3.1 1.4 3.1 3.1 0 1.7-1.4 3.1-3.1 3.1-1.7 0-3.1-1.4-3.1-3.1 0-1.7 1.4-3.1 3.1-3.1"/><path d="M8.45 60.85c.9 0 1.6-.7 1.6-1.6 0-.9-.7-1.7-1.6-1.7-.9 0-1.6.7-1.6 1.6 0 .9.7 1.7 1.6 1.7zm0-4.8c1.7 0 3.1 1.4 3.1 3.1 0 1.7-1.4 3.1-3.1 3.1-1.7 0-3.1-1.4-3.1-3.1 0-1.7 1.4-3.1 3.1-3.1z" fill="none" stroke="#000" stroke-width=".5" stroke-miterlimit="10"/><path d="M17.25 60.85c.9 0 1.6-.7 1.6-1.6 0-.9-.7-1.6-1.6-1.6-.9 0-1.6.7-1.6 1.6 0 .9.7 1.6 1.6 1.6m0-4.8c1.7 0 3.1 1.4 3.1 3.1 0 1.7-1.4 3.1-3.1 3.1-1.7 0-3.1-1.4-3.1-3.1 0-1.7 1.4-3.1 3.1-3.1"/><path d="M17.25 60.85c.9 0 1.6-.7 1.6-1.6 0-.9-.7-1.6-1.6-1.6-.9 0-1.6.7-1.6 1.6 0 .9.7 1.6 1.6 1.6zm0-4.8c1.7 0 3.1 1.4 3.1 3.1 0 1.7-1.4 3.1-3.1 3.1-1.7 0-3.1-1.4-3.1-3.1 0-1.7 1.4-3.1 3.1-3.1z" fill="none" stroke="#000" stroke-width=".5" stroke-miterlimit="10"/><path d="M1.75 48.55h52.3v-9.9H1.75zm-1.5-11.5h55.3v13H.25z" stroke="#000" stroke-width=".5" stroke-miterlimit="10"/><path d="M44.55 44.35h1.5v-1.5h-1.5zm3.3 0h1.5v-1.5h-1.5zm-6.6 0h1.5v-1.5h-1.5zm-15.1 0h11.899v-1.5H26.15z" stroke="#000" stroke-width=".5" stroke-miterlimit="10"/><path d="M8.45 41.95c-.9 0-1.6.7-1.6 1.6 0 .9.7 1.6 1.6 1.6.9 0 1.6-.7 1.6-1.6 0-.9-.7-1.6-1.6-1.6m0 4.7c-1.7 0-3.1-1.4-3.1-3.1 0-1.7 1.4-3.1 3.1-3.1 1.7 0 3.1 1.4 3.1 3.1.1 1.7-1.4 3.1-3.1 3.1"/><path d="M8.45 41.95c-.9 0-1.6.7-1.6 1.6 0 .9.7 1.6 1.6 1.6.9 0 1.6-.7 1.6-1.6 0-.9-.7-1.6-1.6-1.6zm0 4.7c-1.7 0-3.1-1.4-3.1-3.1 0-1.7 1.4-3.1 3.1-3.1 1.7 0 3.1 1.4 3.1 3.1.1 1.7-1.4 3.1-3.1 3.1z" fill="none" stroke="#000" stroke-width=".5" stroke-miterlimit="10"/><path d="M17.25 41.95c-.9 0-1.6.7-1.6 1.6 0 .9.7 1.6 1.6 1.6.9 0 1.6-.7 1.6-1.6 0-.9-.7-1.6-1.6-1.6m0 4.7c-1.7 0-3.1-1.4-3.1-3.1 0-1.7 1.4-3.1 3.1-3.1 1.7 0 3.1 1.4 3.1 3.1 0 1.7-1.4 3.1-3.1 3.1"/><path d="M17.25 41.95c-.9 0-1.6.7-1.6 1.6 0 .9.7 1.6 1.6 1.6.9 0 1.6-.7 1.6-1.6 0-.9-.7-1.6-1.6-1.6zm0 4.7c-1.7 0-3.1-1.4-3.1-3.1 0-1.7 1.4-3.1 3.1-3.1 1.7 0 3.1 1.4 3.1 3.1 0 1.7-1.4 3.1-3.1 3.1z" fill="none" stroke="#000" stroke-width=".5" stroke-miterlimit="10"/><path d="M1.75 32.85h52.3v-9.9H1.75zm-1.5-11.4h55.3v12.9H.25z" stroke="#000" stroke-width=".5" stroke-miterlimit="10"/><path d="M47.85 28.65h1.5v-1.5h-1.5zm-3.3 0h1.5v-1.5h-1.5zm-3.3 0h1.5v-1.5h-1.5zm-15.1 0h11.899v-1.5H26.15z" stroke="#000" stroke-width=".5" stroke-miterlimit="10"/><path d="M8.45 26.25c-.9 0-1.6.7-1.6 1.6 0 .9.7 1.6 1.6 1.6.9 0 1.6-.7 1.6-1.6 0-.9-.7-1.6-1.6-1.6m0 4.8c-1.7 0-3.1-1.4-3.1-3.1 0-1.7 1.4-3.1 3.1-3.1 1.7 0 3.1 1.4 3.1 3.1.1 1.7-1.4 3.1-3.1 3.1"/><path d="M8.45 26.25c-.9 0-1.6.7-1.6 1.6 0 .9.7 1.6 1.6 1.6.9 0 1.6-.7 1.6-1.6 0-.9-.7-1.6-1.6-1.6zm0 4.8c-1.7 0-3.1-1.4-3.1-3.1 0-1.7 1.4-3.1 3.1-3.1 1.7 0 3.1 1.4 3.1 3.1.1 1.7-1.4 3.1-3.1 3.1z" fill="none" stroke="#000" stroke-width=".5" stroke-miterlimit="10"/><path d="M17.25 26.25c-.9 0-1.6.7-1.6 1.6 0 .9.7 1.6 1.6 1.6.9 0 1.6-.7 1.6-1.6 0-.9-.7-1.6-1.6-1.6m0 4.8c-1.7 0-3.1-1.4-3.1-3.1 0-1.7 1.4-3.1 3.1-3.1 1.7 0 3.1 1.4 3.1 3.1 0 1.7-1.4 3.1-3.1 3.1"/><path d="M17.25 26.25c-.9 0-1.6.7-1.6 1.6 0 .9.7 1.6 1.6 1.6.9 0 1.6-.7 1.6-1.6 0-.9-.7-1.6-1.6-1.6zm0 4.8c-1.7 0-3.1-1.4-3.1-3.1 0-1.7 1.4-3.1 3.1-3.1 1.7 0 3.1 1.4 3.1 3.1 0 1.7-1.4 3.1-3.1 3.1z" fill="none" stroke="#000" stroke-width=".5" stroke-miterlimit="10"/><path d="M1.75 17.15h52.3v-9.9H1.75zM.25 5.75h7.9v-4h-3.6V.25h8.7v1.5h-3.6v4h36.5v-4h-3.6V.25h8.7v1.5h-3.6v4h7.9v12.9H.25z"/><path d="M1.75 17.15h52.3v-9.9H1.75zM.25 5.75h7.9v-4h-3.6V.25h8.7v1.5h-3.6v4h36.5v-4h-3.6V.25h8.7v1.5h-3.6v4h7.9v12.9H.25z" fill="none" stroke="#000" stroke-width=".5" stroke-miterlimit="10"/><path d="M47.85 12.95h1.5v-1.5h-1.5zm-3.3 0h1.5v-1.5h-1.5zm-3.3 0h1.5v-1.5h-1.5zm-15.1 0h11.899v-1.5H26.15z" stroke="#000" stroke-width=".5" stroke-miterlimit="10"/><path d="M8.45 10.55c-.9 0-1.6.7-1.6 1.6 0 .9.7 1.6 1.6 1.6.9 0 1.6-.7 1.6-1.6 0-.9-.7-1.6-1.6-1.6m0 4.8c-1.7 0-3.1-1.4-3.1-3.1 0-1.7 1.4-3.1 3.1-3.1 1.7 0 3.1 1.4 3.1 3.1.1 1.7-1.4 3.1-3.1 3.1"/><path d="M8.45 10.55c-.9 0-1.6.7-1.6 1.6 0 .9.7 1.6 1.6 1.6.9 0 1.6-.7 1.6-1.6 0-.9-.7-1.6-1.6-1.6zm0 4.8c-1.7 0-3.1-1.4-3.1-3.1 0-1.7 1.4-3.1 3.1-3.1 1.7 0 3.1 1.4 3.1 3.1.1 1.7-1.4 3.1-3.1 3.1z" fill="none" stroke="#000" stroke-width=".5" stroke-miterlimit="10"/><path d="M17.25 10.55c-.9 0-1.6.7-1.6 1.6 0 .9.7 1.6 1.6 1.6.9 0 1.6-.7 1.6-1.6 0-.9-.7-1.6-1.6-1.6m0 4.8c-1.7 0-3.1-1.4-3.1-3.1 0-1.7 1.4-3.1 3.1-3.1 1.7 0 3.1 1.4 3.1 3.1 0 1.7-1.4 3.1-3.1 3.1"/><path d="M17.25 10.55c-.9 0-1.6.7-1.6 1.6 0 .9.7 1.6 1.6 1.6.9 0 1.6-.7 1.6-1.6 0-.9-.7-1.6-1.6-1.6zm0 4.8c-1.7 0-3.1-1.4-3.1-3.1 0-1.7 1.4-3.1 3.1-3.1 1.7 0 3.1 1.4 3.1 3.1 0 1.7-1.4 3.1-3.1 3.1z" fill="none" stroke="#000" stroke-width=".5" stroke-miterlimit="10"/><path d="M17.05 1.75h21.7V.25h-21.7z" stroke="#000" stroke-width=".5" stroke-miterlimit="10"/></g></svg>