<svg xmlns="http://www.w3.org/2000/svg" viewBox="0 0 79.73333 80.26667" height="80.267" width="79.733"><defs><clipPath id="a"><path d="M0 60.2h59.8V0H0z"/></clipPath></defs><g clip-path="url(#a)" transform="matrix(1.33333 0 0 -1.33333 0 80.267)" fill="#24abe2"><path d="M3 11.7l8.5-8.5C13.6 1.1 16.3 0 19.3 0s5.7 1.1 7.8 3.2l12 12-4.2 4.2-12-12c-.9-.9-2.2-1.5-3.5-1.5-1.3 0-2.6.5-3.5 1.5l-8.5 8.5c-.9.9-1.5 2.2-1.5 3.5 0 1.3.5 2.6 1.5 3.5l12 12-4.2 4.2-12-12C1.1 25 0 22.3 0 19.3s1-5.5 3-7.6m53.8 36.8L48.3 57c-2.1 2.1-4.8 3.2-7.8 3.2s-5.7-1.1-7.8-3.2l-12-12 4.2-4.2 12 12c.9.9 2.2 1.5 3.5 1.5 1.3 0 2.6-.5 3.5-1.5l8.5-8.5c.9-.9 1.5-2.2 1.5-3.5 0-1.3-.5-2.6-1.5-3.5l-12-12 4.2-4.2 12 12c2.1 2.1 3.2 4.8 3.2 7.8s-1 5.5-3 7.6"/><path d="M17.878 22.322l19.8 19.799 4.241-4.242-19.797-19.8z"/></g></svg>