<svg xmlns="http://www.w3.org/2000/svg" viewBox="0 0 120 120" height="120" width="120"><defs><clipPath id="a"><path d="M0 90h90V0H0z"/></clipPath></defs><g clip-path="url(#a)" transform="matrix(1.33333 0 0 -1.33333 0 120)" fill="#24abe2"><path d="M59.772 37.684a68.506 68.506 0 0 0 2.664 5.02c4.254 7.237 7.292 16.89 8.856 27.713h13.621c-1.025-14.882-11.153-27.445-25.14-32.733M48.844 20h-7.69c-1.641 9.016-4.772 17.565-9.28 25.236-5.66 9.63-9.024 24.013-9.35 39.764h44.95c-.323-15.75-3.689-30.135-9.349-39.764-4.507-7.67-7.636-16.22-9.281-25.236M55 15V5H35v10zM5.086 70.417h13.623c1.563-10.824 4.602-20.477 8.855-27.713a69.086 69.086 0 0 0 2.665-5.02C16.24 42.972 6.113 55.535 5.086 70.417m82.415 5H71.903c.388 3.924.597 7.967.597 12.083A2.5 2.5 0 0 1 70 90H20a2.5 2.5 0 0 1-2.5-2.5c0-4.116.209-8.159.599-12.083H2.5a2.5 2.5 0 0 1-2.5-2.5C0 53.28 13.905 36.693 32.814 31.612A73.885 73.885 0 0 0 36.07 20H32.5a2.5 2.5 0 0 1-2.5-2.5v-15A2.5 2.5 0 0 1 32.5 0h25A2.5 2.5 0 0 1 60 2.5v15a2.5 2.5 0 0 1-2.5 2.5h-3.568a74.101 74.101 0 0 0 3.253 11.612C76.096 36.693 90 53.28 90 72.917a2.5 2.5 0 0 1-2.5 2.5"/><path d="M32.943 77.729a2.51 2.51 0 0 1-2.718 2.261 2.5 2.5 0 0 1-2.261-2.718c1.089-11.859 4.009-22.336 8.22-29.501a2.5 2.5 0 1 1 4.31 2.533c-3.845 6.544-6.527 16.283-7.551 27.425"/></g></svg>