<svg xmlns="http://www.w3.org/2000/svg" viewBox="0 0 33.773468 36.649734" height="36.65" width="33.773"><defs><clipPath id="a"><path d="M0 27.487h25.33V0H0z"/></clipPath></defs><g clip-path="url(#a)" transform="matrix(1.33333 0 0 -1.33333 0 36.65)"><path d="M22.83 3.871c0-.756-.615-1.37-1.371-1.37H3.87c-.756 0-1.371.614-1.371 1.37v17.59c0 .755.615 1.37 1.37 1.37h2.18v-1.22a1 1 0 1 1 2 0v1.22h3.615v-1.22a1 1 0 0 1 2 0v1.22h3.614v-1.22a1 1 0 1 1 2 0v1.22h2.18c.756 0 1.37-.615 1.37-1.37zm-1.371 20.96h-2.18v1.156a1 1 0 1 1-2 0V24.83h-3.614v1.157a1 1 0 1 1-2 0V24.83H8.05v1.157a1 1 0 1 1-2 0V24.83H3.87A3.374 3.374 0 0 1 .5 21.46V3.871A3.376 3.376 0 0 1 3.87.5h17.59a3.377 3.377 0 0 1 3.37 3.372v17.59a3.375 3.375 0 0 1-3.37 3.37"/><path d="M22.83 3.871c0-.756-.615-1.37-1.371-1.37H3.87c-.756 0-1.371.614-1.371 1.37v17.59c0 .755.615 1.37 1.37 1.37h2.18v-1.22a1 1 0 1 1 2 0v1.22h3.615v-1.22a1 1 0 0 1 2 0v1.22h3.614v-1.22a1 1 0 1 1 2 0v1.22h2.18c.756 0 1.37-.615 1.37-1.37zm-1.371 20.96h-2.18v1.156a1 1 0 1 1-2 0V24.83h-3.614v1.157a1 1 0 1 1-2 0V24.83H8.05v1.157a1 1 0 1 1-2 0V24.83H3.87A3.374 3.374 0 0 1 .5 21.46V3.871A3.376 3.376 0 0 1 3.87.5h17.59a3.377 3.377 0 0 1 3.37 3.372v17.59a3.375 3.375 0 0 1-3.37 3.37z" fill="none" stroke="#000" stroke-miterlimit="10"/><path d="M18.279 17.091H7.05a1 1 0 1 1 0-2h11.228a1 1 0 1 1 0 2"/><path d="M18.279 17.091H7.05a1 1 0 1 1 0-2h11.228a1 1 0 1 1 0 2z" fill="none" stroke="#000" stroke-miterlimit="10"/><path d="M18.279 12.905H7.05a1 1 0 1 1 0-2h11.228a1 1 0 1 1 0 2"/><path d="M18.279 12.905H7.05a1 1 0 1 1 0-2h11.228a1 1 0 1 1 0 2z" fill="none" stroke="#000" stroke-miterlimit="10"/><path d="M18.279 8.718H7.05a1 1 0 1 1 0-2h11.228a1 1 0 1 1 0 2"/><path d="M18.279 8.718H7.05a1 1 0 1 1 0-2h11.228a1 1 0 1 1 0 2z" fill="none" stroke="#000" stroke-miterlimit="10"/></g></svg>