<svg xmlns="http://www.w3.org/2000/svg" viewBox="0 0 21.675734 17.139732" height="17.14" width="21.676"><defs><clipPath id="a"><path d="M0 12.855h16.257V0H0z"/></clipPath></defs><g clip-path="url(#a)" transform="matrix(1.33333 0 0 -1.33333 0 17.14)" fill="#2dafe3"><path d="M1.138 8.923H.487A.496.496 0 0 1 0 8.432c0-.266.223-.491.487-.491h.65c.267 0 .492.225.492.49a.498.498 0 0 1-.491.492M15.762.991H5.417A.499.499 0 0 1 4.93.495c0-.269.223-.495.487-.495h10.345a.495.495 0 1 1 0 .991M1.138 12.855H.487A.488.488 0 0 1 0 12.368c0-.264.223-.487.487-.487h.65c.267 0 .492.223.492.487a.496.496 0 0 1-.491.487m14.624-7.931H5.417a.498.498 0 0 1-.487-.496c0-.264.223-.487.487-.487h10.345a.491.491 0 1 1 0 .983m-14.624.059H.487A.498.498 0 0 1 0 4.487C0 4.223.223 4 .487 4h.65c.267 0 .492.223.492.487a.5.5 0 0 1-.491.496m0-3.933H.487A.499.499 0 0 1 0 .554C0 .284.223.059.487.059h.65a.5.5 0 0 1 .492.495.506.506 0 0 1-.491.496m14.624 11.746H5.417a.488.488 0 0 1-.487-.487c0-.264.223-.487.487-.487h10.345c.273 0 .495.22.495.487a.491.491 0 0 1-.495.487m0-3.932H5.417a.49.49 0 0 1-.487-.49c0-.267.223-.492.487-.492h10.345a.5.5 0 0 1 .495.491.493.493 0 0 1-.495.491m-12.124 0h-.651a.496.496 0 0 1-.487-.49c0-.267.223-.492.487-.492h.65c.267 0 .492.225.492.491a.498.498 0 0 1-.491.491m0 3.932h-.651a.488.488 0 0 1-.487-.487c0-.264.223-.487.487-.487h.65c.267 0 .492.223.492.487a.496.496 0 0 1-.491.487m0-7.872h-.651a.498.498 0 0 1-.487-.496c0-.264.223-.487.487-.487h.65c.267 0 .492.223.492.487a.5.5 0 0 1-.491.496m0-3.933h-.651A.499.499 0 0 1 2.5.495C2.5.226 2.723 0 2.987 0h.65a.5.5 0 0 1 .492.495.506.506 0 0 1-.491.496"/></g></svg>