<svg xmlns="http://www.w3.org/2000/svg" viewBox="0 0 33.333332 38.386665" height="38.387" width="33.333"><path d="M8 26.387h4v-1.334H8zm0-4h4v-1.334H8zm0-4h4v-1.334H8zm0 12h4v-1.334H8zm0 4h4v-1.334H8zm5.333-4H16v-1.334h-2.667zm0-12H16v-1.334h-2.667zm0 4H16v-1.334h-2.667zm0 12H16v-1.334h-2.667zm0-8H16v-1.334h-2.667zm-9.333-8h2.668v-1.334H4zm21.333 16h4v-1.334h-4zm-5.333-4h4v-1.334h-4zm0-8h4v-1.334h-4zm0 4h4v-1.334h-4zm-16-4h2.668v-1.334H4z"/><path d="M1.333 0v37.053H0v1.334h33.333v-1.334H32V22.476l-13.332-7.619V9.905zm1.334 2.297l14.666 8.382v26.374H2.667zm16.001 14.096l12 6.856v13.804h-12z"/><path d="M20 34.387h4v-1.334h-4zm-16 0h2.668v-1.334H4zm0-4h2.668v-1.334H4zm21.333 0h4v-1.334h-4zM4 26.387h2.668v-1.334H4zm21.333 0h4v-1.334h-4z"/><path d="M5.31 14.955h1.875v-4.816H5.31z" fill="#231f20"/><path d="M9.063 14.956h1.125v-2.41H9.063z" fill="#25a9e0"/><path d="M7.561 14.956h1.126V10.14H7.56z" fill="#ec1c24"/><path d="M11.313 14.955h1.876v-4.816h-1.876z" fill="#231f20"/><path d="M13.565 14.955h1.126v-3.952h-1.126z" fill="#25a9e0"/></svg>