<svg xmlns="http://www.w3.org/2000/svg" viewBox="0 0 77.333336 125.33333" height="125.333" width="77.333"><defs><clipPath id="a"><path d="M0 94h58V0H0z"/></clipPath></defs><g clip-path="url(#a)" transform="matrix(1.33333 0 0 -1.33333 0 125.333)"><path d="M29 15a3 3 0 1 1 0-6 3 3 0 0 1 0 6M7 17h44V9c0-1.16-.84-2-2-2H9c-1.16 0-2 .84-2 2zm0 60h44V23H7zm2 10h40c1.16 0 2-.84 2-2v-2H7v2c0 1.16.84 2 2 2m0 6c-4.38 0-8-3.62-8-8V9c0-4.38 3.62-8 8-8h40c4.38 0 8 3.62 8 8v76c0 4.38-3.62 8-8 8z"/><path d="M29 15a3 3 0 1 1 0-6 3 3 0 0 1 0 6zM7 17h44V9c0-1.16-.84-2-2-2H9c-1.16 0-2 .84-2 2zm0 60h44V23H7zm2 10h40c1.16 0 2-.84 2-2v-2H7v2c0 1.16.84 2 2 2zm0 6c-4.38 0-8-3.62-8-8V9c0-4.38 3.62-8 8-8h40c4.38 0 8 3.62 8 8v76c0 4.38-3.62 8-8 8z" fill="none" stroke="#000" stroke-width="2" stroke-miterlimit="10"/></g></svg>