<svg xmlns="http://www.w3.org/2000/svg" viewBox="0 0 78.933334 88.133331" height="88.133" width="78.933"><defs><clipPath id="a"><path d="M0 66.1h59.2V0H0z"/></clipPath><clipPath id="b"><path d="M0 66.1h59.2V0H0z"/></clipPath></defs><path d="M.333 18.6H78.6V.335H.333zM2.335 2.333H76.6V16.6H2.335z"/><g clip-path="url(#a)" transform="matrix(1.33333 0 0 -1.33333 0 88.133)"><path d="M57.35 53.65H1.75v10.7h55.7v-10.7zm-57.1-1.5h58.7v13.7H.25z" fill="none" stroke="#000" stroke-width=".5" stroke-miterlimit="10"/></g><path d="M6.467 8.467h2v2h-2zm5.066 0h2v2h-2zm5.067 0h2v2h-2zm8.4 0h16.933v2H25z" stroke="#000" stroke-width=".667" stroke-miterlimit="10"/><g clip-path="url(#b)" transform="matrix(1.33333 0 0 -1.33333 0 88.133)"><path d="M50.25 60.75c1 0 1.8-.8 1.8-1.8s-.8-1.8-1.8-1.8-1.8.8-1.8 1.8.8 1.8 1.8 1.8m0-5.1c1.8 0 3.3 1.5 3.3 3.3 0 1.8-1.5 3.3-3.3 3.3-1.8 0-3.3-1.5-3.3-3.3 0-1.8 1.5-3.3 3.3-3.3"/><path d="M50.25 60.75c1 0 1.8-.8 1.8-1.8s-.8-1.8-1.8-1.8-1.8.8-1.8 1.8.8 1.8 1.8 1.8zm0-5.1c1.8 0 3.3 1.5 3.3 3.3 0 1.8-1.5 3.3-3.3 3.3-1.8 0-3.3-1.5-3.3-3.3 0-1.8 1.5-3.3 3.3-3.3z" fill="none" stroke="#000" stroke-width=".5" stroke-miterlimit="10"/><path d="M40.95 60.75c1 0 1.8-.8 1.8-1.8s-.8-1.8-1.8-1.8-1.8.8-1.8 1.8.8 1.8 1.8 1.8m0-5.1c1.8 0 3.3 1.5 3.3 3.3 0 1.8-1.5 3.3-3.3 3.3-1.8 0-3.3-1.5-3.3-3.3 0-1.8 1.4-3.3 3.3-3.3"/><path d="M40.95 60.75c1 0 1.8-.8 1.8-1.8s-.8-1.8-1.8-1.8-1.8.8-1.8 1.8.8 1.8 1.8 1.8zm0-5.1c1.8 0 3.3 1.5 3.3 3.3 0 1.8-1.5 3.3-3.3 3.3-1.8 0-3.3-1.5-3.3-3.3 0-1.8 1.4-3.3 3.3-3.3z" fill="none" stroke="#000" stroke-width=".5" stroke-miterlimit="10"/><path d="M1.75 47.65h55.7v-10.7H1.75zm-1.5-12.2h58.7v13.7H.25z" stroke="#000" stroke-width=".5" stroke-miterlimit="10"/><path d="M4.85 43.05h1.5v-1.5h-1.5zm7.6 0h1.5v-1.5h-1.5zm-3.8 0h1.5v-1.5h-1.5zm10.1 0h12.7v-1.5h-12.7z" stroke="#000" stroke-width=".5" stroke-miterlimit="10"/><path d="M50.25 40.55c-1 0-1.8.8-1.8 1.8s.8 1.8 1.8 1.8 1.8-.8 1.8-1.8-.8-1.8-1.8-1.8m0 5.1c-1.8 0-3.3-1.5-3.3-3.3 0-1.8 1.5-3.3 3.3-3.3 1.8 0 3.3 1.5 3.3 3.3 0 1.8-1.5 3.3-3.3 3.3"/><path d="M50.25 40.55c-1 0-1.8.8-1.8 1.8s.8 1.8 1.8 1.8 1.8-.8 1.8-1.8-.8-1.8-1.8-1.8zm0 5.1c-1.8 0-3.3-1.5-3.3-3.3 0-1.8 1.5-3.3 3.3-3.3 1.8 0 3.3 1.5 3.3 3.3 0 1.8-1.5 3.3-3.3 3.3z" fill="none" stroke="#000" stroke-width=".5" stroke-miterlimit="10"/><path d="M40.95 40.55c-1 0-1.8.8-1.8 1.8s.8 1.8 1.8 1.8 1.8-.8 1.8-1.8-.8-1.8-1.8-1.8m0 5.1c-1.8 0-3.3-1.5-3.3-3.3 0-1.8 1.5-3.3 3.3-3.3 1.8 0 3.3 1.5 3.3 3.3 0 1.8-1.5 3.3-3.3 3.3"/><path d="M40.95 40.55c-1 0-1.8.8-1.8 1.8s.8 1.8 1.8 1.8 1.8-.8 1.8-1.8-.8-1.8-1.8-1.8zm0 5.1c-1.8 0-3.3-1.5-3.3-3.3 0-1.8 1.5-3.3 3.3-3.3 1.8 0 3.3 1.5 3.3 3.3 0 1.8-1.5 3.3-3.3 3.3z" fill="none" stroke="#000" stroke-width=".5" stroke-miterlimit="10"/><path d="M1.75 31.05h55.7v-10.7H1.75zm34.7-29.2h-13.8v4.9h13.7v-4.9zm-36.2 17h28.6V8.15h-7.6v-3.2H6.65v-1.5h14.5V.25h16.7v3.2h14.5v1.5h-14.4v3.2h-7.6v10.7h28.6v13.7H.25z"/><path d="M1.75 31.05h55.7v-10.7H1.75zm34.7-29.2h-13.8v4.9h13.7v-4.9zm-36.2 17h28.6V8.15h-7.6v-3.2H6.65v-1.5h14.5V.25h16.7v3.2h14.5v1.5h-14.4v3.2h-7.6v10.7h28.6v13.7H.25z" fill="none" stroke="#000" stroke-width=".5" stroke-miterlimit="10"/><path d="M8.65 26.45h1.5v-1.5h-1.5zm-3.8 0h1.5v-1.5h-1.5zm7.6 0h1.5v-1.5h-1.5zm6.3 0h12.7v-1.5h-12.7z" stroke="#000" stroke-width=".5" stroke-miterlimit="10"/><path d="M50.25 23.85c-1 0-1.8.8-1.8 1.8s.8 1.8 1.8 1.8 1.8-.8 1.8-1.8-.8-1.8-1.8-1.8m0 5.1c-1.8 0-3.3-1.5-3.3-3.3 0-1.8 1.5-3.3 3.3-3.3 1.8 0 3.3 1.5 3.3 3.3 0 1.8-1.5 3.3-3.3 3.3"/><path d="M50.25 23.85c-1 0-1.8.8-1.8 1.8s.8 1.8 1.8 1.8 1.8-.8 1.8-1.8-.8-1.8-1.8-1.8zm0 5.1c-1.8 0-3.3-1.5-3.3-3.3 0-1.8 1.5-3.3 3.3-3.3 1.8 0 3.3 1.5 3.3 3.3 0 1.8-1.5 3.3-3.3 3.3z" fill="none" stroke="#000" stroke-width=".5" stroke-miterlimit="10"/><path d="M40.95 23.85c-1 0-1.8.8-1.8 1.8s.8 1.8 1.8 1.8 1.8-.8 1.8-1.8-.8-1.8-1.8-1.8m0 5.1c-1.8 0-3.3-1.5-3.3-3.3 0-1.8 1.5-3.3 3.3-3.3 1.8 0 3.3 1.5 3.3 3.3 0 1.8-1.5 3.3-3.3 3.3"/><path d="M40.95 23.85c-1 0-1.8.8-1.8 1.8s.8 1.8 1.8 1.8 1.8-.8 1.8-1.8-.8-1.8-1.8-1.8zm0 5.1c-1.8 0-3.3-1.5-3.3-3.3 0-1.8 1.5-3.3 3.3-3.3 1.8 0 3.3 1.5 3.3 3.3 0 1.8-1.5 3.3-3.3 3.3z" fill="none" stroke="#000" stroke-width=".5" stroke-miterlimit="10"/><path d="M30.35 4.95h1.5v-1.5h-1.5zm-3.5 0h1.5v-1.5h-1.5z" stroke="#000" stroke-width=".5" stroke-miterlimit="10"/></g></svg>