<svg xmlns="http://www.w3.org/2000/svg" viewBox="0 0 97.866669 97.866669" height="97.867" width="97.867"><defs><clipPath id="a"><path d="M0 73.4h73.4V0H0z"/></clipPath></defs><g clip-path="url(#a)" transform="matrix(1.33333 0 0 -1.33333 0 97.867)" fill="#24abe2"><path d="M36.7 6C19.8 6 6 19.8 6 36.7s13.8 30.7 30.7 30.7 30.7-13.8 30.7-30.7S53.6 6 36.7 6m0 67.4C16.4 73.4 0 56.9 0 36.7 0 16.5 16.4 0 36.7 0 57 0 73.4 16.4 73.4 36.7 73.4 57 57 73.4 36.7 73.4"/><path d="M45.608 49.622l-8.907-8.908-8.908 8.908-4.015-4.014 8.908-8.908-8.908-8.907 4.015-4.014 8.908 8.907 8.907-8.908 4.014 4.015-8.907 8.907 8.907 8.908z"/></g></svg>