<svg xmlns="http://www.w3.org/2000/svg" viewBox="0 0 80.666664 79.333336" height="79.333" width="80.667"><defs><clipPath id="a"><path d="M0 59.5h60.5V0H0z"/></clipPath></defs><g clip-path="url(#a)" transform="matrix(1.33333 0 0 -1.33333 0 79.333)" stroke="#24abe2" fill="none" stroke-width="2.5" stroke-linecap="round" stroke-linejoin="round"><path d="M25.25 32.25h-22a2 2 0 0 0-2 2v22a2 2 0 0 0 2 2h22a2 2 0 0 0 2-2v-22a2 2 0 0 0-2-2z"/><path d="M53.675 35.683c-.727 3.328-2.121 6.326-4.054 8.863" stroke-dasharray="2.312,3.4670000000000001,2.3119999999999998,3.4670000000000001"/><path d="M48.517 45.88c-3.382 3.768-8.07 6.31-13.541 7.104" stroke-dasharray="2.312,3.4670000000000001,2.3119999999999998,3.4670000000000001,2.3119999999999998,3.4670000000000001"/><path d="M6.825 22.817c.727-3.328 2.121-6.326 4.054-8.863" stroke-dasharray="2.312,3.4670000000000001,2.3119999999999998,3.4670000000000001"/><path d="M11.983 12.62c3.382-3.769 8.07-6.31 13.541-7.105" stroke-dasharray="2.312,3.4670000000000001,2.3119999999999998,3.4670000000000001,2.3119999999999998,3.4670000000000001"/><path d="M59.25 22.25c0-1.657-5.82-3-13-3s-13 1.343-13 3 5.82 3 13 3 13-1.343 13-3z"/><path d="M46.25 19.25c-7.18 0-13 1.343-13 3v-6c0-1.657 5.82-3 13-3s13 1.343 13 3v6c0-1.657-5.82-3-13-3z"/><path d="M46.25 13.25c-7.18 0-13 1.343-13 3v-6c0-1.657 5.82-3 13-3s13 1.343 13 3v6c0-1.657-5.82-3-13-3z"/><path d="M46.25 7.25c-7.18 0-13 1.343-13 3v-6c0-1.657 5.82-3 13-3s13 1.343 13 3v6c0-1.657-5.82-3-13-3zm-41 46h10m-7-4h11m-14-4h10m-10-4h4m-2-4h8"/></g></svg>