<svg xmlns="http://www.w3.org/2000/svg" viewBox="0 0 109.14533 129.18494" height="129.185" width="109.145"><defs><clipPath id="a"><path d="M0 96.889h81.859V0H0z"/></clipPath></defs><g clip-path="url(#a)" transform="matrix(1.33333 0 0 -1.33333 0 129.185)" fill="#24abe2"><path d="M39.291 59.871a2.5 2.5 0 1 0-2.5 2.5 2.5 2.5 0 0 0 2.53-2.47v-.03zm15.88 0a2.5 2.5 0 1 0-2.5 2.5 2.5 2.5 0 0 0 2.53-2.47v-.03zm-7.94 0a2.5 2.5 0 1 0-2.5 2.5 2.5 2.5 0 0 0 2.53-2.47v-.03zm11-13.47a19 19 0 0 0-23.21-2.87 2.497 2.497 0 0 1-2 .25l-6.2-1.8 1.8 6.2c.201.672.11 1.398-.25 2-5.311 9.05-2.28 20.692 6.77 26.003 9.05 5.312 20.692 2.28 26.003-6.77a18.999 18.999 0 0 0-2.913-23.013m-30.48 30.47a24 24 0 0 1-4.21-28.34l-1.76-6.06a4.5 4.5 0 0 1 5.58-5.58l6.06 1.76c11.708-6.214 26.237-1.759 32.451 9.95 6.212 11.707 1.758 26.236-9.95 32.45a23.998 23.998 0 0 1-28.171-4.18m40.18-39.34a2.497 2.497 0 0 1-.599-2.42l5.279-18.58a.999.999 0 0 0-.68-1.21l-35.93-10.25a1 1 0 0 0-1.19.66l-2.79 9.8a2.5 2.5 0 0 1-2.4 1.81h-13.43a3.74 3.74 0 0 0-3.74 3.74v13.181a2.499 2.499 0 0 1-1.71 2.37l-5.38 1.78a.51.51 0 0 0-.31.69l5.73 12.85a19.199 19.199 0 0 1 1.68 7.87c-.005 17.783 14.407 32.204 32.19 32.21h.09c17.778-.009 32.183-14.428 32.175-32.205a32.185 32.185 0 0 0-8.985-22.296m13.85 24.59c-1.344 20.501-19.053 36.031-39.554 34.686-19.503-1.279-34.69-17.432-34.766-36.976a14.25 14.25 0 0 0-1.24-5.84l-5.74-12.85a5.51 5.51 0 0 1 3.3-7.48l3.67-1.21v-11.39a8.75 8.75 0 0 1 8.74-8.74h11.54l2.27-8a6 6 0 0 1 7.37-4.099l35.95 10.31a6 6 0 0 1 4.1 7.37l-4.94 17.27a36.84 36.84 0 0 1 9.3 26.95"/></g></svg>