<svg xmlns="http://www.w3.org/2000/svg" width="115.126" height="125.346" viewBox="0 0 115.126 125.34587"><defs><clipPath id="a"><path d="M0 94.009h86.344V0H0z"/></clipPath></defs><g clip-path="url(#a)" transform="matrix(1.33333 0 0 -1.33333 0 125.346)"><path d="M81.245 31.6c0-1.8-.601-3.7-2-6-1.101-2-2.601-3.5-4.601-4.6a2765.308 2765.308 0 0 1-25.1-14.5l-.2-.1c-2.1-1.2-4.4-1.7-7.2-1.6-2.2.2-4.1.8-5.9 1.9-4.2 2.4-8.3 4.8-12.5 7.2-4.2 2.4-8.3 4.8-12.5 7.2-2.8 1.6-4.7 4-5.9 7.6-.4 1-.6 2.2-.6 3.6v29.2c0 5 2.1 8.6 6.5 11.3 6 3.6 12.2 7.1 18.2 10.6 2.4 1.4 4.8 2.7 7.2 4.1 1.8 1.1 3.7 1.6 6.1 1.6h.6c2.2-.1 4.2-.7 6.1-1.8 4.2-2.4 8.4-4.9 12.6-7.3 4.2-2.4 8.4-4.9 12.7-7.3 2.8-1.6 4.7-4.1 5.9-7.8.3-1 .5-2.2.5-3.4V31.6zm4.3 34.8c-1.6 4.9-4.3 8.4-8.2 10.6-4.201 2.5-8.4 4.9-12.6 7.3-4.2 2.4-8.4 4.8-12.601 7.3-2.7 1.5-5.4 2.3-8.4 2.4-3.6.1-6.7-.6-9.4-2.2-2.4-1.4-4.8-2.7-7.1-4.1-6-3.4-12.2-7-18.3-10.6-5.8-3.5-8.9-8.9-8.9-15.5-.1-6.5 0-13.1 0-19.5v-9.7c0-1.9.3-3.7.8-5.2 1.6-4.6 4.3-8.1 8.1-10.3 4.1-2.4 8.3-4.8 12.5-7.2 4.2-2.4 8.4-4.8 12.5-7.2 2.5-1.5 5.1-2.3 8.1-2.5h1.4c3.2 0 6.1.8 8.7 2.3l.1.1c8.2 4.8 16.7 9.7 25 14.5 2.7 1.5 4.9 3.6 6.5 6.4 1.8 3.1 2.6 5.7 2.6 8.5v29.9c-.1 1.4-.3 3.1-.8 4.7m-42.5-26.2a6.7 6.7 0 1 0 .001 13.401 6.7 6.7 0 0 0 0-13.4m0 18.4c-6.5 0-11.7-5.3-11.7-11.7 0-6.5 5.3-11.7 11.7-11.7 6.5 0 11.7 5.3 11.7 11.7 0 6.5-5.2 11.7-11.7 11.7m24.2-13.7l-5.9-.3c-1.1-.1-2-.8-2.3-1.9-.401-1.5-1-2.9-1.8-4.3-.601-.9-.4-2.1.3-3l4-4.402-2.8-2.799-4.4 4c-.8.7-2 .9-2.9.3-1.4-.8-2.801-1.4-4.301-1.8-1.1-.3-1.8-1.2-1.9-2.3l-.3-5.9h-3.9l-.3 5.9c-.1 1.1-.8 2-1.9 2.3-1.5.4-2.9 1-4.3 1.8-.9.6-2.1.4-2.9-.3l-4.4-4-2.8 2.8 4 4.4c.7.8.9 2 .3 2.9-.8 1.4-1.4 2.8-1.8 4.3-.3 1.1-1.2 1.8-2.3 1.9l-5.9.3v4.1l5.9.3c1.1.1 2 .8 2.3 1.9.4 1.5 1 2.9 1.8 4.3.5.9.4 2.1-.3 2.9l-4 4.4 2.8 2.8 4.4-4c.8-.7 2-.9 3-.3 1.3.8 2.8 1.4 4.3 1.8 1.1.3 1.8 1.2 1.9 2.3l.3 5.9h3.9l.3-5.9c.1-1.1.8-2 1.9-2.3 1.5-.4 2.9-1 4.3-1.8.9-.6 2.1-.4 3 .3l4.4 4 2.8-2.8-4-4.4c-.7-.8-.9-2-.3-2.9.8-1.3 1.4-2.8 1.8-4.3.3-1.1 1.2-1.8 2.3-1.9l5.9-.3v-4zm2.7 8.8l-6.5.3-.9 2.1 4.4 4.8c.9 1 .9 2.5-.1 3.4l-6.1 6.1c-.9.9-2.5 1-3.4.1l-4.8-4.4-2.1.9-.301 6.5c-.1 1.3-1.2 2.4-2.5 2.4h-8.7c-1.3 0-2.4-1-2.5-2.4l-.3-6.5-2.1-.9-4.8 4.4c-1 .9-2.5.9-3.4-.1l-6.1-6.1c-.9-.9-1-2.5-.1-3.4l4.4-4.9-.9-2.1-6.5-.3c-1.3-.1-2.4-1.2-2.4-2.5v-8.7c0-1.3 1-2.4 2.4-2.5l6.5-.3.9-2.1-4.4-4.9c-.9-1-.9-2.5.1-3.4l6.1-6.1c.9-.9 2.5-1 3.4-.102l4.8 4.401 2.1-.9.3-6.5c.1-1.3 1.2-2.4 2.5-2.4h8.7c1.3 0 2.4 1 2.5 2.4l.3 6.5 2.1.9 4.8-4.4c1-.9 2.5-.9 3.4.1l6.1 6.1c.9.9 1 2.5.1 3.4l-4.4 4.8.9 2.1 6.5.3c1.3.1 2.4 1.2 2.4 2.5V51c-.1 1.6-1.1 2.7-2.4 2.7" fill="#2dafe3"/></g></svg>