<svg xmlns="http://www.w3.org/2000/svg" viewBox="0 0 119.71467 106.93867" height="106.939" width="119.715"><defs><clipPath id="a"><path d="M0 80.204h89.786V0H0z"/></clipPath></defs><path d="M38.021 82.213v-42.47h43.763V72.93h-24.04zm49.095-3.95V34.41H32.688v56.207l26.25-12.355h28.178z"/><path d="M38.021 82.213v-42.47h43.763V72.93h-24.04zm49.095-3.95V34.41H32.688v56.207l26.25-12.355h28.178z" stroke-width=".333" stroke-miterlimit="10" fill="#2dafe3" stroke="#2dafe3"/><path d="M43.54 44.537h32.723v5.334H43.54zm0 8.79h24.532v5.333H43.54zm0 8.789h29.412v5.333H43.54z" fill="#2dafe3" stroke="#2dafe3" stroke-width=".333" stroke-miterlimit="10"/><g clip-path="url(#a)" transform="matrix(1.33333 0 0 -1.33333 0 106.939)" fill="#2dafe3" stroke="#2dafe3"><path d="M71.431 25.12c-.016 0-.033.004-.05.004v24.219c.024.126.038.255.038.387v3.852h.012c7.848 0 14.231-6.383 14.231-14.231 0-7.847-6.383-14.231-14.23-14.231M50.895 4.126H45.84a2.751 2.751 0 0 0-2.749 2.749 2.752 2.752 0 0 0 2.75 2.749h5.054a2.753 2.753 0 0 0 2.75-2.75 2.753 2.753 0 0 0-2.75-2.748M4.126 39.492c0 7.846 6.384 14.23 14.231 14.23.025 0 .051-.004.077-.004v-.755c-.012-.087-.026-.172-.026-.261v-27.44l-.05-.002c-7.848 0-14.233 6.383-14.233 14.232m67.306 18.09c-.074 0-.146-.01-.22-.012-1.602 12.857-12.567 22.509-26.284 22.509-13.669 0-24.604-9.585-26.266-22.373-.102.002-.202.017-.304.017-10.054 0-18.232-8.18-18.232-18.23 0-10.053 8.18-18.231 18.232-18.231.678 0 1.356.043 2.021.118l.03-.003a2 2 0 0 1 2 2v26.092c.011.087.025.172.025.26v4.58c0 12.412 9.67 21.77 22.492 21.77 12.822 0 22.493-9.357 22.493-21.77v-1.221a2.131 2.131 0 0 1-.039-.386V24.198c-.009-.077-.023-.152-.023-.231v-6.642c0-4.982-3.506-8.461-8.727-8.651l-1.225-.046c-.773 2.873-3.395 4.996-6.51 4.996H45.84a6.756 6.756 0 0 1-6.749-6.75A6.755 6.755 0 0 1 45.84.127h5.054c2.93 0 5.422 1.879 6.353 4.492l1.53.058c7.406.27 12.578 5.474 12.578 12.649v3.797l.074-.002c10.053 0 18.231 8.179 18.231 18.23 0 10.053-8.176 18.232-18.229 18.232"/><path d="M71.431 25.12c-.016 0-.033.004-.05.004v24.219c.024.126.038.255.038.387v3.852h.012c7.848 0 14.231-6.383 14.231-14.231 0-7.847-6.383-14.231-14.23-14.231zM50.896 4.126h-5.055a2.751 2.751 0 0 0-2.749 2.749 2.752 2.752 0 0 0 2.75 2.749h5.054a2.753 2.753 0 0 0 2.75-2.75 2.753 2.753 0 0 0-2.75-2.748zM4.126 39.492c0 7.846 6.384 14.23 14.231 14.23.025 0 .051-.004.077-.004v-.755c-.012-.087-.026-.172-.026-.261v-27.44l-.05-.002c-7.848 0-14.233 6.383-14.233 14.232zm67.305 18.09c-.074 0-.146-.01-.22-.012-1.602 12.857-12.567 22.509-26.284 22.509-13.669 0-24.604-9.585-26.266-22.373-.102.002-.202.017-.304.017-10.054 0-18.232-8.18-18.232-18.23 0-10.053 8.18-18.231 18.232-18.231.678 0 1.356.043 2.021.118l.03-.003a2 2 0 0 1 2 2v26.092c.011.087.025.172.025.26v4.58c0 12.412 9.67 21.77 22.492 21.77 12.822 0 22.493-9.357 22.493-21.77v-1.221a2.131 2.131 0 0 1-.039-.386V24.198c-.009-.077-.023-.152-.023-.231v-6.642c0-4.982-3.506-8.461-8.727-8.651l-1.225-.046c-.773 2.873-3.395 4.996-6.51 4.996H45.84a6.756 6.756 0 0 1-6.749-6.75A6.755 6.755 0 0 1 45.84.127h5.054c2.93 0 5.422 1.879 6.353 4.492l1.53.058c7.406.27 12.578 5.474 12.578 12.649v3.797l.074-.002c10.053 0 18.231 8.179 18.231 18.23 0 10.053-8.176 18.232-18.229 18.232z" stroke-width=".25" stroke-miterlimit="10"/></g></svg>