<svg xmlns="http://www.w3.org/2000/svg" viewBox="0 0 64 54.153332" height="54.153" width="64"><defs><clipPath id="a"><path d="M0 40.615h48V0H0z"/></clipPath></defs><g clip-path="url(#a)" transform="matrix(1.33333 0 0 -1.33333 0 54.153)" fill="#2dafe3"><path d="M33.2 31.7c.2 0 .3 0 .4.1 0-.5-.2-1-.6-1.3-.7-.7-1.9-.7-2.7 0-.4.4-.6.8-.6 1.3s.2 1 .6 1.3c.4.4.8.6 1.3.6.2 0 .4 0 .5-.1 0-.3-.1-.6-.1-.9.2-.5.7-1 1.2-1m5.3 3.3l-.8-10.5-22-22L2.4 15.7l22 22 10.5.8c.4 0 .7 0 1-.1-1.3-.7-2.4-1.7-3-3-1.3.4-2.9.1-3.9-.9-.7-.7-1.1-1.7-1.1-2.7 0-1 .4-2 1.1-2.7.7-.7 1.7-1.1 2.7-1.1 1 0 2 .4 2.7 1.1.7.7 1.1 1.7 1.1 2.7 0 1-.4 1.9-1 2.6.6 1.2 1.8 2.2 3.3 2.7.5-.6.8-1.3.7-2.1m1.6 4.5c-.5 0-1 0-1.5-.1-1.1.9-2.4 1.3-3.8 1.2l-10.9-.9c-.2 0-.5-.1-.6-.3l-23-23c-.4-.4-.4-1 0-1.4L15 .3c.2-.2.5-.3.7-.3.2 0 .5.1.7.3l23 23c.2.2.3.4.3.6l.8 10.9c.1.9-.1 1.8-.5 2.7h.1c3.2 0 5.9-2.1 5.9-4.8 0-.6.4-1 1-1s1 .4 1 1c0 3.7-3.5 6.8-7.9 6.8"/><path d="M13.6 17.2c-.2-.2-.5-.3-.9-.3-.3 0-.7.2-.9.5-.3.3-.4.6-.5.9 0 .3.1.6.3.8.2.2.5.3.9.3.3 0 .7-.2.9-.5.3-.3.4-.6.5-.9 0-.3-.1-.6-.3-.8m-1.1 4.1c-.8 0-1.5-.2-2.1-.8-.6-.6-.9-1.3-.8-2.2 0-.8.4-1.6 1-2.2.6-.6 1.3-.9 2.2-1 .8 0 1.5.3 2.1.8.6.6.9 1.3.8 2.2 0 .8-.4 1.6-1 2.2-.7.6-1.4 1-2.2 1m3.4 4.3l2.6-16.9 1.8 1.8-2.6 16.9zm8.9-8.5c-.2-.2-.5-.3-.9-.3-.3 0-.7.2-.9.5-.3.3-.4.6-.5.9 0 .3.1.6.3.8.2.2.5.3.9.3.3 0 .7-.2.9-.5.3-.3.4-.6.5-.9 0-.3-.1-.6-.3-.8m-1.2 4.1c-.8 0-1.5-.3-2.1-.8-.6-.6-.9-1.3-.8-2.2 0-.8.4-1.6 1-2.2.6-.6 1.3-.9 2.2-1 .8 0 1.5.3 2.1.8.6.6.9 1.3.8 2.2 0 .8-.4 1.6-1 2.2-.6.6-1.3.9-2.2 1"/></g></svg>